{"glyphs":{"0":{"ha":897,"x_min":0,"x_max":0,"o":"m 414 -50 b 1025 735 779 -42 1025 404 b 797 1024 1025 903 951 1024 b 185 250 485 1024 185 588 b 414 -50 185 51 281 -25 z m 358 193 b 840 953 358 435 586 922 b 915 771 893 940 915 872 b 489 10 915 578 740 24 b 358 193 404 24 358 68 z "},"1":{"ha":608,"x_min":0,"x_max":0,"o":"m 519 100 b 422 94 494 100 461 99 b 707 865 504 363 632 731 b 765 933 721 892 742 914 b 576 1011 743 978 629 997 b 503 913 557 974 524 932 b 282 674 418 832 350 765 b 297 636 282 653 288 642 b 482 764 344 678 419 735 b 279 75 408 550 332 299 b 47 21 167 57 63 35 b 193 -57 65 -26 121 -57 b 517 -22 281 -57 404 -22 b 610 -29 557 -22 586 -25 b 617 14 614 -18 617 0 b 519 100 617 68 581 100 z "},"2":{"ha":783,"x_min":0,"x_max":0,"o":"m 896 775 b 642 1008 896 914 794 1008 b 289 744 467 1008 289 885 b 440 599 289 661 353 599 b 476 603 453 599 464 600 b 433 719 447 639 433 674 b 643 954 433 846 538 954 b 769 808 718 954 769 899 b 419 360 769 664 636 538 b 121 28 226 201 144 135 b 219 -82 135 -18 175 -62 b 508 -32 279 -37 399 -33 b 767 11 622 -31 731 -29 b 782 71 778 29 782 50 b 738 208 782 125 754 190 b 326 46 633 117 474 54 b 500 253 361 117 397 164 b 896 775 728 450 896 596 z "},"3":{"ha":771,"x_min":0,"x_max":0,"o":"m 322 919 b 321 894 321 911 321 903 b 381 765 321 835 343 788 b 672 896 453 840 582 896 b 767 843 721 896 757 881 b 365 549 760 615 533 549 b 442 436 365 474 400 436 b 579 482 467 436 524 449 b 703 368 664 471 703 429 b 238 114 703 203 428 114 b 126 128 194 114 157 118 b 125 110 126 121 125 115 b 229 -50 125 26 161 -36 b 811 342 468 -50 811 58 b 636 517 811 442 758 503 b 826 810 753 596 826 718 b 617 990 826 897 769 990 b 322 919 528 990 378 958 z "},"4":{"ha":792,"x_min":0,"x_max":0,"o":"m 861 956 b 586 408 767 776 676 596 b 468 403 551 406 503 403 b 317 431 417 403 364 410 b 696 893 399 544 569 749 b 511 986 643 938 576 967 b 144 417 417 783 290 582 b 429 322 211 336 328 322 b 551 332 465 322 517 328 b 429 8 503 225 463 119 b 578 -43 468 -35 522 -42 b 726 376 610 103 660 240 l 836 417 b 822 447 835 428 829 439 l 754 433 b 1014 867 832 586 917 732 b 861 956 982 915 917 943 z "},"5":{"ha":747,"x_min":0,"x_max":0,"o":"m 243 529 b 367 449 268 493 326 464 b 547 504 422 485 489 504 b 643 419 611 504 643 478 b 103 76 643 228 308 79 b 221 -50 122 3 176 -40 b 742 358 464 -46 742 154 b 531 593 742 490 656 593 b 431 574 499 593 465 588 b 611 832 463 636 533 764 b 976 785 731 832 864 814 b 854 960 947 869 917 931 b 604 910 810 946 656 914 b 482 985 568 944 518 971 b 243 529 418 899 293 661 z "},"6":{"ha":785,"x_min":0,"x_max":0,"o":"m 764 1017 b 150 172 499 926 150 493 b 396 -64 150 43 251 -35 b 854 404 554 -64 854 236 b 689 621 854 489 765 579 b 393 443 597 617 481 535 b 947 904 525 688 817 886 b 764 1017 908 958 804 1017 z m 686 556 b 735 454 721 532 735 492 b 390 1 735 311 538 72 b 300 143 342 18 300 89 b 686 556 300 296 458 481 z "},"7":{"ha":774,"x_min":0,"x_max":0,"o":"m 335 506 b 281 414 313 493 281 439 b 282 408 281 410 282 411 b 469 419 339 415 394 419 b 331 0 385 256 333 103 b 514 -96 353 -40 429 -81 b 639 406 514 46 563 233 b 850 349 728 393 806 374 l 860 358 b 676 485 829 414 763 457 b 978 849 760 650 867 790 b 868 967 963 897 917 946 b 810 906 847 947 829 926 b 465 1017 708 957 571 1017 b 281 915 374 1017 315 985 b 421 794 297 854 351 807 b 586 894 443 860 500 894 b 767 858 636 894 701 882 b 522 514 674 750 590 631 b 463 517 503 515 482 517 b 335 506 421 517 376 513 z "},"8":{"ha":790,"x_min":0,"x_max":0,"o":"m 811 288 b 649 574 811 417 726 497 b 899 825 776 633 899 729 b 663 1031 899 913 801 986 b 336 749 511 1013 336 906 b 456 531 336 656 392 590 b 149 179 279 451 149 344 b 447 -62 149 -3 285 -62 b 811 288 619 -62 811 82 z m 294 150 b 521 468 294 251 353 371 b 629 260 579 411 629 349 b 428 -1 629 92 522 -1 b 294 150 360 -1 294 47 z m 774 857 b 594 626 774 781 664 672 b 517 789 550 675 517 725 b 699 960 517 868 622 946 b 774 857 740 953 774 917 z "},"9":{"ha":769,"x_min":0,"x_max":0,"o":"m 321 -83 b 938 764 586 4 938 540 b 699 1010 938 893 843 981 b 239 554 544 1010 239 722 b 396 324 239 469 319 365 b 683 507 481 328 603 422 b 154 26 554 269 283 43 b 321 -83 167 -11 271 -69 z m 406 403 b 371 513 381 428 371 471 b 676 956 371 651 542 886 b 796 818 735 939 796 871 b 406 403 796 664 589 440 z "},"A":{"ha":892,"x_min":0,"x_max":0,"o":"m 203 -106 b 260 153 208 -28 229 65 b 372 401 288 235 328 319 b 668 388 489 397 617 392 b 640 29 649 263 640 143 b 642 -43 640 4 640 -19 b 800 -104 651 -67 749 -104 b 817 -103 811 -104 813 -104 b 814 26 814 -57 814 -14 b 831 311 814 143 821 238 b 994 936 869 607 933 829 b 796 1022 988 961 847 1022 b 793 996 796 1018 794 1008 b 308 469 642 914 454 711 b 158 407 224 454 169 435 b 269 404 182 407 222 406 b 85 -18 154 201 85 42 b 203 -106 85 -57 114 -79 z m 739 729 b 686 496 718 650 700 572 b 421 483 588 494 499 490 b 767 854 536 669 674 819 b 739 729 757 804 746 756 z "},"Æ":{"ha":1269,"x_min":0,"x_max":0,"o":"m 1079 581 b 958 575 1042 581 1000 576 b 1108 882 1064 811 1085 850 l 1094 901 b 1154 903 1115 903 1135 903 b 1483 875 1299 903 1435 892 b 1389 1024 1467 965 1432 1024 b 1054 994 1367 1024 1211 994 b 900 999 1004 994 950 999 b 347 506 714 999 506 756 b 185 493 296 500 242 496 b 300 428 203 464 243 440 b 99 -18 179 224 99 31 b 217 -106 99 -57 128 -79 b 274 153 222 -28 243 65 b 388 415 307 247 344 336 l 418 415 b 744 433 490 415 615 424 b 572 10 660 208 604 76 b 696 -112 611 -53 654 -96 b 1058 -76 853 -85 935 -76 b 1253 -79 1151 -76 1201 -78 b 1256 -42 1256 -67 1256 -53 b 1219 69 1256 1 1240 39 b 751 4 1053 58 901 35 b 901 443 754 60 814 243 b 1075 450 965 447 1026 450 b 1224 443 1139 450 1186 447 b 1235 486 1231 454 1235 472 b 1079 581 1235 546 1176 581 z m 892 889 b 790 556 867 765 847 704 b 444 514 692 543 578 528 b 892 889 579 729 743 867 z "},"Ǽ":{"ha":1269,"x_min":0,"x_max":0,"o":"m 1079 581 b 958 575 1042 581 1000 576 b 1108 882 1064 811 1085 850 l 1094 901 b 1154 903 1115 903 1135 903 b 1483 875 1299 903 1435 892 b 1389 1024 1467 965 1432 1024 b 1054 994 1367 1024 1211 994 b 900 999 1004 994 950 999 b 347 506 714 999 506 756 b 185 493 296 500 242 496 b 300 428 203 464 243 440 b 99 -18 179 224 99 31 b 217 -106 99 -57 128 -79 b 274 153 222 -28 243 65 b 388 415 307 247 344 336 l 418 415 b 744 433 490 415 615 424 b 572 10 660 208 604 76 b 696 -112 611 -53 654 -96 b 1058 -76 853 -85 935 -76 b 1253 -79 1151 -76 1201 -78 b 1256 -42 1256 -67 1256 -53 b 1219 69 1256 1 1240 39 b 751 4 1053 58 901 35 b 901 443 754 60 814 243 b 1075 450 965 447 1026 450 b 1224 443 1139 450 1186 447 b 1235 486 1231 454 1235 472 b 1079 581 1235 546 1176 581 z m 892 889 b 790 556 867 765 847 704 b 444 514 692 543 578 528 b 892 889 579 729 743 867 z m 1210 1226 b 950 1088 1132 1158 1032 1106 b 1026 1061 972 1069 996 1061 b 1290 1138 1085 1061 1149 1079 b 1210 1226 1290 1171 1249 1215 z "},"Á":{"ha":892,"x_min":0,"x_max":0,"o":"m 203 -106 b 260 153 208 -28 229 65 b 372 401 288 235 328 319 b 668 388 489 397 617 392 b 640 29 649 263 640 143 b 642 -43 640 4 640 -19 b 800 -104 651 -67 749 -104 b 817 -103 811 -104 813 -104 b 814 26 814 -57 814 -14 b 831 311 814 143 821 238 b 994 936 869 607 933 829 b 796 1022 988 961 847 1022 b 793 996 796 1018 794 1008 b 308 469 642 914 454 711 b 158 407 224 454 169 435 b 269 404 182 407 222 406 b 85 -18 154 201 85 42 b 203 -106 85 -57 114 -79 z m 739 729 b 686 496 718 650 700 572 b 421 483 588 494 499 490 b 767 854 536 669 674 819 b 739 729 757 804 746 756 z m 1049 1226 b 789 1088 971 1158 871 1106 b 865 1061 811 1069 835 1061 b 1129 1138 924 1061 988 1079 b 1049 1226 1129 1171 1088 1215 z "},"Ă":{"ha":892,"x_min":0,"x_max":0,"o":"m 203 -106 b 260 153 208 -28 229 65 b 372 401 288 235 328 319 b 668 388 489 397 617 392 b 640 29 649 263 640 143 b 642 -43 640 4 640 -19 b 800 -104 651 -67 749 -104 b 817 -103 811 -104 813 -104 b 814 26 814 -57 814 -14 b 831 311 814 143 821 238 b 994 936 869 607 933 829 b 796 1022 988 961 847 1022 b 793 996 796 1018 794 1008 b 308 469 642 914 454 711 b 158 407 224 454 169 435 b 269 404 182 407 222 406 b 85 -18 154 201 85 42 b 203 -106 85 -57 114 -79 z m 739 729 b 686 496 718 650 700 572 b 421 483 588 494 499 490 b 767 854 536 669 674 819 b 739 729 757 804 746 756 z m 944 1061 b 1147 1196 1051 1081 1129 1133 b 1125 1222 1142 1211 1135 1219 b 981 1138 1093 1178 1050 1149 b 844 1226 924 1142 869 1164 b 749 1183 793 1221 772 1210 b 944 1061 775 1099 869 1067 z "},"Â":{"ha":892,"x_min":0,"x_max":0,"o":"m 203 -106 b 260 153 208 -28 229 65 b 372 401 288 235 328 319 b 668 388 489 397 617 392 b 640 29 649 263 640 143 b 642 -43 640 4 640 -19 b 800 -104 651 -67 749 -104 b 817 -103 811 -104 813 -104 b 814 26 814 -57 814 -14 b 831 311 814 143 821 238 b 994 936 869 607 933 829 b 796 1022 988 961 847 1022 b 793 996 796 1018 794 1008 b 308 469 642 914 454 711 b 158 407 224 454 169 435 b 269 404 182 407 222 406 b 85 -18 154 201 85 42 b 203 -106 85 -57 114 -79 z m 739 729 b 686 496 718 650 700 572 b 421 483 588 494 499 490 b 767 854 536 669 674 819 b 739 729 757 804 746 756 z m 999 1225 b 960 1226 989 1226 982 1226 b 875 1207 922 1226 893 1219 b 881 1190 876 1201 878 1196 b 690 1092 824 1142 763 1110 b 765 1061 713 1068 738 1061 b 921 1124 808 1061 871 1086 b 1058 1046 960 1078 1013 1046 b 1071 1047 1064 1046 1068 1046 b 999 1225 1029 1074 1011 1121 z "},"Ä":{"ha":892,"x_min":0,"x_max":0,"o":"m 203 -106 b 260 153 208 -28 229 65 b 372 401 288 235 328 319 b 668 388 489 397 617 392 b 640 29 649 263 640 143 b 642 -43 640 4 640 -19 b 800 -104 651 -67 749 -104 b 817 -103 811 -104 813 -104 b 814 26 814 -57 814 -14 b 831 311 814 143 821 238 b 994 936 869 607 933 829 b 796 1022 988 961 847 1022 b 793 996 796 1018 794 1008 b 308 469 642 914 454 711 b 158 407 224 454 169 435 b 269 404 182 407 222 406 b 85 -18 154 201 85 42 b 203 -106 85 -57 114 -79 z m 739 729 b 686 496 718 650 700 572 b 421 483 588 494 499 490 b 767 854 536 669 674 819 b 739 729 757 804 746 756 z m 788 1094 b 872 1061 797 1078 826 1069 b 963 1165 888 1072 963 1164 b 868 1226 944 1196 892 1224 b 788 1094 799 1222 788 1151 z m 969 1094 b 1050 1060 981 1079 1007 1065 b 1143 1165 1071 1068 1143 1161 b 1047 1226 1122 1196 1069 1225 b 969 1094 981 1224 969 1153 z "},"À":{"ha":892,"x_min":0,"x_max":0,"o":"m 203 -106 b 260 153 208 -28 229 65 b 372 401 288 235 328 319 b 668 388 489 397 617 392 b 640 29 649 263 640 143 b 642 -43 640 4 640 -19 b 800 -104 651 -67 749 -104 b 817 -103 811 -104 813 -104 b 814 26 814 -57 814 -14 b 831 311 814 143 821 238 b 994 936 869 607 933 829 b 796 1022 988 961 847 1022 b 793 996 796 1018 794 1008 b 308 469 642 914 454 711 b 158 407 224 454 169 435 b 269 404 182 407 222 406 b 85 -18 154 201 85 42 b 203 -106 85 -57 114 -79 z m 739 729 b 686 496 718 650 700 572 b 421 483 588 494 499 490 b 767 854 536 669 674 819 b 739 729 757 804 746 756 z m 799 1226 b 718 1138 760 1215 718 1171 b 982 1061 860 1079 924 1061 b 1058 1088 1013 1061 1036 1069 b 799 1226 976 1106 876 1158 z "},"Ā":{"ha":892,"x_min":0,"x_max":0,"o":"m 203 -106 b 260 153 208 -28 229 65 b 372 401 288 235 328 319 b 668 388 489 397 617 392 b 640 29 649 263 640 143 b 642 -43 640 4 640 -19 b 800 -104 651 -67 749 -104 b 817 -103 811 -104 813 -104 b 814 26 814 -57 814 -14 b 831 311 814 143 821 238 b 994 936 869 607 933 829 b 796 1022 988 961 847 1022 b 793 996 796 1018 794 1008 b 308 469 642 914 454 711 b 158 407 224 454 169 435 b 269 404 182 407 222 406 b 85 -18 154 201 85 42 b 203 -106 85 -57 114 -79 z m 739 729 b 686 496 718 650 700 572 b 421 483 588 494 499 490 b 767 854 536 669 674 819 b 739 729 757 804 746 756 z m 703 1203 b 700 1125 703 1160 701 1140 b 911 1107 757 1113 825 1107 b 1125 1119 983 1107 1057 1107 b 1100 1226 1125 1154 1113 1206 b 829 1199 1019 1208 929 1199 b 703 1203 786 1199 744 1200 z "},"Ą":{"ha":893,"x_min":0,"x_max":0,"o":"m 557 -294 b 703 -429 557 -375 629 -424 b 860 -329 740 -425 822 -375 l 851 -312 b 703 -376 819 -336 750 -376 b 649 -311 671 -376 649 -360 b 817 -103 649 -194 736 -119 b 814 26 814 -57 814 -14 b 831 311 814 143 821 238 b 994 936 869 607 933 829 b 796 1022 988 961 847 1022 b 793 996 796 1018 794 1008 b 308 469 642 914 454 711 b 158 407 224 454 169 435 b 269 404 182 407 222 406 b 85 -18 154 201 85 42 b 203 -106 85 -57 114 -79 b 260 153 208 -28 229 65 b 372 401 288 235 328 319 b 668 388 489 397 617 392 b 640 29 649 263 640 143 b 642 -43 640 4 640 -19 b 714 -85 647 -56 678 -72 b 557 -294 628 -119 557 -210 z m 739 729 b 686 496 718 650 700 572 b 421 483 588 494 499 490 b 767 854 536 669 674 819 b 739 729 757 804 746 756 z "},"Å":{"ha":894,"x_min":0,"x_max":0,"o":"m 1028 1064 b 1043 1117 1039 1083 1043 1100 b 904 1226 1043 1176 981 1226 b 751 1101 835 1226 751 1176 b 797 1019 751 1069 769 1040 b 310 469 669 922 460 728 b 160 407 225 454 171 435 b 271 404 183 407 224 406 b 86 -18 156 201 86 42 b 204 -106 86 -57 115 -79 b 261 153 210 -28 231 65 b 374 401 289 235 329 319 b 669 388 490 397 618 392 b 642 29 650 263 642 143 b 643 -43 642 4 642 -19 b 801 -104 653 -67 750 -104 b 818 -103 813 -104 814 -104 b 815 26 815 -57 815 -14 b 832 311 815 143 822 238 b 996 936 871 607 935 829 b 914 988 992 949 956 969 b 1028 1064 961 994 1003 1024 z m 740 729 b 688 496 719 650 701 572 b 422 483 589 494 500 490 b 768 854 538 669 675 819 b 740 729 758 804 747 756 z m 985 1129 b 879 1019 985 1083 946 1019 b 832 1083 846 1019 832 1049 b 931 1185 832 1139 890 1185 b 985 1129 965 1185 985 1158 z "},"Ǻ":{"ha":876,"x_min":0,"x_max":0,"o":"m 949 901 b 963 950 958 919 963 935 b 838 1049 963 1003 906 1049 b 700 936 775 1049 700 1003 b 719 883 700 917 707 899 b 285 458 582 806 411 646 l 236 375 b 142 324 183 361 150 344 b 207 322 157 324 179 324 b 68 -18 119 160 68 33 b 186 -106 68 -57 97 -79 b 322 319 196 28 239 169 b 638 306 439 315 574 310 b 624 29 628 208 624 115 b 625 -43 624 4 624 -19 b 783 -104 635 -67 732 -104 b 800 -103 794 -104 796 -104 b 797 26 797 -57 797 -14 b 814 311 797 143 804 238 b 942 833 846 556 896 746 b 910 860 939 840 928 850 b 949 901 925 871 939 886 z m 714 751 b 650 413 682 589 664 528 b 367 396 543 411 447 406 b 714 751 476 569 615 718 z m 900 961 b 806 863 900 919 865 863 b 763 919 775 863 763 889 b 851 1011 763 969 815 1011 b 900 961 883 1011 900 988 z m 1022 1226 b 782 1096 944 1163 864 1114 b 858 1069 804 1078 828 1069 b 1103 1138 917 1069 961 1086 b 1022 1226 1103 1171 1061 1215 z "},"Ã":{"ha":892,"x_min":0,"x_max":0,"o":"m 203 -106 b 260 153 208 -28 229 65 b 372 401 288 235 328 319 b 668 388 489 397 617 392 b 640 29 649 263 640 143 b 642 -43 640 4 640 -19 b 800 -104 651 -67 749 -104 b 817 -103 811 -104 813 -104 b 814 26 814 -57 814 -14 b 831 311 814 143 821 238 b 994 936 869 607 933 829 b 796 1022 988 961 847 1022 b 793 996 796 1018 794 1008 b 308 469 642 914 454 711 b 158 407 224 454 169 435 b 269 404 182 407 222 406 b 85 -18 154 201 85 42 b 203 -106 85 -57 114 -79 z m 739 729 b 686 496 718 650 700 572 b 421 483 588 494 499 490 b 767 854 536 669 674 819 b 739 729 757 804 746 756 z m 672 1185 b 871 1071 685 1121 757 1071 b 1085 1115 932 1071 1003 1076 b 1038 1226 1078 1149 1060 1204 b 800 1163 943 1182 871 1163 b 672 1185 758 1163 717 1169 z "},"B":{"ha":999,"x_min":0,"x_max":0,"o":"m 1097 765 b 742 1017 1097 922 963 1017 b 246 893 568 1017 343 961 b 325 753 250 849 292 775 b 556 864 364 790 454 833 b 385 544 510 803 456 700 b 188 51 319 401 224 163 b 504 -106 249 -49 361 -106 b 1036 297 772 -106 1036 96 b 921 500 1036 381 992 451 b 1097 765 1029 558 1097 651 z m 568 433 b 622 431 586 431 597 431 b 867 475 713 431 796 446 b 946 343 918 449 946 404 b 471 19 946 172 724 19 b 357 42 418 19 383 26 b 519 471 361 93 436 283 b 568 433 535 454 551 442 z m 838 915 b 1043 781 969 915 1043 868 b 750 561 1043 676 926 592 b 681 567 728 564 704 567 b 556 554 636 567 588 561 b 722 876 622 700 689 832 b 707 901 718 885 714 894 b 838 915 754 910 799 915 z "},"C":{"ha":839,"x_min":0,"x_max":0,"o":"m 197 272 b 547 -108 197 26 319 -104 b 875 200 640 -64 769 58 b 858 229 874 208 867 221 b 507 -10 715 96 586 8 b 390 229 436 6 390 93 b 583 797 390 422 454 611 b 846 978 658 906 763 978 b 922 917 894 978 922 956 b 817 753 922 868 882 806 b 913 657 825 704 865 664 b 1019 872 975 710 1019 800 b 817 1025 1019 968 943 1025 b 197 272 490 1025 197 663 z "},"\r":{"ha":617,"x_min":0,"x_max":0,"o":""},"Ć":{"ha":839,"x_min":0,"x_max":0,"o":"m 197 272 b 547 -108 197 26 319 -104 b 875 200 640 -64 769 58 b 858 229 874 208 867 221 b 507 -10 715 96 586 8 b 390 229 436 6 390 93 b 583 797 390 422 454 611 b 846 978 658 906 763 978 b 922 917 894 978 922 956 b 817 753 922 868 882 806 b 913 657 825 704 865 664 b 1019 872 975 710 1019 800 b 817 1025 1019 968 943 1025 b 197 272 490 1025 197 663 z m 1058 1226 b 799 1088 981 1158 881 1106 b 875 1061 821 1069 844 1061 b 1139 1138 933 1061 997 1079 b 1058 1226 1139 1171 1097 1215 z "},"Č":{"ha":839,"x_min":0,"x_max":0,"o":"m 197 272 b 547 -108 197 26 319 -104 b 875 200 640 -64 769 58 b 858 229 874 208 867 221 b 507 -10 715 96 586 8 b 390 229 436 6 390 93 b 583 797 390 422 454 611 b 846 978 658 906 763 978 b 922 917 894 978 922 956 b 817 753 922 868 882 806 b 913 657 825 704 865 664 b 1019 872 975 710 1019 800 b 817 1025 1019 968 943 1025 b 197 272 490 1025 197 663 z m 919 1043 b 1128 1164 994 1115 1069 1144 b 1060 1226 1100 1200 1078 1222 b 901 1115 1019 1214 957 1174 b 761 1226 851 1199 814 1226 b 738 1224 756 1226 751 1226 b 846 1061 792 1174 807 1143 b 919 1043 864 1061 892 1057 z "},"Ç":{"ha":840,"x_min":0,"x_max":0,"o":"m 197 272 b 503 -106 197 43 303 -86 b 415 -253 460 -165 424 -226 b 426 -269 417 -258 421 -267 b 588 -221 471 -253 557 -226 b 418 -410 539 -300 504 -337 b 447 -460 418 -421 440 -460 b 714 -229 492 -460 714 -267 b 633 -161 714 -215 650 -161 b 494 -197 599 -161 529 -179 b 547 -108 504 -172 522 -140 b 875 200 640 -64 769 58 b 858 229 874 208 867 221 b 507 -10 715 96 586 8 b 390 229 436 6 390 93 b 583 797 390 422 454 611 b 846 978 658 906 763 978 b 922 917 894 978 922 956 b 817 753 922 868 882 806 b 913 657 825 704 865 664 b 1019 872 975 710 1019 800 b 817 1025 1019 968 943 1025 b 197 272 490 1025 197 663 z "},"Ĉ":{"ha":839,"x_min":0,"x_max":0,"o":"m 197 272 b 547 -108 197 26 319 -104 b 875 200 640 -64 769 58 b 858 229 874 208 867 221 b 507 -10 715 96 586 8 b 390 229 436 6 390 93 b 583 797 390 422 454 611 b 846 978 658 906 763 978 b 922 917 894 978 922 956 b 817 753 922 868 882 806 b 913 657 825 704 865 664 b 1019 872 975 710 1019 800 b 817 1025 1019 968 943 1025 b 197 272 490 1025 197 663 z m 1008 1225 b 969 1226 999 1226 992 1226 b 885 1207 932 1226 903 1219 b 890 1190 886 1201 888 1196 b 700 1092 833 1142 772 1110 b 775 1061 722 1068 747 1061 b 931 1124 818 1061 881 1086 b 1068 1046 969 1078 1022 1046 b 1081 1047 1074 1046 1078 1046 b 1008 1225 1039 1074 1021 1121 z "},"Ċ":{"ha":839,"x_min":0,"x_max":0,"o":"m 197 272 b 547 -108 197 26 319 -104 b 875 200 640 -64 769 58 b 858 229 874 208 867 221 b 507 -10 715 96 586 8 b 390 229 436 6 390 93 b 583 797 390 422 454 611 b 846 978 658 906 763 978 b 922 917 894 978 922 956 b 817 753 922 868 882 806 b 913 657 825 704 865 664 b 1019 872 975 710 1019 800 b 817 1025 1019 968 943 1025 b 197 272 490 1025 197 663 z m 885 1099 b 933 1061 885 1083 910 1065 b 1039 1194 946 1089 1011 1175 b 875 1226 1011 1211 918 1226 b 868 1179 871 1211 868 1194 b 889 1124 868 1158 874 1139 b 885 1099 886 1113 885 1104 z "},"D":{"ha":1081,"x_min":0,"x_max":0,"o":"m 233 72 b 550 -106 288 -43 399 -106 b 1169 579 881 -106 1169 218 b 664 1025 1169 844 960 1025 b 217 740 429 1025 253 911 b 310 629 228 683 268 643 b 554 924 353 776 439 876 b 233 72 515 793 315 258 z m 724 956 b 1053 654 925 956 1053 844 b 500 15 1053 313 801 15 b 393 28 457 15 418 19 b 543 446 393 81 438 211 b 749 851 626 631 719 811 b 592 936 729 869 672 907 b 724 956 632 949 676 956 z "},"Ď":{"ha":1081,"x_min":0,"x_max":0,"o":"m 233 72 b 550 -106 288 -43 399 -106 b 1169 579 881 -106 1169 218 b 664 1025 1169 844 960 1025 b 217 740 429 1025 253 911 b 310 629 228 683 268 643 b 554 924 353 776 439 876 b 233 72 515 793 315 258 z m 724 956 b 1053 654 925 956 1053 844 b 500 15 1053 313 801 15 b 393 28 457 15 418 19 b 543 446 393 81 438 211 b 749 851 626 631 719 811 b 592 936 729 869 672 907 b 724 956 632 949 676 956 z m 871 1043 b 1079 1164 946 1115 1021 1144 b 1011 1226 1051 1200 1029 1222 b 853 1115 971 1214 908 1174 b 713 1226 803 1199 765 1226 b 689 1224 707 1226 703 1226 b 797 1061 743 1174 758 1143 b 871 1043 815 1061 843 1057 z "},"Đ":{"ha":1081,"x_min":0,"x_max":0,"o":"m 233 72 b 550 -106 288 -43 399 -106 b 1169 579 881 -106 1169 218 b 664 1025 1169 844 960 1025 b 217 740 429 1025 253 911 b 310 629 228 683 268 643 b 554 924 353 776 439 876 b 399 489 533 854 468 672 b 236 493 336 489 286 490 b 232 401 236 442 235 419 b 360 386 269 394 313 389 b 233 72 311 260 264 142 z m 724 956 b 1053 654 925 956 1053 844 b 500 15 1053 313 801 15 b 393 28 457 15 418 19 b 515 383 393 75 429 188 b 743 396 592 383 669 388 b 713 517 743 435 728 493 b 565 496 665 508 617 501 b 749 851 643 663 722 814 b 592 936 729 869 672 907 b 724 956 632 949 676 956 z "},"E":{"ha":846,"x_min":0,"x_max":0,"o":"m 714 592 b 536 574 672 592 606 585 b 682 879 631 785 660 846 b 943 903 758 890 842 903 b 1061 896 971 903 1004 901 b 967 1024 1044 976 1010 1024 b 490 993 904 1024 722 993 b 369 1000 435 993 406 994 b 358 947 364 986 358 961 b 463 857 358 896 399 860 b 364 543 440 750 418 686 b 242 504 300 528 251 514 b 324 435 254 472 283 447 b 150 10 238 208 182 76 b 274 -112 189 -53 232 -96 b 636 -76 431 -85 513 -76 b 831 -79 729 -76 779 -78 b 833 -42 833 -67 833 -53 b 797 69 833 1 818 39 b 329 4 631 58 479 35 b 474 433 332 58 389 236 b 711 461 547 443 632 461 b 804 454 751 461 781 458 b 811 497 808 465 811 483 b 714 592 811 557 775 592 z "},"É":{"ha":846,"x_min":0,"x_max":0,"o":"m 714 592 b 536 574 672 592 606 585 b 682 879 631 785 660 846 b 943 903 758 890 842 903 b 1061 896 971 903 1004 901 b 967 1024 1044 976 1010 1024 b 490 993 904 1024 722 993 b 369 1000 435 993 406 994 b 358 947 364 986 358 961 b 463 857 358 896 399 860 b 364 543 440 750 418 686 b 242 504 300 528 251 514 b 324 435 254 472 283 447 b 150 10 238 208 182 76 b 274 -112 189 -53 232 -96 b 636 -76 431 -85 513 -76 b 831 -79 729 -76 779 -78 b 833 -42 833 -67 833 -53 b 797 69 833 1 818 39 b 329 4 631 58 479 35 b 474 433 332 58 389 236 b 711 461 547 443 632 461 b 804 454 751 461 781 458 b 811 497 808 465 811 483 b 714 592 811 557 775 592 z m 881 1226 b 621 1088 803 1158 703 1106 b 697 1061 643 1069 667 1061 b 961 1138 756 1061 819 1079 b 881 1226 961 1171 919 1215 z "},"Ĕ":{"ha":846,"x_min":0,"x_max":0,"o":"m 714 592 b 536 574 672 592 606 585 b 682 879 631 785 660 846 b 943 903 758 890 842 903 b 1061 896 971 903 1004 901 b 967 1024 1044 976 1010 1024 b 490 993 904 1024 722 993 b 369 1000 435 993 406 994 b 358 947 364 986 358 961 b 463 857 358 896 399 860 b 364 543 440 750 418 686 b 242 504 300 528 251 514 b 324 435 254 472 283 447 b 150 10 238 208 182 76 b 274 -112 189 -53 232 -96 b 636 -76 431 -85 513 -76 b 831 -79 729 -76 779 -78 b 833 -42 833 -67 833 -53 b 797 69 833 1 818 39 b 329 4 631 58 479 35 b 474 433 332 58 389 236 b 711 461 547 443 632 461 b 804 454 751 461 781 458 b 811 497 808 465 811 483 b 714 592 811 557 775 592 z m 776 1061 b 979 1196 883 1081 961 1133 b 957 1222 974 1211 967 1219 b 813 1138 925 1178 882 1149 b 676 1226 756 1142 701 1164 b 581 1183 625 1221 604 1210 b 776 1061 607 1099 701 1067 z "},"Ě":{"ha":846,"x_min":0,"x_max":0,"o":"m 714 592 b 536 574 672 592 606 585 b 682 879 631 785 660 846 b 943 903 758 890 842 903 b 1061 896 971 903 1004 901 b 967 1024 1044 976 1010 1024 b 490 993 904 1024 722 993 b 369 1000 435 993 406 994 b 358 947 364 986 358 961 b 463 857 358 896 399 860 b 364 543 440 750 418 686 b 242 504 300 528 251 514 b 324 435 254 472 283 447 b 150 10 238 208 182 76 b 274 -112 189 -53 232 -96 b 636 -76 431 -85 513 -76 b 831 -79 729 -76 779 -78 b 833 -42 833 -67 833 -53 b 797 69 833 1 818 39 b 329 4 631 58 479 35 b 474 433 332 58 389 236 b 711 461 547 443 632 461 b 804 454 751 461 781 458 b 811 497 808 465 811 483 b 714 592 811 557 775 592 z m 742 1043 b 950 1164 817 1115 892 1144 b 882 1226 922 1200 900 1222 b 724 1115 842 1214 779 1174 b 583 1226 674 1199 636 1226 b 560 1224 578 1226 574 1226 b 668 1061 614 1174 629 1143 b 742 1043 686 1061 714 1057 z "},"Ê":{"ha":846,"x_min":0,"x_max":0,"o":"m 714 592 b 536 574 672 592 606 585 b 682 879 631 785 660 846 b 943 903 758 890 842 903 b 1061 896 971 903 1004 901 b 967 1024 1044 976 1010 1024 b 490 993 904 1024 722 993 b 369 1000 435 993 406 994 b 358 947 364 986 358 961 b 463 857 358 896 399 860 b 364 543 440 750 418 686 b 242 504 300 528 251 514 b 324 435 254 472 283 447 b 150 10 238 208 182 76 b 274 -112 189 -53 232 -96 b 636 -76 431 -85 513 -76 b 831 -79 729 -76 779 -78 b 833 -42 833 -67 833 -53 b 797 69 833 1 818 39 b 329 4 631 58 479 35 b 474 433 332 58 389 236 b 711 461 547 443 632 461 b 804 454 751 461 781 458 b 811 497 808 465 811 483 b 714 592 811 557 775 592 z m 831 1225 b 792 1226 821 1226 814 1226 b 707 1207 754 1226 725 1219 b 713 1190 708 1201 710 1196 b 522 1092 656 1142 594 1110 b 597 1061 544 1068 569 1061 b 753 1124 640 1061 703 1086 b 890 1046 792 1078 844 1046 b 903 1047 896 1046 900 1046 b 831 1225 861 1074 843 1121 z "},"Ë":{"ha":846,"x_min":0,"x_max":0,"o":"m 714 592 b 536 574 672 592 606 585 b 682 879 631 785 660 846 b 943 903 758 890 842 903 b 1061 896 971 903 1004 901 b 967 1024 1044 976 1010 1024 b 490 993 904 1024 722 993 b 369 1000 435 993 406 994 b 358 947 364 986 358 961 b 463 857 358 896 399 860 b 364 543 440 750 418 686 b 242 504 300 528 251 514 b 324 435 254 472 283 447 b 150 10 238 208 182 76 b 274 -112 189 -53 232 -96 b 636 -76 431 -85 513 -76 b 831 -79 729 -76 779 -78 b 833 -42 833 -67 833 -53 b 797 69 833 1 818 39 b 329 4 631 58 479 35 b 474 433 332 58 389 236 b 711 461 547 443 632 461 b 804 454 751 461 781 458 b 811 497 808 465 811 483 b 714 592 811 557 775 592 z m 619 1094 b 704 1061 629 1078 658 1069 b 794 1165 719 1072 794 1164 b 700 1226 776 1196 724 1224 b 619 1094 631 1222 619 1151 z m 801 1094 b 882 1060 813 1079 839 1065 b 975 1165 903 1068 975 1161 b 879 1226 954 1196 901 1225 b 801 1094 813 1224 801 1153 z "},"Ė":{"ha":846,"x_min":0,"x_max":0,"o":"m 714 592 b 536 574 672 592 606 585 b 682 879 631 785 660 846 b 943 903 758 890 842 903 b 1061 896 971 903 1004 901 b 967 1024 1044 976 1010 1024 b 490 993 904 1024 722 993 b 369 1000 435 993 406 994 b 358 947 364 986 358 961 b 463 857 358 896 399 860 b 364 543 440 750 418 686 b 242 504 300 528 251 514 b 324 435 254 472 283 447 b 150 10 238 208 182 76 b 274 -112 189 -53 232 -96 b 636 -76 431 -85 513 -76 b 831 -79 729 -76 779 -78 b 833 -42 833 -67 833 -53 b 797 69 833 1 818 39 b 329 4 631 58 479 35 b 474 433 332 58 389 236 b 711 461 547 443 632 461 b 804 454 751 461 781 458 b 811 497 808 465 811 483 b 714 592 811 557 775 592 z m 707 1099 b 756 1061 707 1083 732 1065 b 861 1194 768 1089 833 1175 b 697 1226 833 1211 740 1226 b 690 1179 693 1211 690 1194 b 711 1124 690 1158 696 1139 b 707 1099 708 1113 707 1104 z "},"È":{"ha":846,"x_min":0,"x_max":0,"o":"m 714 592 b 536 574 672 592 606 585 b 682 879 631 785 660 846 b 943 903 758 890 842 903 b 1061 896 971 903 1004 901 b 967 1024 1044 976 1010 1024 b 490 993 904 1024 722 993 b 369 1000 435 993 406 994 b 358 947 364 986 358 961 b 463 857 358 896 399 860 b 364 543 440 750 418 686 b 242 504 300 528 251 514 b 324 435 254 472 283 447 b 150 10 238 208 182 76 b 274 -112 189 -53 232 -96 b 636 -76 431 -85 513 -76 b 831 -79 729 -76 779 -78 b 833 -42 833 -67 833 -53 b 797 69 833 1 818 39 b 329 4 631 58 479 35 b 474 433 332 58 389 236 b 711 461 547 443 632 461 b 804 454 751 461 781 458 b 811 497 808 465 811 483 b 714 592 811 557 775 592 z m 631 1226 b 550 1138 592 1215 550 1171 b 814 1061 692 1079 756 1061 b 890 1088 844 1061 868 1069 b 631 1226 808 1106 708 1158 z "},"Ē":{"ha":846,"x_min":0,"x_max":0,"o":"m 714 592 b 536 574 672 592 606 585 b 682 879 631 785 660 846 b 943 903 758 890 842 903 b 1061 896 971 903 1004 901 b 967 1024 1044 976 1010 1024 b 490 993 904 1024 722 993 b 369 1000 435 993 406 994 b 358 947 364 986 358 961 b 463 857 358 896 399 860 b 364 543 440 750 418 686 b 242 504 300 528 251 514 b 324 435 254 472 283 447 b 150 10 238 208 182 76 b 274 -112 189 -53 232 -96 b 636 -76 431 -85 513 -76 b 831 -79 729 -76 779 -78 b 833 -42 833 -67 833 -53 b 797 69 833 1 818 39 b 329 4 631 58 479 35 b 474 433 332 58 389 236 b 711 461 547 443 632 461 b 804 454 751 461 781 458 b 811 497 808 465 811 483 b 714 592 811 557 775 592 z m 535 1203 b 532 1125 535 1160 533 1140 b 743 1107 589 1113 657 1107 b 957 1119 815 1107 889 1107 b 932 1226 957 1154 944 1206 b 661 1199 851 1208 761 1199 b 535 1203 618 1199 576 1200 z "},"Ŋ":{"ha":951,"x_min":0,"x_max":0,"o":"m 264 -106 b 260 -51 261 -96 260 -75 b 513 849 260 189 410 685 b 626 -43 535 444 551 356 b 635 -124 632 -72 635 -94 b 474 -446 635 -265 568 -415 b 350 -396 446 -446 379 -421 b 325 -422 335 -399 326 -411 b 515 -503 367 -482 469 -503 b 811 -92 657 -503 769 -296 b 1182 919 857 133 1004 847 b 1061 1011 1161 960 1101 1004 b 763 100 992 1003 851 546 b 726 258 742 178 738 196 b 696 672 721 289 696 424 b 711 936 696 803 703 892 b 494 1022 703 961 546 1022 l 504 964 b 129 3 382 790 129 165 b 264 -106 129 -53 158 -74 z "},"Ę":{"ha":846,"x_min":0,"x_max":0,"o":"m 379 -268 b 525 -403 379 -349 451 -397 b 682 -303 563 -399 644 -349 l 674 -286 b 525 -350 642 -310 572 -350 b 471 -285 493 -350 471 -333 b 636 -76 471 -174 554 -87 b 831 -79 729 -76 779 -78 b 833 -42 833 -67 833 -53 b 797 69 833 1 818 39 b 329 4 631 58 479 35 b 474 433 332 58 389 236 b 711 461 547 443 632 461 b 804 454 751 461 781 458 b 811 497 808 465 811 483 b 714 592 811 557 775 592 b 536 574 672 592 606 585 b 682 879 631 785 660 846 b 943 903 758 890 842 903 b 1061 896 971 903 1004 901 b 967 1024 1044 976 1010 1024 b 490 993 904 1024 722 993 b 369 1000 435 993 406 994 b 358 947 364 986 358 961 b 463 857 358 896 399 860 b 364 543 440 750 418 686 b 242 504 300 528 251 514 b 324 435 254 472 283 447 b 150 10 238 208 182 76 b 274 -112 189 -53 232 -96 b 492 -82 364 -96 429 -87 b 379 -268 426 -125 379 -199 z "},"Ð":{"ha":1081,"x_min":0,"x_max":0,"o":"m 233 72 b 550 -106 288 -43 399 -106 b 1169 579 881 -106 1169 218 b 664 1025 1169 844 960 1025 b 217 740 429 1025 253 911 b 310 629 228 683 268 643 b 554 924 353 776 439 876 b 399 489 533 854 468 672 b 236 493 336 489 286 490 b 232 401 236 442 235 419 b 360 386 269 394 313 389 b 233 72 311 260 264 142 z m 724 956 b 1053 654 925 956 1053 844 b 500 15 1053 313 801 15 b 393 28 457 15 418 19 b 515 383 393 75 429 188 b 743 396 592 383 669 388 b 713 517 743 435 728 493 b 565 496 665 508 617 501 b 749 851 643 663 722 814 b 592 936 729 869 672 907 b 724 956 632 949 676 956 z "},"Ẽ":{"ha":846,"x_min":0,"x_max":0,"o":"m 714 592 b 536 574 672 592 606 585 b 682 879 631 785 660 846 b 943 903 758 890 842 903 b 1061 896 971 903 1004 901 b 967 1024 1044 976 1010 1024 b 490 993 904 1024 722 993 b 369 1000 435 993 406 994 b 358 947 364 986 358 961 b 463 857 358 896 399 860 b 364 543 440 750 418 686 b 242 504 300 528 251 514 b 324 435 254 472 283 447 b 150 10 238 208 182 76 b 274 -112 189 -53 232 -96 b 636 -76 431 -85 513 -76 b 831 -79 729 -76 779 -78 b 833 -42 833 -67 833 -53 b 797 69 833 1 818 39 b 329 4 631 58 479 35 b 474 433 332 58 389 236 b 711 461 547 443 632 461 b 804 454 751 461 781 458 b 811 497 808 465 811 483 b 714 592 811 557 775 592 z m 504 1185 b 703 1071 517 1121 589 1071 b 917 1115 764 1071 835 1076 b 869 1226 910 1149 892 1204 b 632 1163 775 1182 703 1163 b 504 1185 590 1163 549 1169 z "},"F":{"ha":765,"x_min":0,"x_max":0,"o":"m 722 579 b 536 560 678 579 608 571 b 689 883 640 794 667 850 b 931 904 760 894 838 904 b 1050 897 958 904 992 903 b 954 1025 1032 978 997 1025 b 478 994 892 1025 710 994 b 358 1001 422 994 393 996 b 346 949 351 988 346 963 b 464 858 346 894 393 858 l 471 858 b 365 528 447 746 419 672 b 249 492 304 514 258 501 b 325 424 260 461 288 436 b 157 10 225 168 185 68 b 308 -112 200 -61 246 -99 b 474 419 338 54 390 224 b 718 449 549 429 636 449 b 811 442 758 449 788 446 b 818 485 817 453 818 471 b 722 579 818 544 782 579 z "},"G":{"ha":903,"x_min":0,"x_max":0,"o":"m 910 442 b 543 354 822 442 608 390 b 658 276 558 306 603 276 b 800 300 700 276 749 289 b 536 -36 785 167 654 -10 b 379 247 449 -28 379 86 b 576 797 379 465 439 633 b 854 978 672 913 772 978 b 931 914 903 978 931 956 b 844 781 931 860 908 828 b 929 690 851 739 886 703 b 1028 871 1000 754 1028 807 b 825 1025 1028 968 951 1025 b 196 279 500 1025 196 660 b 553 -106 196 19 306 -100 b 918 313 711 -65 894 150 b 982 304 942 311 963 308 b 988 347 986 315 988 333 b 910 442 988 407 958 442 z "},"Ğ":{"ha":903,"x_min":0,"x_max":0,"o":"m 910 442 b 543 354 822 442 608 390 b 658 276 558 306 603 276 b 800 300 700 276 749 289 b 536 -36 785 167 654 -10 b 379 247 449 -28 379 86 b 576 797 379 465 439 633 b 854 978 672 913 772 978 b 931 914 903 978 931 956 b 844 781 931 860 908 828 b 929 690 851 739 886 703 b 1028 871 1000 754 1028 807 b 825 1025 1028 968 951 1025 b 196 279 500 1025 196 660 b 553 -106 196 19 306 -100 b 918 313 711 -65 894 150 b 982 304 942 311 963 308 b 988 347 986 315 988 333 b 910 442 988 407 958 442 z m 942 1061 b 1144 1196 1049 1081 1126 1133 b 1122 1222 1139 1211 1132 1219 b 978 1138 1090 1178 1047 1149 b 842 1226 921 1142 867 1164 b 746 1183 790 1221 769 1210 b 942 1061 772 1099 867 1067 z "},"Ĝ":{"ha":903,"x_min":0,"x_max":0,"o":"m 910 442 b 543 354 822 442 608 390 b 658 276 558 306 603 276 b 800 300 700 276 749 289 b 536 -36 785 167 654 -10 b 379 247 449 -28 379 86 b 576 797 379 465 439 633 b 854 978 672 913 772 978 b 931 914 903 978 931 956 b 844 781 931 860 908 828 b 929 690 851 739 886 703 b 1028 871 1000 754 1028 807 b 825 1025 1028 968 951 1025 b 196 279 500 1025 196 660 b 553 -106 196 19 306 -100 b 918 313 711 -65 894 150 b 982 304 942 311 963 308 b 988 347 986 315 988 333 b 910 442 988 407 958 442 z m 996 1225 b 957 1226 986 1226 979 1226 b 872 1207 919 1226 890 1219 b 878 1190 874 1201 875 1196 b 688 1092 821 1142 760 1110 b 763 1061 710 1068 735 1061 b 918 1124 806 1061 868 1086 b 1056 1046 957 1078 1010 1046 b 1068 1047 1061 1046 1065 1046 b 996 1225 1026 1074 1008 1121 z "},"Ģ":{"ha":901,"x_min":0,"x_max":0,"o":"m 910 442 b 543 354 822 442 608 390 b 658 276 558 306 603 276 b 800 300 700 276 749 289 b 536 -36 785 167 654 -10 b 379 247 449 -28 379 86 b 576 797 379 465 439 633 b 854 978 672 913 772 978 b 931 914 903 978 931 956 b 844 781 931 860 908 828 b 929 690 851 739 886 703 b 1028 871 1000 754 1028 807 b 825 1025 1028 968 951 1025 b 196 279 500 1025 196 660 b 553 -106 196 19 306 -100 b 918 313 711 -65 894 150 b 982 304 942 311 963 308 b 988 347 986 315 988 333 b 910 442 988 407 958 442 z m 332 -486 b 578 -215 454 -431 554 -299 b 381 -117 568 -169 475 -122 b 397 -226 392 -157 397 -193 b 310 -433 397 -307 365 -368 b 332 -486 310 -451 321 -476 z "},"Ġ":{"ha":903,"x_min":0,"x_max":0,"o":"m 910 442 b 543 354 822 442 608 390 b 658 276 558 306 603 276 b 800 300 700 276 749 289 b 536 -36 785 167 654 -10 b 379 247 449 -28 379 86 b 576 797 379 465 439 633 b 854 978 672 913 772 978 b 931 914 903 978 931 956 b 844 781 931 860 908 828 b 929 690 851 739 886 703 b 1028 871 1000 754 1028 807 b 825 1025 1028 968 951 1025 b 196 279 500 1025 196 660 b 553 -106 196 19 306 -100 b 918 313 711 -65 894 150 b 982 304 942 311 963 308 b 988 347 986 315 988 333 b 910 442 988 407 958 442 z m 872 1099 b 921 1061 872 1083 897 1065 b 1026 1194 933 1089 999 1175 b 863 1226 999 1211 906 1226 b 856 1179 858 1211 856 1194 b 876 1124 856 1158 861 1139 b 872 1099 874 1113 872 1104 z "},"H":{"ha":938,"x_min":0,"x_max":0,"o":"m 682 81 b 725 -44 682 49 699 -35 b 821 -111 760 -58 740 -107 b 818 -75 819 -104 818 -93 b 922 429 818 26 860 231 b 974 424 940 428 957 426 b 985 472 981 438 985 457 b 957 535 985 497 975 518 b 1149 906 1014 699 1083 844 b 996 992 1131 939 1032 989 b 796 561 943 936 863 754 b 465 526 706 556 579 542 b 636 882 542 699 601 838 b 447 1031 590 957 524 1017 b 314 543 403 785 393 744 l 296 499 b 204 474 249 489 214 481 b 265 419 214 451 236 432 b 100 10 176 188 129 71 b 251 -112 139 -53 182 -96 b 408 396 279 42 326 203 b 753 426 499 397 631 418 b 682 81 711 288 682 157 z "},"Ħ":{"ha":1058,"x_min":0,"x_max":0,"o":"m 725 81 b 768 -44 725 49 742 -35 b 864 -111 803 -58 783 -107 b 861 -75 863 -104 861 -93 b 965 429 861 26 903 231 b 1017 424 983 428 1000 426 b 1028 472 1024 438 1028 457 b 1000 535 1028 497 1018 518 b 1044 654 1014 576 1029 617 b 1299 664 1132 657 1217 660 b 1236 785 1299 703 1268 761 b 1100 774 1192 781 1147 776 b 1192 906 1131 831 1161 876 b 1039 992 1174 939 1075 989 b 915 764 1006 956 961 871 b 611 757 819 760 717 757 b 679 882 639 815 663 860 b 490 1031 633 957 567 1017 b 433 757 467 900 453 826 b 243 763 397 758 335 757 b 236 669 243 715 240 688 b 401 658 288 665 342 661 b 339 499 389 625 371 564 b 247 474 292 489 257 481 b 308 419 257 451 279 432 b 143 10 219 188 172 71 b 294 -112 182 -53 225 -96 b 451 396 322 42 369 203 b 796 426 542 397 674 418 b 725 81 754 288 725 157 z m 871 651 b 839 561 860 621 849 592 b 508 526 749 556 622 542 b 564 653 528 571 546 614 b 871 651 626 651 692 651 z "},"Ĥ":{"ha":938,"x_min":0,"x_max":0,"o":"m 682 81 b 725 -44 682 49 699 -35 b 821 -111 760 -58 740 -107 b 818 -75 819 -104 818 -93 b 922 429 818 26 860 231 b 974 424 940 428 957 426 b 985 472 981 438 985 457 b 957 535 985 497 975 518 b 1149 906 1014 699 1083 844 b 996 992 1131 939 1032 989 b 796 561 943 936 863 754 b 465 526 706 556 579 542 b 636 882 542 699 601 838 b 447 1031 590 957 524 1017 b 296 499 403 785 393 744 b 204 474 249 489 214 481 b 265 419 214 451 236 432 b 100 10 176 188 129 71 b 251 -112 139 -53 182 -96 b 408 396 279 42 326 203 b 753 426 499 397 631 418 b 682 81 711 288 682 157 z m 875 1225 b 836 1226 865 1226 858 1226 b 751 1207 799 1226 769 1219 b 757 1190 753 1201 754 1196 b 567 1092 700 1142 639 1110 b 642 1061 589 1068 614 1061 b 797 1124 685 1061 747 1086 b 935 1046 836 1078 889 1046 b 947 1047 940 1046 944 1046 b 875 1225 906 1074 888 1121 z "},"I":{"ha":438,"x_min":0,"x_max":0,"o":"m 182 79 b 221 -44 182 47 196 -35 b 319 -111 256 -58 239 -107 b 315 -82 317 -107 315 -99 b 646 906 315 124 486 760 b 494 992 631 939 531 989 b 182 79 389 882 182 281 z "},"Ĳ":{"ha":1021,"x_min":0,"x_max":0,"o":"m 182 79 b 221 -44 182 47 196 -35 b 319 -111 256 -58 239 -107 b 315 -82 317 -107 315 -99 b 646 906 315 124 486 760 b 494 992 631 939 531 989 b 182 79 389 882 182 281 z m 971 1026 b 976 908 972 1011 976 935 b 811 192 976 740 911 397 b 503 -143 728 21 615 -100 b 463 -67 474 -124 463 -99 b 563 129 463 -14 504 68 b 413 199 539 158 458 194 b 333 -39 358 92 333 13 b 589 -203 333 -136 440 -201 b 776 -90 644 -192 713 -151 b 1097 569 910 38 1010 238 b 1181 957 1121 658 1143 768 b 971 1026 1124 997 1042 1026 z "},"Í":{"ha":438,"x_min":0,"x_max":0,"o":"m 182 79 b 221 -44 182 47 196 -35 b 319 -111 256 -58 239 -107 b 315 -82 317 -107 315 -99 b 646 906 315 124 486 760 b 494 992 631 939 531 989 b 182 79 389 882 182 281 z m 776 1226 b 517 1088 699 1158 599 1106 b 593 1061 539 1069 563 1061 b 857 1138 651 1061 715 1079 b 776 1226 857 1171 815 1215 z "},"Ĭ":{"ha":438,"x_min":0,"x_max":0,"o":"m 182 79 b 221 -44 182 47 196 -35 b 319 -111 256 -58 239 -107 b 315 -82 317 -107 315 -99 b 646 906 315 124 486 760 b 494 992 631 939 531 989 b 182 79 389 882 182 281 z m 672 1061 b 875 1196 779 1081 857 1133 b 853 1222 869 1211 863 1219 b 708 1138 821 1178 778 1149 b 572 1226 651 1142 597 1164 b 476 1183 521 1221 500 1210 b 672 1061 503 1099 597 1067 z "},"Î":{"ha":438,"x_min":0,"x_max":0,"o":"m 182 79 b 221 -44 182 47 196 -35 b 319 -111 256 -58 239 -107 b 315 -82 317 -107 315 -99 b 646 906 315 124 486 760 b 494 992 631 939 531 989 b 182 79 389 882 182 281 z m 726 1225 b 688 1226 717 1226 710 1226 b 603 1207 650 1226 621 1219 b 608 1190 604 1201 606 1196 b 418 1092 551 1142 490 1110 b 493 1061 440 1068 465 1061 b 649 1124 536 1061 599 1086 b 786 1046 688 1078 740 1046 b 799 1047 792 1046 796 1046 b 726 1225 757 1074 739 1121 z "},"Ï":{"ha":438,"x_min":0,"x_max":0,"o":"m 182 79 b 221 -44 182 47 196 -35 b 319 -111 256 -58 239 -107 b 315 -82 317 -107 315 -99 b 646 906 315 124 486 760 b 494 992 631 939 531 989 b 182 79 389 882 182 281 z m 515 1094 b 600 1061 525 1078 554 1069 b 690 1165 615 1072 690 1164 b 596 1226 672 1196 619 1224 b 515 1094 526 1222 515 1151 z m 697 1094 b 778 1060 708 1079 735 1065 b 871 1165 799 1068 871 1161 b 775 1226 850 1196 797 1225 b 697 1094 708 1224 697 1153 z "},"İ":{"ha":438,"x_min":0,"x_max":0,"o":"m 182 79 b 221 -44 182 47 196 -35 b 319 -111 256 -58 239 -107 b 315 -82 317 -107 315 -99 b 646 906 315 124 486 760 b 494 992 631 939 531 989 b 182 79 389 882 182 281 z m 603 1099 b 651 1061 603 1083 628 1065 b 757 1194 664 1089 729 1175 b 593 1226 729 1211 636 1226 b 586 1179 589 1211 586 1194 b 607 1124 586 1158 592 1139 b 603 1099 604 1113 603 1104 z "},"Ì":{"ha":438,"x_min":0,"x_max":0,"o":"m 182 79 b 221 -44 182 47 196 -35 b 319 -111 256 -58 239 -107 b 315 -82 317 -107 315 -99 b 646 906 315 124 486 760 b 494 992 631 939 531 989 b 182 79 389 882 182 281 z m 526 1226 b 446 1138 488 1215 446 1171 b 710 1061 588 1079 651 1061 b 786 1088 740 1061 764 1069 b 526 1226 704 1106 604 1158 z "},"Ī":{"ha":438,"x_min":0,"x_max":0,"o":"m 182 79 b 221 -44 182 47 196 -35 b 319 -111 256 -58 239 -107 b 315 -82 317 -107 315 -99 b 646 906 315 124 486 760 b 494 992 631 939 531 989 b 182 79 389 882 182 281 z m 431 1203 b 428 1125 431 1160 429 1140 b 639 1107 485 1113 553 1107 b 853 1119 711 1107 785 1107 b 828 1226 853 1154 840 1206 b 557 1199 747 1208 657 1199 b 431 1203 514 1199 472 1200 z "},"Į":{"ha":439,"x_min":0,"x_max":0,"o":"m 38 -242 b 183 -376 38 -322 110 -371 b 340 -276 221 -372 303 -322 l 332 -260 b 183 -324 300 -283 231 -324 b 129 -258 151 -324 129 -307 b 243 -62 129 -167 186 -92 b 321 -111 256 -82 263 -108 b 317 -82 318 -107 317 -99 b 647 906 317 124 488 760 b 496 992 632 939 532 989 b 183 79 390 882 183 281 b 207 -28 183 54 192 0 b 38 -242 115 -58 38 -153 z "},"Ĩ":{"ha":438,"x_min":0,"x_max":0,"o":"m 182 79 b 221 -44 182 47 196 -35 b 319 -111 256 -58 239 -107 b 315 -82 317 -107 315 -99 b 646 906 315 124 486 760 b 494 992 631 939 531 989 b 182 79 389 882 182 281 z m 400 1185 b 599 1071 413 1121 485 1071 b 813 1115 660 1071 731 1076 b 765 1226 806 1149 788 1204 b 528 1163 671 1182 599 1163 b 400 1185 486 1163 444 1169 z "},"J":{"ha":711,"x_min":0,"x_max":0,"o":"m 661 1026 b 667 908 663 1011 667 935 b 501 192 667 740 601 397 b 193 -143 418 21 306 -100 b 153 -67 164 -124 153 -99 b 253 129 153 -14 194 68 b 103 199 229 158 149 194 b 24 -39 49 92 24 13 b 279 -203 24 -136 131 -201 b 467 -90 335 -192 403 -151 b 788 569 600 38 700 238 b 871 957 811 658 833 768 b 661 1026 814 997 732 1026 z "},"Ĵ":{"ha":711,"x_min":0,"x_max":0,"o":"m 661 1026 b 667 908 663 1011 667 935 b 501 192 667 740 601 397 b 193 -143 418 21 306 -100 b 153 -67 164 -124 153 -99 b 253 129 153 -14 194 68 b 103 199 229 158 149 194 b 24 -39 49 92 24 13 b 279 -203 24 -136 131 -201 b 467 -90 335 -192 403 -151 b 788 569 600 38 700 238 b 871 957 811 658 833 768 b 661 1026 814 997 732 1026 z m 936 1225 b 897 1226 926 1226 919 1226 b 813 1207 860 1226 831 1219 b 818 1190 814 1201 815 1196 b 628 1092 761 1142 700 1110 b 703 1061 650 1068 675 1061 b 858 1124 746 1061 808 1086 b 996 1046 897 1078 950 1046 b 1008 1047 1001 1046 1006 1046 b 936 1225 967 1074 949 1121 z "},"K":{"ha":907,"x_min":0,"x_max":0,"o":"m 464 440 b 733 -106 576 78 638 -106 b 874 -25 781 -106 854 -64 b 574 415 751 58 633 263 b 1169 878 724 633 942 804 b 1046 1025 1168 940 1096 1025 b 464 440 921 1025 694 782 z m 254 -112 b 439 460 285 58 340 239 b 639 882 529 663 600 832 b 450 1031 593 957 526 1017 b 315 543 406 785 393 744 b 103 10 192 228 138 82 b 254 -112 142 -53 185 -96 z "},"Ķ":{"ha":907,"x_min":0,"x_max":0,"o":"m 464 440 b 733 -106 576 78 638 -106 b 874 -25 781 -106 854 -64 b 574 415 751 58 633 263 b 1169 878 724 633 942 804 b 1046 1025 1168 940 1096 1025 b 464 440 921 1025 694 782 z m 254 -112 b 439 460 285 58 340 239 b 639 882 529 663 600 832 b 450 1031 593 957 526 1017 b 315 543 406 785 393 744 b 103 10 192 228 138 82 b 254 -112 142 -53 185 -96 z m 335 -486 b 581 -215 457 -431 557 -299 b 383 -117 571 -169 478 -122 b 400 -226 394 -157 400 -193 b 313 -433 400 -307 368 -368 b 335 -486 313 -451 324 -476 z "},"L":{"ha":694,"x_min":0,"x_max":0,"o":"m 657 79 b 457 49 575 74 532 67 b 282 19 372 28 340 22 b 444 467 283 74 363 250 b 631 910 529 688 603 863 b 456 1036 581 983 529 1021 b 321 547 411 832 389 746 b 103 10 217 243 139 93 b 226 -112 139 -51 185 -97 b 582 -75 407 -83 493 -75 b 685 -81 619 -75 653 -76 b 692 -36 689 -67 692 -53 b 657 79 692 0 681 39 z "},"Ĺ":{"ha":694,"x_min":0,"x_max":0,"o":"m 657 79 b 457 49 575 74 532 67 b 282 19 372 28 340 22 b 444 467 283 74 363 250 b 631 910 529 688 603 863 b 456 1036 581 983 529 1021 b 321 547 411 832 389 746 b 103 10 217 243 139 93 b 226 -112 139 -51 185 -97 b 582 -75 407 -83 493 -75 b 685 -81 619 -75 653 -76 b 692 -36 689 -67 692 -53 b 657 79 692 0 681 39 z m 732 1226 b 472 1088 654 1158 554 1106 b 549 1061 494 1069 518 1061 b 813 1138 607 1061 671 1079 b 732 1226 813 1171 771 1215 z "},"Ľ":{"ha":694,"x_min":0,"x_max":0,"o":"m 657 79 b 457 49 575 74 532 67 b 282 19 372 28 340 22 b 444 467 283 74 363 250 b 631 910 529 688 603 863 b 456 1036 581 983 529 1021 b 321 547 411 832 389 746 b 103 10 217 243 139 93 b 226 -112 139 -51 185 -97 b 582 -75 407 -83 493 -75 b 685 -81 619 -75 653 -76 b 692 -36 689 -67 692 -53 b 657 79 692 0 681 39 z m 593 1043 b 801 1164 668 1115 743 1144 b 733 1226 774 1200 751 1222 b 575 1115 693 1214 631 1174 b 435 1226 525 1199 488 1226 b 411 1224 429 1226 425 1226 b 519 1061 465 1174 481 1143 b 593 1043 538 1061 565 1057 z "},"Ļ":{"ha":694,"x_min":0,"x_max":0,"o":"m 657 79 b 457 49 575 74 532 67 b 282 19 372 28 340 22 b 444 467 283 74 363 250 b 631 910 529 688 603 863 b 456 1036 581 983 529 1021 b 321 547 411 832 389 746 b 103 10 217 243 139 93 b 226 -112 139 -51 185 -97 b 582 -75 407 -83 493 -75 b 685 -81 619 -75 653 -76 b 692 -36 689 -67 692 -53 b 657 79 692 0 681 39 z m 321 -487 b 567 -217 443 -432 543 -300 b 369 -118 557 -171 464 -124 b 386 -228 381 -158 386 -194 b 299 -435 386 -308 354 -369 b 321 -487 299 -453 310 -478 z "},"Ŀ":{"ha":696,"x_min":0,"x_max":0,"o":"m 657 79 b 457 49 575 74 532 67 b 282 19 372 28 340 22 b 444 467 283 74 363 250 b 631 910 529 688 603 863 b 456 1036 581 983 529 1021 b 321 547 411 832 389 746 b 103 10 217 243 139 93 b 226 -112 139 -51 185 -97 b 582 -75 407 -83 493 -75 b 685 -81 619 -75 653 -76 b 692 -36 689 -67 692 -53 b 657 79 692 0 681 39 z m 658 383 b 779 497 685 383 753 435 b 628 582 751 542 663 582 b 593 429 621 556 593 467 b 658 383 600 408 635 388 z "},"Ł":{"ha":715,"x_min":0,"x_max":0,"o":"m 679 79 b 479 49 597 74 554 67 b 304 19 394 28 363 22 b 460 450 306 72 381 242 b 728 564 547 488 635 528 b 719 656 721 615 719 638 b 506 568 643 621 574 593 b 653 910 574 740 629 869 b 478 1036 603 983 551 1021 b 331 513 433 832 411 746 b 110 463 257 493 185 476 b 163 346 117 424 143 368 b 283 381 203 356 243 367 b 125 10 208 185 153 76 b 249 -112 161 -51 207 -97 b 604 -75 429 -83 515 -75 b 707 -81 642 -75 675 -76 b 714 -36 711 -67 714 -53 b 679 79 714 0 703 39 z "},"M":{"ha":1308,"x_min":0,"x_max":0,"o":"m 714 -103 b 1190 851 738 228 1033 775 b 1164 729 1181 803 1171 756 b 1065 38 1094 468 1065 243 b 1067 -43 1065 11 1065 -17 b 1242 -103 1088 -75 1190 -103 b 1239 36 1239 -53 1239 -7 b 1419 936 1239 296 1301 725 b 1221 1022 1413 961 1272 1022 b 703 222 1096 932 832 528 b 892 936 740 494 842 833 b 693 1022 885 961 744 1022 b 281 465 564 949 429 735 b 65 -19 150 229 65 47 b 183 -106 65 -57 94 -79 b 661 843 214 217 529 739 b 636 729 653 797 643 754 b 538 38 567 468 538 243 b 539 -43 538 11 538 -17 b 697 -104 549 -67 646 -104 b 714 -103 708 -104 710 -104 z "},"N":{"ha":949,"x_min":0,"x_max":0,"o":"m 264 -106 b 260 -43 261 -94 260 -82 b 513 849 260 178 407 681 b 626 -43 524 528 550 267 b 804 -104 646 -82 719 -104 b 822 -103 810 -104 817 -104 b 821 -99 821 -101 821 -100 b 1182 919 825 124 1006 847 b 1061 1011 1161 960 1101 1004 b 763 100 992 1003 851 546 b 696 692 706 300 696 490 b 711 936 696 793 703 892 b 494 1022 703 961 546 1022 l 504 964 b 129 -1 382 790 129 167 b 264 -106 129 -51 158 -74 z "},"\u0000":{"ha":0,"x_min":0,"x_max":0,"o":""},"Ń":{"ha":949,"x_min":0,"x_max":0,"o":"m 264 -106 b 260 -43 261 -94 260 -82 b 513 849 260 178 407 681 b 626 -43 524 528 550 267 b 804 -104 646 -82 719 -104 b 822 -103 810 -104 817 -104 b 821 -99 821 -101 821 -100 b 1182 919 825 124 1006 847 b 1061 1011 1161 960 1101 1004 b 763 100 992 1003 851 546 b 696 692 706 300 696 490 b 711 936 696 793 703 892 b 494 1022 703 961 546 1022 l 504 964 b 129 -1 382 790 129 167 b 264 -106 129 -51 158 -74 z m 992 1226 b 732 1088 914 1158 814 1106 b 808 1061 754 1069 778 1061 b 1072 1138 867 1061 931 1079 b 992 1226 1072 1171 1031 1215 z "},"Ň":{"ha":949,"x_min":0,"x_max":0,"o":"m 264 -106 b 260 -43 261 -94 260 -82 b 513 849 260 178 407 681 b 626 -43 524 528 550 267 b 804 -104 646 -82 719 -104 b 822 -103 810 -104 817 -104 b 821 -99 821 -101 821 -100 b 1182 919 825 124 1006 847 b 1061 1011 1161 960 1101 1004 b 763 100 992 1003 851 546 b 696 692 706 300 696 490 b 711 936 696 793 703 892 b 494 1022 703 961 546 1022 l 504 964 b 129 -1 382 790 129 167 b 264 -106 129 -51 158 -74 z m 853 1043 b 1061 1164 928 1115 1003 1144 b 993 1226 1033 1200 1011 1222 b 835 1115 953 1214 890 1174 b 694 1226 785 1199 747 1226 b 671 1224 689 1226 685 1226 b 779 1061 725 1174 740 1143 b 853 1043 797 1061 825 1057 z "},"Ņ":{"ha":949,"x_min":0,"x_max":0,"o":"m 264 -106 b 260 -43 261 -94 260 -82 b 513 849 260 178 407 681 b 626 -43 524 528 550 267 b 804 -104 646 -82 719 -104 b 822 -103 810 -104 817 -104 b 821 -99 821 -101 821 -100 b 1182 919 825 124 1006 847 b 1061 1011 1161 960 1101 1004 b 763 100 992 1003 851 546 b 696 692 706 300 696 490 b 711 936 696 793 703 892 b 494 1022 703 961 546 1022 l 504 964 b 129 -1 382 790 129 167 b 264 -106 129 -51 158 -74 z m 343 -486 b 589 -215 465 -431 565 -299 b 392 -117 579 -169 486 -122 b 408 -226 403 -157 408 -193 b 321 -433 408 -307 376 -368 b 343 -486 321 -451 332 -476 z "},"Ṅ":{"ha":949,"x_min":0,"x_max":0,"o":"m 264 -106 b 260 -43 261 -94 260 -82 b 513 849 260 178 407 681 b 626 -43 524 528 550 267 b 804 -104 646 -82 719 -104 b 822 -103 810 -104 817 -104 b 821 -99 821 -101 821 -100 b 1182 919 825 124 1006 847 b 1061 1011 1161 960 1101 1004 b 763 100 992 1003 851 546 b 696 692 706 300 696 490 b 711 936 696 793 703 892 b 494 1022 703 961 546 1022 l 504 964 b 129 -1 382 790 129 167 b 264 -106 129 -51 158 -74 z m 818 1099 b 867 1061 818 1083 843 1065 b 972 1194 879 1089 944 1175 b 808 1226 944 1211 851 1226 b 801 1179 804 1211 801 1194 b 822 1124 801 1158 807 1139 b 818 1099 819 1113 818 1104 z "},"Ñ":{"ha":949,"x_min":0,"x_max":0,"o":"m 264 -106 b 260 -43 261 -94 260 -82 b 513 849 260 178 407 681 b 626 -43 524 528 550 267 b 804 -104 646 -82 719 -104 b 822 -103 810 -104 817 -104 b 821 -99 821 -101 821 -100 b 1182 919 825 124 1006 847 b 1061 1011 1161 960 1101 1004 b 763 100 992 1003 851 546 b 696 692 706 300 696 490 b 711 936 696 793 703 892 b 494 1022 703 961 546 1022 l 504 964 b 129 -1 382 790 129 167 b 264 -106 129 -51 158 -74 z m 615 1185 b 814 1071 628 1121 700 1071 b 1028 1115 875 1071 946 1076 b 981 1226 1021 1149 1003 1204 b 743 1163 886 1182 814 1163 b 615 1185 701 1163 660 1169 z "},"O":{"ha":1004,"x_min":0,"x_max":0,"o":"m 781 1011 b 697 1028 751 1024 726 1028 b 188 204 424 1028 188 544 b 450 -117 188 -6 281 -117 b 810 38 565 -117 699 -60 b 1113 694 982 188 1113 435 b 997 907 1113 853 1043 885 b 1008 769 1000 888 1008 860 b 799 135 1008 543 928 289 b 496 -46 708 26 586 -46 b 354 168 404 -46 354 24 b 853 893 354 500 600 893 b 943 883 878 893 911 890 b 781 1011 939 913 850 982 z "},"Œ":{"ha":1358,"x_min":0,"x_max":0,"o":"m 1211 592 b 1050 576 1172 592 1113 585 b 1186 864 1138 772 1165 832 b 1456 889 1265 876 1351 889 b 1574 882 1483 889 1517 888 b 1479 1024 1557 972 1522 1024 b 1003 993 1417 1024 1235 993 b 882 1000 947 993 918 994 b 871 958 878 989 874 972 b 781 1011 843 979 810 999 b 697 1028 751 1024 726 1028 b 188 204 424 1028 188 544 b 450 -117 188 -6 281 -117 b 699 -42 529 -117 617 -90 b 786 -112 728 -76 757 -100 b 1149 -76 943 -85 1025 -76 b 1343 -79 1242 -76 1292 -78 b 1346 -42 1346 -67 1346 -53 b 1310 69 1346 1 1331 39 b 842 4 1143 58 992 35 b 988 436 844 58 901 238 b 1208 461 1057 446 1135 461 b 1301 454 1249 461 1278 458 b 1308 497 1306 465 1308 483 b 1211 592 1308 557 1272 592 z m 496 -46 b 354 168 404 -46 354 24 b 853 893 354 500 600 893 b 886 892 863 893 874 892 b 972 843 903 864 933 847 b 878 546 951 746 929 682 b 739 504 806 531 750 515 b 835 432 753 468 788 442 b 665 15 751 214 697 83 b 496 -46 606 -22 546 -46 z "},"Ó":{"ha":1004,"x_min":0,"x_max":0,"o":"m 781 1011 b 697 1028 751 1024 726 1028 b 188 204 424 1028 188 544 b 450 -117 188 -6 281 -117 b 810 38 565 -117 699 -60 b 1113 694 982 188 1113 435 b 997 907 1113 853 1043 885 b 1008 769 1000 888 1008 860 b 799 135 1008 543 928 289 b 496 -46 708 26 586 -46 b 354 168 404 -46 354 24 b 853 893 354 500 600 893 b 943 883 878 893 911 890 b 781 1011 939 913 850 982 z m 1092 1226 b 832 1088 1014 1158 914 1106 b 908 1061 854 1069 878 1061 b 1172 1138 967 1061 1031 1079 b 1092 1226 1172 1171 1131 1215 z "},"Ŏ":{"ha":1004,"x_min":0,"x_max":0,"o":"m 781 1011 b 697 1028 751 1024 726 1028 b 188 204 424 1028 188 544 b 450 -117 188 -6 281 -117 b 810 38 565 -117 699 -60 b 1113 694 982 188 1113 435 b 997 907 1113 853 1043 885 b 1008 769 1000 888 1008 860 b 799 135 1008 543 928 289 b 496 -46 708 26 586 -46 b 354 168 404 -46 354 24 b 853 893 354 500 600 893 b 943 883 878 893 911 890 b 781 1011 939 913 850 982 z m 988 1061 b 1190 1196 1094 1081 1172 1133 b 1168 1222 1185 1211 1178 1219 b 1024 1138 1136 1178 1093 1149 b 888 1226 967 1142 913 1164 b 792 1183 836 1221 815 1210 b 988 1061 818 1099 913 1067 z "},"Ô":{"ha":1004,"x_min":0,"x_max":0,"o":"m 781 1011 b 697 1028 751 1024 726 1028 b 188 204 424 1028 188 544 b 450 -117 188 -6 281 -117 b 810 38 565 -117 699 -60 b 1113 694 982 188 1113 435 b 997 907 1113 853 1043 885 b 1008 769 1000 888 1008 860 b 799 135 1008 543 928 289 b 496 -46 708 26 586 -46 b 354 168 404 -46 354 24 b 853 893 354 500 600 893 b 943 883 878 893 911 890 b 781 1011 939 913 850 982 z m 1042 1225 b 1003 1226 1032 1226 1025 1226 b 918 1207 965 1226 936 1219 b 924 1190 919 1201 921 1196 b 733 1092 867 1142 806 1110 b 808 1061 756 1068 781 1061 b 964 1124 851 1061 914 1086 b 1101 1046 1003 1078 1056 1046 b 1114 1047 1107 1046 1111 1046 b 1042 1225 1072 1074 1054 1121 z "},"Ö":{"ha":1004,"x_min":0,"x_max":0,"o":"m 781 1011 b 697 1028 751 1024 726 1028 b 188 204 424 1028 188 544 b 450 -117 188 -6 281 -117 b 810 38 565 -117 699 -60 b 1113 694 982 188 1113 435 b 997 907 1113 853 1043 885 b 1008 769 1000 888 1008 860 b 799 135 1008 543 928 289 b 496 -46 708 26 586 -46 b 354 168 404 -46 354 24 b 853 893 354 500 600 893 b 943 883 878 893 911 890 b 781 1011 939 913 850 982 z m 831 1094 b 915 1061 840 1078 869 1069 b 1006 1165 931 1072 1006 1164 b 911 1226 988 1196 935 1224 b 831 1094 842 1222 831 1151 z m 1013 1094 b 1093 1060 1024 1079 1050 1065 b 1186 1165 1114 1068 1186 1161 b 1090 1226 1165 1196 1113 1225 b 1013 1094 1024 1224 1013 1153 z "},"Ò":{"ha":1004,"x_min":0,"x_max":0,"o":"m 781 1011 b 697 1028 751 1024 726 1028 b 188 204 424 1028 188 544 b 450 -117 188 -6 281 -117 b 810 38 565 -117 699 -60 b 1113 694 982 188 1113 435 b 997 907 1113 853 1043 885 b 1008 769 1000 888 1008 860 b 799 135 1008 543 928 289 b 496 -46 708 26 586 -46 b 354 168 404 -46 354 24 b 853 893 354 500 600 893 b 943 883 878 893 911 890 b 781 1011 939 913 850 982 z m 842 1226 b 761 1138 803 1215 761 1171 b 1025 1061 903 1079 967 1061 b 1101 1088 1056 1061 1079 1069 b 842 1226 1019 1106 919 1158 z "},"Ő":{"ha":1004,"x_min":0,"x_max":0,"o":"m 781 1011 b 697 1028 751 1024 726 1028 b 188 204 424 1028 188 544 b 450 -117 188 -6 281 -117 b 810 38 565 -117 699 -60 b 1113 694 982 188 1113 435 b 997 907 1113 853 1043 885 b 1008 769 1000 888 1008 860 b 799 135 1008 543 928 289 b 496 -46 708 26 586 -46 b 354 168 404 -46 354 24 b 853 893 354 500 600 893 b 943 883 878 893 911 890 b 781 1011 939 913 850 982 z m 900 1226 b 801 1076 874 1160 846 1114 b 851 1061 818 1067 835 1061 b 1015 1182 901 1061 967 1115 b 900 1226 993 1207 942 1221 z m 1094 1226 b 996 1076 1068 1160 1040 1114 b 1046 1061 1013 1067 1029 1061 b 1210 1182 1096 1061 1161 1115 b 1094 1226 1188 1207 1136 1221 z "},"Ō":{"ha":1004,"x_min":0,"x_max":0,"o":"m 781 1011 b 697 1028 751 1024 726 1028 b 188 204 424 1028 188 544 b 450 -117 188 -6 281 -117 b 810 38 565 -117 699 -60 b 1113 694 982 188 1113 435 b 997 907 1113 853 1043 885 b 1008 769 1000 888 1008 860 b 799 135 1008 543 928 289 b 496 -46 708 26 586 -46 b 354 168 404 -46 354 24 b 853 893 354 500 600 893 b 943 883 878 893 911 890 b 781 1011 939 913 850 982 z m 746 1203 b 743 1125 746 1160 744 1140 b 954 1107 800 1113 868 1107 b 1168 1119 1026 1107 1100 1107 b 1143 1226 1168 1154 1156 1206 b 872 1199 1063 1208 972 1199 b 746 1203 829 1199 788 1200 z "},"Ǫ":{"ha":1004,"x_min":0,"x_max":0,"o":"m 282 -299 b 428 -433 282 -379 354 -428 b 585 -333 465 -429 547 -379 l 576 -317 b 428 -381 544 -340 475 -381 b 374 -315 396 -381 374 -364 b 500 -112 374 -217 439 -137 b 810 38 603 -99 714 -46 b 1113 694 982 188 1113 435 b 997 907 1113 853 1043 885 b 1008 769 1000 888 1008 860 b 799 135 1008 543 928 289 b 496 -46 708 26 586 -46 b 354 168 404 -46 354 24 b 853 893 354 500 600 893 b 943 883 878 893 911 890 b 781 1011 939 913 850 982 b 697 1028 751 1024 726 1028 b 188 204 424 1028 188 544 b 394 -112 188 18 260 -90 b 282 -299 329 -156 282 -229 z "},"Ø":{"ha":1004,"x_min":0,"x_max":0,"o":"m 781 1011 b 697 1028 751 1024 726 1028 b 188 204 424 1028 188 544 b 225 11 188 125 200 61 b 118 -53 186 -15 150 -37 b 154 -106 119 -79 133 -101 b 258 -39 188 -86 222 -64 b 450 -117 303 -90 367 -117 b 810 38 565 -117 699 -60 b 1113 694 982 188 1113 435 b 1103 783 1113 729 1108 758 b 1244 967 1151 843 1199 904 b 1153 1015 1232 997 1197 1015 b 1063 863 1136 975 1104 922 b 997 907 1042 885 1017 897 b 1008 789 1000 889 1007 842 b 357 110 843 574 579 293 b 354 168 356 128 354 147 b 853 893 354 500 600 893 b 943 883 878 893 911 890 b 781 1011 939 913 850 982 z m 1003 664 b 799 135 982 467 908 265 b 496 -46 708 26 586 -46 b 372 44 436 -46 394 -15 b 1003 664 571 200 794 421 z "},"Ǿ":{"ha":1004,"x_min":0,"x_max":0,"o":"m 781 1011 b 697 1028 751 1024 726 1028 b 188 204 424 1028 188 544 b 225 11 188 125 200 61 b 118 -53 186 -15 150 -37 b 154 -106 119 -79 133 -101 b 258 -39 188 -86 222 -64 b 450 -117 303 -90 367 -117 b 810 38 565 -117 699 -60 b 1113 694 982 188 1113 435 b 1103 783 1113 729 1108 758 b 1244 967 1151 843 1199 904 b 1153 1015 1232 997 1197 1015 b 1063 863 1136 975 1104 922 b 997 907 1042 885 1017 897 b 1008 789 1000 889 1007 864 b 357 110 843 574 579 293 b 354 168 356 128 354 147 b 853 893 354 500 600 893 b 943 883 878 893 911 890 b 781 1011 939 913 850 982 z m 1003 664 b 799 135 982 467 908 265 b 496 -46 708 26 586 -46 b 372 44 436 -46 394 -15 b 1003 664 571 200 794 421 z m 1092 1226 b 832 1088 1014 1158 914 1106 b 908 1061 854 1069 878 1061 b 1172 1138 967 1061 1031 1079 b 1092 1226 1172 1171 1131 1215 z "},"Õ":{"ha":1004,"x_min":0,"x_max":0,"o":"m 781 1011 b 697 1028 751 1024 726 1028 b 188 204 424 1028 188 544 b 450 -117 188 -6 281 -117 b 810 38 565 -117 699 -60 b 1113 694 982 188 1113 435 b 997 907 1113 853 1043 885 b 1008 769 1000 888 1008 860 b 799 135 1008 543 928 289 b 496 -46 708 26 586 -46 b 354 168 404 -46 354 24 b 853 893 354 500 600 893 b 943 883 878 893 911 890 b 781 1011 939 913 850 982 z m 715 1185 b 914 1071 728 1121 800 1071 b 1128 1115 975 1071 1046 1076 b 1081 1226 1121 1149 1103 1204 b 843 1163 986 1182 914 1163 b 715 1185 801 1163 760 1169 z "},"P":{"ha":892,"x_min":0,"x_max":0,"o":"m 1086 749 b 743 1022 1086 911 956 1022 b 235 893 564 1022 343 967 b 314 753 239 850 282 775 b 525 860 363 793 439 832 b 413 543 497 747 472 686 b 181 10 281 228 218 82 b 328 -112 217 -53 258 -96 b 510 413 361 46 418 213 b 610 368 543 378 564 368 b 1086 749 869 368 1086 544 z m 839 915 b 1032 756 965 915 1032 851 b 549 496 1032 611 836 496 b 747 882 636 682 710 835 l 731 907 b 839 915 768 913 804 915 z "},"Q":{"ha":999,"x_min":0,"x_max":0,"o":"m 829 1011 b 744 1028 801 1022 776 1028 b 190 201 482 1028 190 592 b 254 7 190 111 213 43 b 67 -150 133 -8 78 -56 b 90 -176 68 -160 78 -171 b 263 -72 101 -108 161 -72 b 675 -253 381 -72 472 -112 b 888 -351 789 -332 824 -347 b 1035 -192 932 -340 1021 -243 b 1014 -149 1033 -182 1022 -160 b 940 -204 993 -178 958 -203 b 629 -69 907 -199 728 -122 b 790 33 669 -62 725 -28 b 1139 746 990 218 1139 522 b 1035 907 1139 824 1110 869 b 1040 817 1038 894 1040 854 b 783 136 1040 571 943 314 b 521 -35 693 35 590 -32 b 365 1 482 -21 388 1 b 333 82 344 3 333 31 b 404 418 333 163 361 294 b 894 893 510 715 694 893 b 981 883 922 893 954 889 b 829 1011 979 911 892 983 z "},"R":{"ha":960,"x_min":0,"x_max":0,"o":"m 1085 765 b 735 1022 1085 924 956 1022 b 233 893 571 1022 343 968 b 313 753 238 850 281 775 b 522 860 360 793 438 831 b 411 543 493 739 469 681 b 179 10 217 83 204 58 b 326 -112 219 -61 264 -99 b 515 429 361 57 417 214 b 536 410 522 421 529 414 b 590 407 547 407 569 407 b 833 -121 689 28 753 -121 b 956 -40 876 -121 939 -76 b 694 413 858 49 751 246 b 1085 765 915 443 1085 589 z m 746 882 l 729 908 b 826 915 764 913 796 915 b 1031 772 964 915 1031 864 b 553 508 1031 618 831 508 b 746 882 626 667 721 849 z "},"Ŕ":{"ha":960,"x_min":0,"x_max":0,"o":"m 1085 765 b 735 1022 1085 924 956 1022 b 233 893 571 1022 343 968 b 313 753 238 850 281 775 b 522 860 360 793 438 831 b 411 543 493 739 469 681 b 179 10 217 83 204 58 b 326 -112 219 -61 264 -99 b 515 429 361 57 417 214 b 536 410 522 421 529 414 b 590 407 547 407 569 407 b 833 -121 689 28 753 -121 b 956 -40 876 -121 939 -76 b 694 413 858 49 751 246 b 1085 765 915 443 1085 589 z m 746 882 l 729 908 b 826 915 764 913 796 915 b 1031 772 964 915 1031 864 b 553 508 1031 618 831 508 b 746 882 626 667 721 849 z m 1028 1226 b 768 1088 950 1158 850 1106 b 844 1061 790 1069 814 1061 b 1108 1138 903 1061 967 1079 b 1028 1226 1108 1171 1067 1215 z "},"Ř":{"ha":960,"x_min":0,"x_max":0,"o":"m 1085 765 b 735 1022 1085 924 956 1022 b 233 893 571 1022 343 968 b 313 753 238 850 281 775 b 522 860 360 793 438 831 b 411 543 493 739 469 681 b 179 10 217 83 204 58 b 326 -112 219 -61 264 -99 b 515 429 361 57 417 214 b 536 410 522 421 529 414 b 590 407 547 407 569 407 b 833 -121 689 28 753 -121 b 956 -40 876 -121 939 -76 b 694 413 858 49 751 246 b 1085 765 915 443 1085 589 z m 746 882 l 729 908 b 826 915 764 913 796 915 b 1031 772 964 915 1031 864 b 553 508 1031 618 831 508 b 746 882 626 667 721 849 z m 889 1043 b 1097 1164 964 1115 1039 1144 b 1029 1226 1069 1200 1047 1222 b 871 1115 989 1214 926 1174 b 731 1226 821 1199 783 1226 b 707 1224 725 1226 721 1226 b 815 1061 761 1174 776 1143 b 889 1043 833 1061 861 1057 z "},"Ŗ":{"ha":960,"x_min":0,"x_max":0,"o":"m 1085 765 b 735 1022 1085 924 956 1022 b 233 893 571 1022 343 968 b 313 753 238 850 281 775 b 522 860 360 793 438 831 b 411 543 493 739 469 681 b 179 10 217 83 204 58 b 326 -112 219 -61 264 -99 b 515 429 361 57 417 214 b 536 410 522 421 529 414 b 590 407 547 407 569 407 b 833 -121 689 28 753 -121 b 956 -40 876 -121 939 -76 b 694 413 858 49 751 246 b 1085 765 915 443 1085 589 z m 746 882 l 729 908 b 826 915 764 913 796 915 b 1031 772 964 915 1031 864 b 553 508 1031 618 831 508 b 746 882 626 667 721 849 z m 429 -486 b 675 -215 551 -431 651 -299 b 478 -117 665 -169 572 -122 b 494 -226 489 -157 494 -193 b 407 -433 494 -307 463 -368 b 429 -486 407 -451 418 -476 z "},"S":{"ha":975,"x_min":0,"x_max":0,"o":"m 1046 936 b 692 1025 931 988 813 1025 b 497 989 626 1025 557 1014 b 314 736 379 940 314 840 b 647 431 314 604 413 533 b 946 228 804 363 943 301 b 692 63 942 185 899 63 b 382 147 597 63 483 88 b 214 351 274 211 219 296 b 140 190 158 289 140 228 b 660 -106 140 32 454 -106 b 1004 232 872 -106 1004 42 b 731 538 1004 396 918 450 b 388 775 581 607 399 694 b 624 881 389 840 494 881 b 979 738 754 881 906 839 b 1054 879 1025 760 1054 818 b 1046 936 1054 899 1051 904 z "},"Ś":{"ha":975,"x_min":0,"x_max":0,"o":"m 1046 936 b 692 1025 931 988 813 1025 b 497 989 626 1025 557 1014 b 314 736 379 940 314 840 b 647 431 314 604 413 533 b 946 228 804 363 943 301 b 692 63 942 185 899 63 b 382 147 597 63 483 88 b 214 351 274 211 219 296 b 140 190 158 289 140 228 b 660 -106 140 32 454 -106 b 1004 232 872 -106 1004 42 b 731 538 1004 396 918 450 b 388 775 581 607 399 694 b 624 881 389 840 494 881 b 979 738 754 881 906 839 b 1054 879 1025 760 1054 818 b 1046 936 1054 899 1051 904 z m 919 1226 b 660 1088 842 1158 742 1106 b 736 1061 682 1069 706 1061 b 1000 1138 794 1061 858 1079 b 919 1226 1000 1171 958 1215 z "},"Š":{"ha":975,"x_min":0,"x_max":0,"o":"m 1046 936 b 692 1025 931 988 813 1025 b 497 989 626 1025 557 1014 b 314 736 379 940 314 840 b 647 431 314 604 413 533 b 946 228 804 363 943 301 b 692 63 942 185 899 63 b 382 147 597 63 483 88 b 214 351 274 211 219 296 b 140 190 158 289 140 228 b 660 -106 140 32 454 -106 b 1004 232 872 -106 1004 42 b 731 538 1004 396 918 450 b 388 775 581 607 399 694 b 624 881 389 840 494 881 b 979 738 754 881 906 839 b 1054 879 1025 760 1054 818 b 1046 936 1054 899 1051 904 z m 781 1043 b 989 1164 856 1115 931 1144 b 921 1226 961 1200 939 1222 b 763 1115 881 1214 818 1174 b 622 1226 713 1199 675 1226 b 599 1224 617 1226 613 1226 b 707 1061 653 1174 668 1143 b 781 1043 725 1061 753 1057 z "},"Ə":{"ha":839,"x_min":0,"x_max":0,"o":"m 194 25 b 361 -101 247 -50 303 -93 b 951 664 639 -101 951 314 b 626 1032 951 856 831 1007 b 238 699 504 1001 354 874 b 271 661 247 685 257 674 b 626 949 344 767 486 949 b 757 715 733 949 757 801 b 756 657 757 696 756 675 b 194 25 400 513 214 374 z m 294 49 b 740 574 304 240 424 458 b 294 49 574 90 453 71 z "},"Ŝ":{"ha":975,"x_min":0,"x_max":0,"o":"m 1046 936 b 692 1025 931 988 813 1025 b 497 989 626 1025 557 1014 b 314 736 379 940 314 840 b 647 431 314 604 413 533 b 946 228 804 363 943 301 b 692 63 942 185 899 63 b 382 147 597 63 483 88 b 214 351 274 211 219 296 b 140 190 158 289 140 228 b 660 -106 140 32 454 -106 b 1004 232 872 -106 1004 42 b 731 538 1004 396 918 450 b 388 775 581 607 399 694 b 624 881 389 840 494 881 b 979 738 754 881 906 839 b 1054 879 1025 760 1054 818 b 1046 936 1054 899 1051 904 z m 869 1225 b 831 1226 860 1226 853 1226 b 746 1207 793 1226 764 1219 b 751 1190 747 1201 749 1196 b 561 1092 694 1142 633 1110 b 636 1061 583 1068 608 1061 b 792 1124 679 1061 742 1086 b 929 1046 831 1078 883 1046 b 942 1047 935 1046 939 1046 b 869 1225 900 1074 882 1121 z "},"T":{"ha":817,"x_min":0,"x_max":0,"o":"m 415 842 b 618 858 469 842 540 849 b 513 542 596 772 551 647 b 331 0 411 263 361 115 b 486 -117 372 -68 422 -107 b 632 446 511 40 551 200 b 801 881 674 572 749 775 b 982 892 863 888 924 892 b 1114 885 1015 892 1067 889 b 1006 1025 1099 969 1074 1025 b 449 986 957 1025 639 986 b 313 1001 386 986 336 990 b 300 949 306 988 300 963 b 415 842 300 889 342 842 z "},"Ŧ":{"ha":821,"x_min":0,"x_max":0,"o":"m 421 842 b 624 858 475 842 546 849 b 514 531 601 772 557 647 b 336 535 436 531 386 532 b 332 443 336 483 335 461 b 476 426 375 435 422 429 b 336 0 401 219 363 99 b 492 -117 378 -68 428 -107 b 631 425 515 35 554 190 b 843 438 703 426 775 431 b 813 558 843 476 828 535 b 669 538 767 550 719 543 b 807 881 711 656 765 797 b 988 892 868 888 929 892 b 1119 885 1021 892 1072 889 b 1011 1025 1104 969 1079 1025 b 454 986 963 1025 644 986 b 318 1001 392 986 342 990 b 306 949 311 988 306 963 b 421 842 306 889 347 842 z "},"Ť":{"ha":817,"x_min":0,"x_max":0,"o":"m 415 842 b 618 858 469 842 540 849 b 513 542 596 772 551 647 b 331 0 411 263 361 115 b 486 -117 372 -68 422 -107 b 632 446 511 40 551 200 b 801 881 674 572 749 775 b 982 892 863 888 924 892 b 1114 885 1015 892 1067 889 b 1006 1025 1099 969 1074 1025 b 449 986 957 1025 639 986 b 313 1001 386 986 336 990 b 300 949 306 988 300 963 b 415 842 300 889 342 842 z m 764 1043 b 972 1164 839 1115 914 1144 b 904 1226 944 1200 922 1222 b 746 1115 864 1214 801 1174 b 606 1226 696 1199 658 1226 b 582 1224 600 1226 596 1226 b 690 1061 636 1174 651 1143 b 764 1043 708 1061 736 1057 z "},"Þ":{"ha":892,"x_min":0,"x_max":0,"o":"m 1006 535 b 674 808 1006 694 879 804 b 753 961 707 881 733 935 b 589 1025 733 994 710 1025 b 550 1024 576 1025 564 1024 b 494 794 529 925 514 858 b 154 679 361 774 229 731 b 233 539 158 636 201 561 b 443 646 282 579 357 617 l 401 543 b 169 10 272 226 207 82 b 317 -112 206 -53 247 -96 b 417 215 339 -8 371 97 b 479 157 436 190 460 168 b 529 154 497 154 510 154 b 1006 535 789 154 1006 331 z m 521 460 b 622 690 558 542 592 621 b 758 701 668 697 715 701 b 951 542 885 701 951 638 b 508 282 951 397 756 282 b 444 283 486 282 465 282 b 521 460 467 339 492 397 z "},"U":{"ha":968,"x_min":0,"x_max":0,"o":"m 674 935 b 461 1025 640 974 525 1022 b 224 183 336 796 224 417 b 493 -117 224 -17 324 -117 b 875 138 660 -117 778 -21 b 1111 971 1008 354 1093 690 b 972 1007 1071 993 985 1007 b 978 888 975 988 978 960 b 832 192 978 661 936 385 b 546 -46 753 44 665 -46 b 404 160 443 -46 404 17 b 674 935 404 392 510 715 z "},"Ú":{"ha":968,"x_min":0,"x_max":0,"o":"m 674 935 b 461 1025 640 974 525 1022 b 224 183 336 796 224 417 b 493 -117 224 -17 324 -117 b 875 138 660 -117 778 -21 b 1111 971 1008 354 1093 690 b 972 1007 1071 993 985 1007 b 978 888 975 988 978 960 b 832 192 978 661 936 385 b 546 -46 753 44 665 -46 b 404 160 443 -46 404 17 b 674 935 404 392 510 715 z m 957 1226 b 697 1088 879 1158 779 1106 b 774 1061 719 1069 743 1061 b 1038 1138 832 1061 896 1079 b 957 1226 1038 1171 996 1215 z "},"Ŭ":{"ha":968,"x_min":0,"x_max":0,"o":"m 674 935 b 461 1025 640 974 525 1022 b 224 183 336 796 224 417 b 493 -117 224 -17 324 -117 b 875 138 660 -117 778 -21 b 1111 971 1008 354 1093 690 b 972 1007 1071 993 985 1007 b 978 888 975 988 978 960 b 832 192 978 661 936 385 b 546 -46 753 44 665 -46 b 404 160 443 -46 404 17 b 674 935 404 392 510 715 z m 853 1061 b 1056 1196 960 1081 1038 1133 b 1033 1222 1050 1211 1043 1219 b 889 1138 1001 1178 958 1149 b 753 1226 832 1142 778 1164 b 657 1183 701 1221 681 1210 b 853 1061 683 1099 778 1067 z "},"Û":{"ha":968,"x_min":0,"x_max":0,"o":"m 674 935 b 461 1025 640 974 525 1022 b 224 183 336 796 224 417 b 493 -117 224 -17 324 -117 b 875 138 660 -117 778 -21 b 1111 971 1008 354 1093 690 b 972 1007 1071 993 985 1007 b 978 888 975 988 978 960 b 832 192 978 661 936 385 b 546 -46 753 44 665 -46 b 404 160 443 -46 404 17 b 674 935 404 392 510 715 z m 907 1225 b 868 1226 897 1226 890 1226 b 783 1207 831 1226 801 1219 b 789 1190 785 1201 786 1196 b 599 1092 732 1142 671 1110 b 674 1061 621 1068 646 1061 b 829 1124 717 1061 779 1086 b 967 1046 868 1078 921 1046 b 979 1047 972 1046 976 1046 b 907 1225 938 1074 919 1121 z "},"Ü":{"ha":968,"x_min":0,"x_max":0,"o":"m 674 935 b 461 1025 640 974 525 1022 b 224 183 336 796 224 417 b 493 -117 224 -17 324 -117 b 875 138 660 -117 778 -21 b 1111 971 1008 354 1093 690 b 972 1007 1071 993 985 1007 b 978 888 975 988 978 960 b 832 192 978 661 936 385 b 546 -46 753 44 665 -46 b 404 160 443 -46 404 17 b 674 935 404 392 510 715 z m 696 1094 b 781 1061 706 1078 735 1069 b 871 1165 796 1072 871 1164 b 776 1226 853 1196 800 1224 b 696 1094 707 1222 696 1151 z m 878 1094 b 958 1060 889 1079 915 1065 b 1051 1165 979 1068 1051 1161 b 956 1226 1031 1196 978 1225 b 878 1094 889 1224 878 1153 z "},"Ù":{"ha":968,"x_min":0,"x_max":0,"o":"m 674 935 b 461 1025 640 974 525 1022 b 224 183 336 796 224 417 b 493 -117 224 -17 324 -117 b 875 138 660 -117 778 -21 b 1111 971 1008 354 1093 690 b 972 1007 1071 993 985 1007 b 978 888 975 988 978 960 b 832 192 978 661 936 385 b 546 -46 753 44 665 -46 b 404 160 443 -46 404 17 b 674 935 404 392 510 715 z m 707 1226 b 626 1138 668 1215 626 1171 b 890 1061 768 1079 832 1061 b 967 1088 921 1061 944 1069 b 707 1226 885 1106 785 1158 z "},"Ű":{"ha":968,"x_min":0,"x_max":0,"o":"m 674 935 b 461 1025 640 974 525 1022 b 224 183 336 796 224 417 b 493 -117 224 -17 324 -117 b 875 138 660 -117 778 -21 b 1111 971 1008 354 1093 690 b 972 1007 1071 993 985 1007 b 978 888 975 988 978 960 b 832 192 978 661 936 385 b 546 -46 753 44 665 -46 b 404 160 443 -46 404 17 b 674 935 404 392 510 715 z m 765 1226 b 667 1076 739 1160 711 1114 b 717 1061 683 1067 700 1061 b 881 1182 767 1061 832 1115 b 765 1226 858 1207 807 1221 z m 960 1226 b 861 1076 933 1160 906 1114 b 911 1061 878 1067 894 1061 b 1075 1182 961 1061 1026 1115 b 960 1226 1053 1207 1001 1221 z "},"Ū":{"ha":968,"x_min":0,"x_max":0,"o":"m 674 935 b 461 1025 640 974 525 1022 b 224 183 336 796 224 417 b 493 -117 224 -17 324 -117 b 875 138 660 -117 778 -21 b 1111 971 1008 354 1093 690 b 972 1007 1071 993 985 1007 b 978 888 975 988 978 960 b 832 192 978 661 936 385 b 546 -46 753 44 665 -46 b 404 160 443 -46 404 17 b 674 935 404 392 510 715 z m 611 1203 b 608 1125 611 1160 610 1140 b 819 1107 665 1113 733 1107 b 1033 1119 892 1107 965 1107 b 1008 1226 1033 1154 1021 1206 b 738 1199 928 1208 838 1199 b 611 1203 694 1199 653 1200 z "},"Ų":{"ha":968,"x_min":0,"x_max":0,"o":"m 275 -307 b 421 -442 275 -387 347 -436 b 578 -342 458 -437 540 -387 l 569 -325 b 421 -389 538 -349 468 -389 b 367 -324 389 -389 367 -372 b 510 -117 367 -217 444 -132 b 875 138 667 -110 781 -15 b 1111 971 1008 354 1093 690 b 972 1007 1071 993 985 1007 b 978 888 975 988 978 960 b 832 192 978 661 936 385 b 546 -46 753 44 665 -46 b 404 160 443 -46 404 17 b 674 935 404 392 510 715 b 461 1025 640 974 525 1022 b 224 183 336 796 224 417 b 410 -107 224 18 292 -78 b 275 -307 335 -147 275 -229 z "},"Ů":{"ha":968,"x_min":0,"x_max":0,"o":"m 674 935 b 461 1025 640 974 525 1022 b 224 183 336 796 224 417 b 493 -117 224 -17 324 -117 b 875 138 660 -117 778 -21 b 1111 971 1008 354 1093 690 b 972 1007 1071 993 985 1007 b 978 888 975 988 978 960 b 832 192 978 661 936 385 b 546 -46 753 44 665 -46 b 404 160 443 -46 404 17 b 674 935 404 392 510 715 z m 935 1064 b 950 1117 946 1083 950 1100 b 811 1226 950 1176 888 1226 b 658 1101 742 1226 658 1176 b 803 988 658 1039 731 988 b 935 1064 858 988 907 1019 z m 892 1129 b 786 1019 892 1083 853 1019 b 739 1083 753 1019 739 1049 b 838 1185 739 1139 797 1185 b 892 1129 872 1185 892 1158 z "},"Ũ":{"ha":968,"x_min":0,"x_max":0,"o":"m 674 935 b 461 1025 640 974 525 1022 b 224 183 336 796 224 417 b 493 -117 224 -17 324 -117 b 875 138 660 -117 778 -21 b 1111 971 1008 354 1093 690 b 972 1007 1071 993 985 1007 b 978 888 975 988 978 960 b 832 192 978 661 936 385 b 546 -46 753 44 665 -46 b 404 160 443 -46 404 17 b 674 935 404 392 510 715 z m 581 1185 b 779 1071 593 1121 665 1071 b 993 1115 840 1071 911 1076 b 946 1226 986 1149 968 1204 b 708 1163 851 1182 779 1163 b 581 1185 667 1163 625 1169 z "},"V":{"ha":857,"x_min":0,"x_max":0,"o":"m 582 -89 b 1149 919 625 131 942 847 b 1036 1011 1132 960 1076 1004 b 529 25 950 1003 683 496 b 508 367 514 114 508 199 b 561 936 508 589 524 833 b 342 1024 553 961 392 1024 b 332 381 342 743 332 549 b 368 -43 332 254 338 139 b 514 -106 394 -75 456 -99 b 582 -89 538 -106 561 -100 z "},"W":{"ha":1324,"x_min":0,"x_max":0,"o":"m 318 -43 b 458 -106 340 -75 400 -99 b 529 -89 482 -106 506 -100 b 853 699 640 101 767 447 b 819 171 835 504 819 335 b 833 -43 819 121 822 18 b 974 -106 856 -75 915 -99 b 1044 -89 997 -106 1021 -100 b 1593 935 1122 131 1431 807 b 1467 1006 1558 974 1510 1000 b 997 31 1408 944 1174 494 b 993 182 994 74 993 128 b 1093 936 993 439 1031 792 b 881 1024 1088 961 931 1024 b 483 15 844 861 599 186 b 478 182 479 63 478 122 b 578 936 478 439 515 792 b 365 1024 567 961 415 1024 b 304 207 342 638 304 457 b 318 -43 304 131 310 32 z "},"Ẃ":{"ha":1324,"x_min":0,"x_max":0,"o":"m 318 -43 b 458 -106 340 -75 400 -99 b 529 -89 482 -106 506 -100 b 853 699 640 101 767 447 b 819 171 835 504 819 335 b 833 -43 819 121 822 18 b 974 -106 856 -75 915 -99 b 1044 -89 997 -106 1021 -100 b 1593 935 1122 131 1431 807 b 1467 1006 1558 974 1510 1000 b 997 31 1408 944 1174 494 b 993 182 994 74 993 128 b 1093 936 993 439 1031 792 b 881 1024 1088 961 931 1024 b 483 15 844 861 599 186 b 478 182 479 63 478 122 b 578 936 478 439 515 792 b 365 1024 567 961 415 1024 b 304 207 342 638 304 457 b 318 -43 304 131 310 32 z m 1178 1226 b 918 1088 1100 1158 1000 1106 b 994 1061 940 1069 964 1061 b 1258 1138 1053 1061 1117 1079 b 1178 1226 1258 1171 1217 1215 z "},"Ŵ":{"ha":1324,"x_min":0,"x_max":0,"o":"m 318 -43 b 458 -106 340 -75 400 -99 b 529 -89 482 -106 506 -100 b 853 699 640 101 767 447 b 819 171 835 504 819 335 b 833 -43 819 121 822 18 b 974 -106 856 -75 915 -99 b 1044 -89 997 -106 1021 -100 b 1593 935 1122 131 1431 807 b 1467 1006 1558 974 1510 1000 b 997 31 1408 944 1174 494 b 993 182 994 74 993 128 b 1093 936 993 439 1031 792 b 881 1024 1088 961 931 1024 b 483 15 844 861 599 186 b 478 182 479 63 478 122 b 578 936 478 439 515 792 b 365 1024 567 961 415 1024 b 304 207 342 638 304 457 b 318 -43 304 131 310 32 z m 1128 1225 b 1089 1226 1118 1226 1111 1226 b 1004 1207 1051 1226 1022 1219 b 1010 1190 1006 1201 1007 1196 b 819 1092 953 1142 892 1110 b 894 1061 842 1068 867 1061 b 1050 1124 938 1061 1000 1086 b 1188 1046 1089 1078 1142 1046 b 1200 1047 1193 1046 1197 1046 b 1128 1225 1158 1074 1140 1121 z "},"Ẅ":{"ha":1324,"x_min":0,"x_max":0,"o":"m 318 -43 b 458 -106 340 -75 400 -99 b 529 -89 482 -106 506 -100 b 853 699 640 101 767 447 b 819 171 835 504 819 335 b 833 -43 819 121 822 18 b 974 -106 856 -75 915 -99 b 1044 -89 997 -106 1021 -100 b 1593 935 1122 131 1431 807 b 1467 1006 1558 974 1510 1000 b 997 31 1408 944 1174 494 b 993 182 994 74 993 128 b 1093 936 993 439 1031 792 b 881 1024 1088 961 931 1024 b 483 15 844 861 599 186 b 478 182 479 63 478 122 b 578 936 478 439 515 792 b 365 1024 567 961 415 1024 b 304 207 342 638 304 457 b 318 -43 304 131 310 32 z m 917 1094 b 1001 1061 926 1078 956 1069 b 1092 1165 1017 1072 1092 1164 b 997 1226 1074 1196 1021 1224 b 917 1094 928 1222 917 1151 z m 1099 1094 b 1179 1060 1110 1079 1136 1065 b 1272 1165 1200 1068 1272 1161 b 1176 1226 1251 1196 1199 1225 b 1099 1094 1110 1224 1099 1153 z "},"Ẁ":{"ha":1324,"x_min":0,"x_max":0,"o":"m 318 -43 b 458 -106 340 -75 400 -99 b 529 -89 482 -106 506 -100 b 853 699 640 101 767 447 b 819 171 835 504 819 335 b 833 -43 819 121 822 18 b 974 -106 856 -75 915 -99 b 1044 -89 997 -106 1021 -100 b 1593 935 1122 131 1431 807 b 1467 1006 1558 974 1510 1000 b 997 31 1408 944 1174 494 b 993 182 994 74 993 128 b 1093 936 993 439 1031 792 b 881 1024 1088 961 931 1024 b 483 15 844 861 599 186 b 478 182 479 63 478 122 b 578 936 478 439 515 792 b 365 1024 567 961 415 1024 b 304 207 342 638 304 457 b 318 -43 304 131 310 32 z m 928 1226 b 847 1138 889 1215 847 1171 b 1111 1061 989 1079 1053 1061 b 1188 1088 1142 1061 1165 1069 b 928 1226 1106 1106 1006 1158 z "},"X":{"ha":885,"x_min":0,"x_max":0,"o":"m 899 -6 b 671 468 797 22 743 133 b 1036 899 969 740 1028 810 b 929 1011 1014 951 989 976 b 944 946 940 982 944 963 b 929 892 944 928 940 911 b 656 538 889 815 776 667 b 421 1011 561 979 543 1011 b 289 903 365 1001 311 956 b 544 454 399 903 485 753 b 157 99 360 311 228 189 b 94 -4 124 56 100 17 b 192 -111 94 -49 146 -106 b 560 376 192 -44 347 160 b 707 -99 643 -51 658 -99 b 899 -6 757 -93 867 -40 z "},"Y":{"ha":851,"x_min":0,"x_max":0,"o":"m 653 479 b 528 1024 613 524 528 888 b 290 988 454 1021 326 1001 b 532 394 358 911 439 682 b 369 -50 488 254 428 51 b 583 -101 383 -64 543 -101 b 683 399 583 6 628 208 b 1115 954 794 563 911 710 b 993 1008 1089 981 1042 1003 b 653 479 899 797 790 631 z "},"Ý":{"ha":851,"x_min":0,"x_max":0,"o":"m 653 479 b 528 1024 613 524 528 888 b 290 988 454 1021 326 1001 b 532 394 358 911 439 682 b 369 -50 488 254 428 51 b 583 -101 383 -64 543 -101 b 683 399 583 6 628 208 b 1115 954 794 563 911 710 b 993 1008 1089 981 1042 1003 b 653 479 899 797 790 631 z m 940 1226 b 681 1088 863 1158 763 1106 b 757 1061 703 1069 726 1061 b 1021 1138 815 1061 879 1079 b 940 1226 1021 1171 979 1215 z "},"Ŷ":{"ha":851,"x_min":0,"x_max":0,"o":"m 653 479 b 528 1024 613 524 528 888 b 290 988 454 1021 326 1001 b 532 394 358 911 439 682 b 369 -50 488 254 428 51 b 583 -101 383 -64 543 -101 b 683 399 583 6 628 208 b 1115 954 794 563 911 710 b 993 1008 1089 981 1042 1003 b 653 479 899 797 790 631 z m 890 1225 b 851 1226 881 1226 874 1226 b 767 1207 814 1226 785 1219 b 772 1190 768 1201 769 1196 b 582 1092 715 1142 654 1110 b 657 1061 604 1068 629 1061 b 813 1124 700 1061 763 1086 b 950 1046 851 1078 904 1046 b 963 1047 956 1046 960 1046 b 890 1225 921 1074 903 1121 z "},"Ÿ":{"ha":851,"x_min":0,"x_max":0,"o":"m 653 479 b 528 1024 613 524 528 888 b 290 988 454 1021 326 1001 b 532 394 358 911 439 682 b 369 -50 488 254 428 51 b 583 -101 383 -64 543 -101 b 683 399 583 6 628 208 b 1115 954 794 563 911 710 b 993 1008 1089 981 1042 1003 b 653 479 899 797 790 631 z m 679 1094 b 764 1061 689 1078 718 1069 b 854 1165 779 1072 854 1164 b 760 1226 836 1196 783 1224 b 679 1094 690 1222 679 1151 z m 861 1094 b 942 1060 872 1079 899 1065 b 1035 1165 963 1068 1035 1161 b 939 1226 1014 1196 961 1225 b 861 1094 872 1224 861 1153 z "},"Ỳ":{"ha":851,"x_min":0,"x_max":0,"o":"m 653 479 b 528 1024 613 524 528 888 b 290 988 454 1021 326 1001 b 532 394 358 911 439 682 b 369 -50 488 254 428 51 b 583 -101 383 -64 543 -101 b 683 399 583 6 628 208 b 1115 954 794 563 911 710 b 993 1008 1089 981 1042 1003 b 653 479 899 797 790 631 z m 690 1226 b 610 1138 651 1215 610 1171 b 874 1061 751 1079 815 1061 b 950 1088 904 1061 928 1069 b 690 1226 868 1106 768 1158 z "},"Ỹ":{"ha":851,"x_min":0,"x_max":0,"o":"m 653 479 b 528 1024 613 524 528 888 b 290 988 454 1021 326 1001 b 532 394 358 911 439 682 b 369 -50 488 254 428 51 b 583 -101 383 -64 543 -101 b 683 399 583 6 628 208 b 1115 954 794 563 911 710 b 993 1008 1089 981 1042 1003 b 653 479 899 797 790 631 z m 564 1185 b 763 1071 576 1121 649 1071 b 976 1115 824 1071 894 1076 b 929 1226 969 1149 951 1204 b 692 1163 835 1182 763 1163 b 564 1185 650 1163 608 1169 z "},"Z":{"ha":969,"x_min":0,"x_max":0,"o":"m 378 783 b 814 842 465 829 642 842 b 990 838 875 842 935 840 b 65 -17 647 618 286 301 b 11 -110 32 -35 11 -62 b 46 -233 11 -157 32 -186 b 653 -79 156 -125 432 -79 b 904 -94 736 -79 821 -89 b 907 -65 906 -87 907 -83 b 865 146 907 4 882 111 b 569 69 839 129 753 82 b 307 44 440 61 375 56 b 1197 824 418 256 772 649 b 1164 974 1197 871 1193 933 b 999 965 1122 968 1065 965 b 379 1025 799 965 561 993 b 365 904 365 993 365 946 b 378 783 365 838 371 808 z "},"Ź":{"ha":969,"x_min":0,"x_max":0,"o":"m 378 783 b 814 842 465 829 642 842 b 990 838 875 842 935 840 b 65 -17 647 618 286 301 b 11 -110 32 -35 11 -62 b 46 -233 11 -157 32 -186 b 653 -79 156 -125 432 -79 b 904 -94 736 -79 821 -89 b 907 -65 906 -87 907 -83 b 865 146 907 4 882 111 b 569 69 839 129 753 82 b 307 44 440 61 375 56 b 1197 824 418 256 772 649 b 1164 974 1197 871 1193 933 b 999 965 1122 968 1065 965 b 379 1025 799 965 561 993 b 365 904 365 993 365 946 b 378 783 365 838 371 808 z m 1003 1226 b 743 1088 925 1158 825 1106 b 819 1061 765 1069 789 1061 b 1083 1138 878 1061 942 1079 b 1003 1226 1083 1171 1042 1215 z "},"Ž":{"ha":969,"x_min":0,"x_max":0,"o":"m 378 783 b 814 842 465 829 642 842 b 990 838 875 842 935 840 b 65 -17 647 618 286 301 b 11 -110 32 -35 11 -62 b 46 -233 11 -157 32 -186 b 653 -79 156 -125 432 -79 b 904 -94 736 -79 821 -89 b 907 -65 906 -87 907 -83 b 865 146 907 4 882 111 b 569 69 839 129 753 82 b 307 44 440 61 375 56 b 1197 824 418 256 772 649 b 1164 974 1197 871 1193 933 b 999 965 1122 968 1065 965 b 379 1025 799 965 561 993 b 365 904 365 993 365 946 b 378 783 365 838 371 808 z m 864 1043 b 1072 1164 939 1115 1014 1144 b 1004 1226 1044 1200 1022 1222 b 846 1115 964 1214 901 1174 b 706 1226 796 1199 758 1226 b 682 1224 700 1226 696 1226 b 790 1061 736 1174 751 1143 b 864 1043 808 1061 836 1057 z "},"Ż":{"ha":969,"x_min":0,"x_max":0,"o":"m 378 783 b 814 842 465 829 642 842 b 990 838 875 842 935 840 b 65 -17 647 618 286 301 b 11 -110 32 -35 11 -62 b 46 -233 11 -157 32 -186 b 653 -79 156 -125 432 -79 b 904 -94 736 -79 821 -89 b 907 -65 906 -87 907 -83 b 865 146 907 4 882 111 b 569 69 839 129 753 82 b 307 44 440 61 375 56 b 1197 824 418 256 772 649 b 1164 974 1197 871 1193 933 b 999 965 1122 968 1065 965 b 379 1025 799 965 561 993 b 365 904 365 993 365 946 b 378 783 365 838 371 808 z m 829 1099 b 878 1061 829 1083 854 1065 b 983 1194 890 1089 956 1175 b 819 1226 956 1211 863 1226 b 813 1179 815 1211 813 1194 b 833 1124 813 1158 818 1139 b 829 1099 831 1113 829 1104 z "},"a":{"ha":653,"x_min":0,"x_max":0,"o":"m 614 561 b 479 308 574 478 518 374 b 258 53 379 142 313 64 b 239 86 246 57 239 67 b 569 526 239 257 421 503 b 465 636 565 561 503 626 b 115 138 315 628 115 344 b 231 -31 115 42 163 -28 b 514 292 317 -17 439 122 b 461 75 479 201 461 126 b 536 -28 461 6 486 -28 b 626 -3 564 -28 604 -17 b 590 99 601 11 590 47 b 717 513 590 193 642 357 b 614 561 718 531 653 561 z "},"á":{"ha":653,"x_min":0,"x_max":0,"o":"m 614 561 b 479 308 574 478 518 374 b 258 53 379 142 313 64 b 239 86 246 57 239 67 b 569 526 239 257 421 503 b 465 636 565 561 503 626 b 115 138 315 628 115 344 b 231 -31 115 42 163 -28 b 514 292 317 -17 439 122 b 461 75 479 201 461 126 b 536 -28 461 6 486 -28 b 626 -3 564 -28 604 -17 b 590 99 601 11 590 47 b 717 513 590 193 642 357 b 614 561 718 531 653 561 z m 775 1013 b 515 756 697 885 597 786 b 592 729 538 738 561 729 b 856 854 650 729 714 760 b 775 1013 856 906 814 989 z "},"ă":{"ha":653,"x_min":0,"x_max":0,"o":"m 614 561 b 479 308 574 478 518 374 b 258 53 379 142 313 64 b 239 86 246 57 239 67 b 569 526 239 257 421 503 b 465 636 565 561 503 626 b 115 138 315 628 115 344 b 231 -31 115 42 163 -28 b 514 292 317 -17 439 122 b 461 75 479 201 461 126 b 536 -28 461 6 486 -28 b 626 -3 564 -28 604 -17 b 590 99 601 11 590 47 b 717 513 590 193 642 357 b 614 561 718 531 653 561 z m 671 728 b 874 919 778 754 856 829 b 851 946 868 935 861 943 b 707 806 819 874 776 822 b 571 972 650 813 596 854 b 475 929 538 965 489 960 b 671 728 501 789 596 735 z "},"â":{"ha":653,"x_min":0,"x_max":0,"o":"m 614 561 b 479 308 574 478 518 374 b 258 53 379 142 313 64 b 239 86 246 57 239 67 b 569 526 239 257 421 503 b 465 636 565 561 503 626 b 115 138 315 628 115 344 b 231 -31 115 42 163 -28 b 514 292 317 -17 439 122 b 461 75 479 201 461 126 b 536 -28 461 6 486 -28 b 626 -3 564 -28 604 -17 b 590 99 601 11 590 47 b 717 513 590 193 642 357 b 614 561 718 531 653 561 z m 725 990 b 686 992 715 992 708 992 b 601 972 649 992 619 985 l 606 950 b 407 808 546 879 482 835 b 482 772 429 785 454 772 b 640 850 526 772 589 804 b 785 706 679 767 736 706 b 797 707 790 706 794 706 b 725 990 756 750 738 822 z "},"´":{"ha":396,"x_min":0,"x_max":0,"o":"m 288 1013 b 28 756 210 885 110 786 b 104 729 50 738 74 729 b 368 854 163 729 226 760 b 288 1013 368 906 326 989 z "},"ä":{"ha":653,"x_min":0,"x_max":0,"o":"m 614 561 b 479 308 574 478 518 374 b 258 53 379 142 313 64 b 239 86 246 57 239 67 b 569 526 239 257 421 503 b 465 636 565 561 503 626 b 115 138 315 628 115 344 b 231 -31 115 42 163 -28 b 514 292 317 -17 439 122 b 461 75 479 201 461 126 b 536 -28 461 6 486 -28 b 626 -3 564 -28 604 -17 b 590 99 601 11 590 47 b 717 513 590 193 642 357 b 614 561 718 531 653 561 z m 514 840 b 585 758 522 807 546 775 b 689 911 603 774 689 910 b 594 972 671 942 618 969 b 514 840 525 968 514 897 z m 696 810 b 763 731 706 778 726 744 b 869 881 786 743 869 876 b 774 942 849 911 796 940 b 696 810 707 939 696 868 z "},"æ":{"ha":960,"x_min":0,"x_max":0,"o":"m 644 567 b 514 269 600 542 544 401 b 265 63 422 150 319 63 b 240 89 247 63 240 71 b 588 532 240 238 422 506 b 481 642 582 572 514 633 b 125 164 383 636 125 442 b 232 -25 125 76 153 -25 b 499 186 303 -25 399 51 b 681 -53 499 15 540 -28 b 978 125 769 -43 883 25 b 957 151 972 135 965 143 b 688 15 893 94 783 39 b 635 113 646 33 635 74 b 640 168 635 132 638 151 b 1058 572 918 243 1047 358 b 925 649 1007 632 978 649 b 708 550 854 649 778 610 b 644 567 688 560 663 567 z m 956 522 b 657 221 936 397 811 278 b 956 522 718 388 854 518 z "},"ǽ":{"ha":960,"x_min":0,"x_max":0,"o":"m 644 567 b 514 269 600 542 544 401 b 265 63 422 150 319 63 b 240 89 247 63 240 71 b 588 532 240 238 422 506 b 481 642 582 572 514 633 b 125 164 383 636 125 442 b 232 -25 125 76 153 -25 b 499 186 303 -25 399 51 b 681 -53 499 15 540 -28 b 978 125 769 -43 883 25 b 957 151 972 135 965 143 b 688 15 893 94 783 39 b 635 113 646 33 635 74 b 640 168 635 132 638 151 b 1058 572 918 243 1047 358 b 925 649 1007 632 978 649 b 708 550 854 649 778 610 b 644 567 688 560 663 567 z m 956 522 b 657 221 936 397 811 278 b 956 522 718 388 854 518 z m 857 1013 b 597 756 779 885 679 786 b 674 729 619 738 643 729 b 938 854 732 729 796 760 b 857 1013 938 906 896 989 z "},"à":{"ha":653,"x_min":0,"x_max":0,"o":"m 614 561 b 479 308 574 478 518 374 b 258 53 379 142 313 64 b 239 86 246 57 239 67 b 569 526 239 257 421 503 b 465 636 565 561 503 626 b 115 138 315 628 115 344 b 231 -31 115 42 163 -28 b 514 292 317 -17 439 122 b 461 75 479 201 461 126 b 536 -28 461 6 486 -28 b 626 -3 564 -28 604 -17 b 590 99 601 11 590 47 b 717 513 590 193 642 357 b 614 561 718 531 653 561 z m 525 1013 b 444 854 486 989 444 906 b 708 729 586 760 650 729 b 785 756 739 729 763 738 b 525 1013 703 786 603 885 z "},"ā":{"ha":653,"x_min":0,"x_max":0,"o":"m 614 561 b 479 308 574 478 518 374 b 258 53 379 142 313 64 b 239 86 246 57 239 67 b 569 526 239 257 421 503 b 465 636 565 561 503 626 b 115 138 315 628 115 344 b 231 -31 115 42 163 -28 b 514 292 317 -17 439 122 b 461 75 479 201 461 126 b 536 -28 461 6 486 -28 b 626 -3 564 -28 604 -17 b 590 99 601 11 590 47 b 717 513 590 193 642 357 b 614 561 718 531 653 561 z m 429 872 b 426 781 429 821 428 799 b 638 763 483 768 551 763 b 851 775 710 763 783 767 b 826 896 851 814 839 872 b 556 868 746 878 656 868 b 429 872 513 868 471 869 z "},"ą":{"ha":653,"x_min":0,"x_max":0,"o":"m 354 -208 b 500 -343 354 -289 426 -337 b 657 -243 538 -339 619 -289 l 649 -226 b 500 -290 617 -250 547 -290 b 446 -225 468 -290 446 -274 b 626 -3 446 -100 536 -31 b 590 99 601 11 590 47 b 717 513 590 193 642 357 b 614 561 718 531 653 561 b 479 308 574 478 518 374 b 258 53 379 142 313 64 b 239 86 246 57 239 67 b 569 526 239 257 421 503 b 465 636 565 561 503 626 b 115 138 315 628 115 344 b 231 -31 115 42 163 -28 b 514 292 317 -17 439 122 b 461 75 479 201 461 126 b 486 -10 461 35 469 6 b 354 -208 411 -50 354 -132 z "},"ʼ":{"ha":506,"x_min":0,"x_max":0,"o":"m 450 731 b 682 1057 571 794 647 904 b 485 1156 671 1103 579 1150 b 493 1033 490 1111 493 1071 b 428 783 493 936 474 861 b 450 731 428 765 439 740 z "},"å":{"ha":653,"x_min":0,"x_max":0,"o":"m 614 561 b 479 308 574 478 518 374 b 258 53 379 142 313 64 b 239 86 246 57 239 67 b 569 526 239 257 421 503 b 465 636 565 561 503 626 b 115 138 315 628 115 344 b 231 -31 115 42 163 -28 b 514 292 317 -17 439 122 b 461 75 479 201 461 126 b 536 -28 461 6 486 -28 b 626 -3 564 -28 604 -17 b 590 99 601 11 590 47 b 717 513 590 193 642 357 b 614 561 718 531 653 561 z m 753 810 b 768 868 764 832 768 850 b 629 986 768 932 706 986 b 476 851 560 986 476 932 b 621 728 476 783 549 728 b 753 810 676 728 725 763 z m 710 881 b 604 763 710 832 671 763 b 557 832 571 763 557 793 b 656 942 557 892 615 942 b 710 881 690 942 710 913 z "},"ǻ":{"ha":653,"x_min":0,"x_max":0,"o":"m 843 1157 b 692 963 779 1046 747 1006 b 758 943 711 950 735 943 b 940 1047 808 943 857 971 b 843 1157 921 1093 886 1132 z m 782 776 b 658 882 782 833 726 882 b 524 761 588 882 524 825 b 651 651 524 704 583 651 b 782 776 718 651 782 713 z m 731 788 b 636 683 731 733 686 683 b 594 744 610 683 594 706 b 682 842 594 792 640 842 b 731 788 711 842 731 819 z m 614 561 b 479 308 574 478 518 374 b 258 53 379 142 313 64 b 239 86 246 57 239 67 b 569 526 239 257 421 503 b 465 636 565 561 503 626 b 115 138 315 628 115 344 b 231 -31 115 42 163 -28 b 514 292 317 -17 439 122 b 461 75 479 201 461 126 b 536 -28 461 6 486 -28 b 626 -3 564 -28 604 -17 b 590 99 601 11 590 47 b 717 513 590 193 642 357 b 614 561 718 531 653 561 z "},"^":{"ha":501,"x_min":0,"x_max":0,"o":"m 360 990 b 321 992 350 992 343 992 b 236 972 283 992 254 985 l 242 938 b 56 725 186 832 126 765 b 131 689 78 703 103 689 b 276 815 171 689 229 743 b 433 622 318 704 381 622 b 446 624 433 622 446 622 b 360 990 396 683 375 772 z "},"~":{"ha":613,"x_min":0,"x_max":0,"o":"m 192 374 b 204 319 194 351 196 332 b 253 321 222 321 238 321 b 529 267 389 321 421 267 b 649 307 572 267 611 278 b 597 417 642 344 622 392 b 471 392 564 396 517 392 b 315 404 421 392 369 404 b 192 374 274 404 233 399 z "},"*":{"ha":632,"x_min":0,"x_max":0,"o":"m 604 1156 b 611 1075 607 1128 611 1103 b 594 976 611 1042 607 1008 b 457 1090 565 1032 510 1090 b 369 996 424 1090 390 1065 b 535 935 439 981 492 963 b 382 839 504 928 382 882 b 449 724 382 788 424 744 b 558 863 483 786 517 829 b 557 836 557 853 557 844 b 626 682 557 789 564 682 b 731 714 657 682 696 693 b 635 863 685 768 653 813 b 769 838 681 843 725 838 b 832 925 832 838 832 885 b 828 981 832 946 831 967 b 657 935 767 954 710 936 b 725 1074 692 971 725 1028 b 604 1156 725 1118 694 1154 z "},"@":{"ha":910,"x_min":0,"x_max":0,"o":"m 385 656 b 169 247 239 535 169 356 b 503 -126 169 88 318 -126 b 867 96 636 -126 757 -17 b 856 126 867 106 865 110 b 538 -62 711 -7 619 -62 b 336 183 424 -62 336 47 b 760 660 336 403 567 660 b 928 522 853 660 928 599 b 656 193 928 406 753 193 b 617 232 631 193 617 207 b 757 374 617 303 678 374 b 813 363 775 374 793 371 b 682 515 808 422 750 490 b 482 282 550 476 482 371 b 646 121 482 206 569 121 b 979 500 771 121 979 350 b 660 767 979 626 829 767 b 385 656 567 767 469 725 z "},"ã":{"ha":653,"x_min":0,"x_max":0,"o":"m 614 561 b 479 308 574 478 518 374 b 258 53 379 142 313 64 b 239 86 246 57 239 67 b 569 526 239 257 421 503 b 465 636 565 561 503 626 b 115 138 315 628 115 344 b 231 -31 115 42 163 -28 b 514 292 317 -17 439 122 b 461 75 479 201 461 126 b 536 -28 461 6 486 -28 b 626 -3 564 -28 604 -17 b 590 99 601 11 590 47 b 717 513 590 193 642 357 b 614 561 718 531 653 561 z m 399 867 b 597 743 411 803 483 743 b 811 785 658 743 729 756 b 764 910 804 822 786 885 b 526 844 669 865 597 844 b 399 867 485 844 443 851 z "},"b":{"ha":656,"x_min":0,"x_max":0,"o":"m 263 -10 b 361 -50 263 -28 318 -50 b 756 525 517 -50 750 289 b 633 669 747 590 693 654 b 285 299 556 669 389 492 b 732 1074 379 649 529 910 b 597 1157 710 1099 633 1146 b 153 138 419 1081 153 468 b 158 101 153 119 154 110 b 182 75 161 94 172 82 b 214 42 203 60 211 50 b 238 14 219 25 229 14 b 613 594 251 153 535 592 b 631 572 622 592 631 582 b 263 -10 599 364 435 106 z "},"|":{"ha":383,"x_min":0,"x_max":0,"o":"m 250 -181 b 681 1065 300 174 446 807 b 525 1153 665 1089 569 1144 b 136 -122 375 953 144 213 z "},"{":{"ha":465,"x_min":0,"x_max":0,"o":"m 622 1128 b 422 929 535 1128 465 1043 b 217 511 357 758 376 583 l 168 489 b 189 461 169 481 176 468 b 314 353 261 461 314 438 b 186 -57 314 222 186 53 b 419 -225 186 -172 326 -211 l 431 -203 b 310 -110 357 -186 310 -162 b 442 308 310 -22 442 164 b 338 485 442 388 403 446 b 551 792 489 536 522 668 b 719 1072 579 911 606 1015 b 622 1128 678 1117 654 1128 z "},"}":{"ha":465,"x_min":0,"x_max":0,"o":"m 136 -225 b 336 -26 224 -225 293 -140 b 542 392 401 144 382 319 l 590 414 b 569 442 589 422 582 435 b 444 550 497 442 444 465 b 572 960 444 681 572 850 b 339 1128 572 1075 432 1114 l 328 1106 b 449 1013 401 1089 449 1065 b 317 594 449 925 317 739 b 421 418 317 515 356 457 b 207 111 269 367 236 235 b 39 -169 179 -8 153 -112 b 136 -225 81 -214 104 -225 z "},"[":{"ha":536,"x_min":0,"x_max":0,"o":"m 725 1099 b 460 1069 676 1099 554 1088 b 294 546 451 1028 428 921 b 63 -68 213 315 93 -3 b 175 -194 99 -129 133 -179 b 425 -168 263 -179 346 -168 b 508 -172 453 -168 481 -169 b 514 -146 513 -160 514 -156 b 432 -83 514 -111 497 -83 b 200 -128 364 -83 254 -112 b 408 467 201 -68 301 192 b 586 1007 500 703 571 943 b 728 1013 625 1011 696 1013 b 814 1008 760 1013 786 1011 b 819 1035 818 1021 819 1025 b 725 1099 819 1069 804 1099 z "},"]":{"ha":535,"x_min":0,"x_max":0,"o":"m 104 -194 b 369 -165 153 -194 275 -183 b 535 358 378 -124 401 -17 b 767 972 617 589 736 907 b 654 1099 731 1033 696 1083 b 404 1072 567 1083 483 1072 b 321 1076 376 1072 349 1074 b 315 1050 317 1064 315 1060 b 397 988 315 1015 332 988 b 629 1032 465 988 575 1017 b 421 438 628 972 528 713 b 243 -103 329 201 258 -39 b 101 -108 204 -107 133 -108 b 15 -104 69 -108 43 -107 b 10 -131 11 -117 10 -121 b 104 -194 10 -165 25 -194 z "},"˘":{"ha":454,"x_min":0,"x_max":0,"o":"m 222 728 b 425 919 329 754 407 829 b 403 946 419 935 413 943 b 258 806 371 874 328 822 b 122 972 201 813 147 854 b 26 929 89 965 40 960 b 222 728 53 789 147 735 z "},"¦":{"ha":372,"x_min":0,"x_max":0,"o":"m 410 539 b 679 1065 479 750 572 947 b 511 1153 664 1089 556 1144 b 294 604 440 1058 356 842 z m 215 464 b 138 -126 165 351 140 19 l 249 -181 b 385 393 257 4 299 183 b 215 464 349 424 253 463 z "},"•":{"ha":469,"x_min":0,"x_max":0,"o":"m 344 319 b 506 469 381 319 471 388 b 304 582 468 528 351 582 b 260 379 294 546 260 429 b 344 319 268 351 313 324 z "},"c":{"ha":583,"x_min":0,"x_max":0,"o":"m 143 244 b 364 -40 143 99 242 -29 b 601 126 426 -29 540 50 b 588 154 601 135 594 149 b 347 35 501 90 401 42 b 297 169 314 50 297 94 b 419 488 297 288 340 399 b 569 583 471 544 533 583 b 601 543 590 583 601 569 b 508 389 601 497 571 446 b 571 351 524 367 549 351 b 676 519 624 351 676 435 b 526 658 676 608 622 658 b 143 244 332 658 143 454 z "},"ć":{"ha":583,"x_min":0,"x_max":0,"o":"m 143 244 b 364 -40 143 99 242 -29 b 601 126 426 -29 540 50 b 588 154 601 135 594 149 b 347 35 501 90 401 42 b 297 169 314 50 297 94 b 419 488 297 288 340 399 b 569 583 471 544 533 583 b 601 543 590 583 601 569 b 508 389 601 497 571 446 b 571 351 524 367 549 351 b 676 519 624 351 676 435 b 526 658 676 608 622 658 b 143 244 332 658 143 454 z m 771 1013 b 511 756 693 885 593 786 b 588 729 533 738 557 729 b 851 854 646 729 710 760 b 771 1013 851 906 810 989 z "},"ˇ":{"ha":446,"x_min":0,"x_max":0,"o":"m 214 701 b 418 889 289 806 349 860 b 343 957 390 926 361 954 b 206 824 303 936 263 896 b 51 993 156 936 104 993 b 28 990 46 993 42 993 b 124 742 82 924 113 846 b 214 701 143 724 164 714 z "},"č":{"ha":583,"x_min":0,"x_max":0,"o":"m 143 244 b 364 -40 143 99 242 -29 b 601 126 426 -29 540 50 b 588 154 601 135 594 149 b 347 35 501 90 401 42 b 297 169 314 50 297 94 b 419 488 297 288 340 399 b 569 583 471 544 533 583 b 601 543 590 583 601 569 b 508 389 601 497 571 446 b 571 351 524 367 549 351 b 676 519 624 351 676 435 b 526 658 676 608 622 658 b 143 244 332 658 143 454 z m 622 701 b 826 889 697 806 757 860 b 751 957 799 926 769 954 b 614 824 711 936 671 896 b 460 993 564 936 513 993 b 436 990 454 993 450 993 b 532 742 490 924 521 846 b 622 701 551 724 572 714 z "},"ç":{"ha":581,"x_min":0,"x_max":0,"o":"m 142 244 b 332 -35 142 111 224 -7 b 224 -210 279 -103 233 -179 b 235 -226 225 -215 229 -224 b 396 -178 279 -210 365 -183 b 226 -367 347 -257 313 -294 b 256 -417 226 -378 249 -417 b 522 -186 300 -417 522 -224 b 442 -118 522 -172 458 -118 b 303 -154 407 -118 338 -136 b 371 -37 315 -124 342 -79 b 600 126 435 -21 542 53 b 586 154 600 135 593 149 b 346 35 500 90 400 42 b 296 169 313 50 296 94 b 418 488 296 288 339 399 b 568 583 469 544 532 583 b 600 543 589 583 600 569 b 507 389 600 497 569 446 b 569 351 522 367 547 351 b 675 519 622 351 675 435 b 525 658 675 608 621 658 b 142 244 331 658 142 454 z "},"ĉ":{"ha":583,"x_min":0,"x_max":0,"o":"m 143 244 b 364 -40 143 99 242 -29 b 601 126 426 -29 540 50 b 588 154 601 135 594 149 b 347 35 501 90 401 42 b 297 169 314 50 297 94 b 419 488 297 288 340 399 b 569 583 471 544 533 583 b 601 543 590 583 601 569 b 508 389 601 497 571 446 b 571 351 524 367 549 351 b 676 519 624 351 676 435 b 526 658 676 608 622 658 b 143 244 332 658 143 454 z m 707 990 b 668 992 697 992 690 992 b 583 972 631 992 601 985 l 588 950 b 389 808 528 879 464 835 b 464 772 411 785 436 772 b 622 850 508 772 571 804 b 767 706 661 767 718 706 b 779 707 772 706 776 706 b 707 990 738 750 719 822 z "},"ċ":{"ha":583,"x_min":0,"x_max":0,"o":"m 143 244 b 364 -40 143 99 242 -29 b 601 126 426 -29 540 50 b 588 154 601 135 594 149 b 347 35 501 90 401 42 b 297 169 314 50 297 94 b 419 488 297 288 340 399 b 569 583 471 544 533 583 b 601 543 590 583 601 569 b 508 389 601 497 571 446 b 571 351 524 367 549 351 b 676 519 624 351 676 435 b 526 658 676 608 622 658 b 143 244 332 658 143 454 z m 543 742 b 585 704 543 726 563 708 b 742 897 599 735 700 858 b 574 994 714 939 617 994 b 531 813 550 935 531 844 b 547 767 531 797 538 776 b 543 742 544 756 543 747 z "},"¸":{"ha":354,"x_min":0,"x_max":0,"o":"m 186 24 b 28 -210 115 -51 42 -169 b 39 -226 29 -215 33 -224 b 200 -178 83 -210 169 -183 b 31 -367 151 -257 117 -294 b 60 -417 31 -378 53 -417 b 326 -186 104 -417 326 -224 b 246 -118 326 -172 263 -118 b 107 -154 211 -118 142 -136 b 221 19 126 -108 175 -35 z "},"ˆ":{"ha":446,"x_min":0,"x_max":0,"o":"m 346 990 b 307 992 336 992 329 992 b 222 972 269 992 240 985 l 226 950 b 28 808 167 879 103 835 b 103 772 50 785 75 772 b 261 850 147 772 210 804 b 406 706 300 767 357 706 b 418 707 411 706 415 706 b 346 990 376 750 358 822 z "},":":{"ha":396,"x_min":0,"x_max":0,"o":"m 199 -53 b 344 83 231 -53 313 8 b 161 186 310 136 204 186 b 121 1 153 153 121 47 b 199 -53 129 -24 169 -49 z m 338 389 b 483 525 369 389 451 450 b 300 628 449 578 343 628 b 260 443 292 594 260 489 b 338 389 268 418 308 393 z "},",":{"ha":333,"x_min":0,"x_max":0,"o":"m 24 -235 b 311 92 172 -171 268 -61 b 114 190 301 138 208 185 b 131 50 126 139 131 106 b 1 -182 131 -35 93 -103 b 24 -235 1 -200 13 -225 z "},"":{"ha":322,"x_min":0,"x_max":0,"o":"m -36 -486 b 210 -215 86 -431 186 -299 b 13 -117 200 -169 107 -122 b 29 -226 24 -157 29 -193 b -58 -433 29 -307 -3 -368 b -36 -486 -58 -451 -47 -476 z "},"d":{"ha":601,"x_min":0,"x_max":0,"o":"m 438 649 b 110 126 296 614 110 318 b 307 -75 110 8 179 -61 b 700 603 494 -43 700 313 b 510 1154 700 794 615 1040 b 381 1054 463 1146 393 1089 b 565 589 515 839 549 736 b 438 649 528 624 474 649 z m 296 -19 b 233 60 254 -12 233 13 b 567 564 233 204 433 507 b 568 524 568 557 568 556 b 296 -19 568 307 426 26 z "},"ď":{"ha":601,"x_min":0,"x_max":0,"o":"m 438 649 b 110 126 296 614 110 318 b 307 -75 110 8 179 -61 b 700 603 494 -43 700 313 b 510 1154 700 794 615 1040 b 381 1054 463 1146 393 1089 b 565 589 515 839 549 736 b 438 649 528 624 474 649 z m 296 -19 b 233 60 254 -12 233 13 b 567 564 233 204 433 507 b 568 524 568 557 568 556 b 296 -19 568 307 426 26 z m 760 731 b 992 1057 881 794 957 904 b 794 1156 981 1103 889 1150 b 803 1033 800 1111 803 1071 b 738 783 803 936 783 861 b 760 731 738 765 749 740 z "},"đ":{"ha":601,"x_min":0,"x_max":0,"o":"m 322 938 b 319 846 322 886 321 864 b 504 828 371 836 431 831 b 565 589 540 743 556 674 b 438 649 528 624 474 649 b 110 126 296 614 110 318 b 307 -75 110 8 179 -61 b 700 603 494 -43 700 313 b 668 829 700 674 688 753 b 803 840 714 832 758 835 b 774 961 803 879 789 938 b 632 940 729 951 682 946 b 510 1154 599 1026 556 1103 b 381 1054 463 1146 393 1089 b 451 933 408 1010 432 969 b 322 938 407 933 364 935 z m 296 -19 b 233 60 254 -12 233 13 b 567 564 233 204 433 507 b 568 524 568 557 568 556 b 296 -19 568 307 426 26 z "},"¨":{"ha":424,"x_min":0,"x_max":0,"o":"m 28 840 b 99 758 36 807 60 775 b 203 911 117 774 203 910 b 108 972 185 942 132 969 b 28 840 39 968 28 897 z m 210 810 b 276 731 219 778 240 744 b 383 881 300 743 383 876 b 288 942 363 911 310 940 b 210 810 221 939 210 868 z "},"˙":{"ha":267,"x_min":0,"x_max":0,"o":"m 42 742 b 83 704 42 726 61 708 b 240 897 97 735 199 858 b 72 994 213 939 115 994 b 29 813 49 935 29 844 b 46 767 29 797 36 776 b 42 742 43 756 42 747 z "},"ı":{"ha":332,"x_min":0,"x_max":0,"o":"m 135 78 b 238 -42 135 -6 225 -42 b 246 6 246 -42 246 -28 b 285 157 246 50 265 93 b 436 472 322 278 354 376 b 306 561 400 525 336 557 b 181 339 222 522 188 372 b 135 78 146 175 135 111 z "},"ȷ":{"ha":328,"x_min":0,"x_max":0,"o":"m 165 260 b -154 -440 14 -332 -36 -440 b -265 -393 -201 -440 -233 -426 b -289 -422 -275 -394 -287 -410 b -92 -503 -257 -468 -172 -503 b 175 -201 19 -503 93 -419 b 358 392 210 -108 296 171 b 463 618 374 449 403 513 b 369 656 426 643 396 656 b 165 260 297 656 235 533 z "},"e":{"ha":561,"x_min":0,"x_max":0,"o":"m 632 575 b 513 654 594 622 554 649 b 121 158 329 654 121 386 b 324 -54 121 47 196 -40 b 601 154 411 -35 518 44 b 578 178 594 163 588 169 b 324 15 519 115 424 15 b 260 126 271 15 260 79 b 261 163 260 139 261 151 b 632 575 497 257 618 347 z m 536 529 b 272 215 529 403 419 289 b 536 529 317 388 435 515 z "},"é":{"ha":561,"x_min":0,"x_max":0,"o":"m 632 575 b 513 654 594 622 554 649 b 121 158 329 654 121 386 b 324 -54 121 47 196 -40 b 601 154 411 -35 518 44 b 578 178 594 163 588 169 b 324 15 519 115 424 15 b 260 126 271 15 260 79 b 261 163 260 139 261 151 b 632 575 497 257 618 347 z m 536 529 b 272 215 529 403 419 289 b 536 529 317 388 435 515 z m 764 1013 b 504 756 686 885 586 786 b 581 729 526 738 550 729 b 844 854 639 729 703 760 b 764 1013 844 906 803 989 z "},"ĕ":{"ha":561,"x_min":0,"x_max":0,"o":"m 632 575 b 513 654 594 622 554 649 b 121 158 329 654 121 386 b 324 -54 121 47 196 -40 b 601 154 411 -35 518 44 b 578 178 594 163 588 169 b 324 15 519 115 424 15 b 260 126 271 15 260 79 b 261 163 260 139 261 151 b 632 575 497 257 618 347 z m 536 529 b 272 215 529 403 419 289 b 536 529 317 388 435 515 z m 660 728 b 863 919 767 754 844 829 b 840 946 857 935 850 943 b 696 806 808 874 765 822 b 560 972 639 813 585 854 b 464 929 526 965 478 960 b 660 728 490 789 585 735 z "},"ě":{"ha":561,"x_min":0,"x_max":0,"o":"m 632 575 b 513 654 594 622 554 649 b 121 158 329 654 121 386 b 324 -54 121 47 196 -40 b 601 154 411 -35 518 44 b 578 178 594 163 588 169 b 324 15 519 115 424 15 b 260 126 271 15 260 79 b 261 163 260 139 261 151 b 632 575 497 257 618 347 z m 536 529 b 272 215 529 403 419 289 b 536 529 317 388 435 515 z m 629 701 b 833 889 704 806 764 860 b 758 957 806 926 776 954 b 621 824 718 936 678 896 b 467 993 571 936 519 993 b 443 990 461 993 457 993 b 539 742 497 924 528 846 b 629 701 558 724 579 714 z "},"ê":{"ha":561,"x_min":0,"x_max":0,"o":"m 632 575 b 513 654 594 622 554 649 b 121 158 329 654 121 386 b 324 -54 121 47 196 -40 b 601 154 411 -35 518 44 b 578 178 594 163 588 169 b 324 15 519 115 424 15 b 260 126 271 15 260 79 b 261 163 260 139 261 151 b 632 575 497 257 618 347 z m 536 529 b 272 215 529 403 419 289 b 536 529 317 388 435 515 z m 714 990 b 675 992 704 992 697 992 b 590 972 638 992 608 985 l 594 950 b 396 808 535 879 471 835 b 471 772 418 785 443 772 b 629 850 515 772 578 804 b 774 706 668 767 725 706 b 786 707 779 706 783 706 b 714 990 744 750 726 822 z "},"ë":{"ha":561,"x_min":0,"x_max":0,"o":"m 632 575 b 513 654 594 622 554 649 b 121 158 329 654 121 386 b 324 -54 121 47 196 -40 b 601 154 411 -35 518 44 b 578 178 594 163 588 169 b 324 15 519 115 424 15 b 260 126 271 15 260 79 b 261 163 260 139 261 151 b 632 575 497 257 618 347 z m 536 529 b 272 215 529 403 419 289 b 536 529 317 388 435 515 z m 503 840 b 574 758 511 807 535 775 b 678 911 592 774 678 910 b 583 972 660 942 607 969 b 503 840 514 968 503 897 z m 685 810 b 751 731 694 778 715 744 b 858 881 775 743 858 876 b 763 942 838 911 785 940 b 685 810 696 939 685 868 z "},"ė":{"ha":561,"x_min":0,"x_max":0,"o":"m 632 575 b 513 654 594 622 554 649 b 121 158 329 654 121 386 b 324 -54 121 47 196 -40 b 601 154 411 -35 518 44 b 578 178 594 163 588 169 b 324 15 519 115 424 15 b 260 126 271 15 260 79 b 261 163 260 139 261 151 b 632 575 497 257 618 347 z m 536 529 b 272 215 529 403 419 289 b 536 529 317 388 435 515 z m 550 742 b 592 704 550 726 569 708 b 749 897 606 735 707 858 b 581 994 721 939 624 994 b 538 813 557 935 538 844 b 554 767 538 797 544 776 b 550 742 551 756 550 747 z "},"è":{"ha":561,"x_min":0,"x_max":0,"o":"m 632 575 b 513 654 594 622 554 649 b 121 158 329 654 121 386 b 324 -54 121 47 196 -40 b 601 154 411 -35 518 44 b 578 178 594 163 588 169 b 324 15 519 115 424 15 b 260 126 271 15 260 79 b 261 163 260 139 261 151 b 632 575 497 257 618 347 z m 536 529 b 272 215 529 403 419 289 b 536 529 317 388 435 515 z m 514 1013 b 433 854 475 989 433 906 b 697 729 575 760 639 729 b 774 756 728 729 751 738 b 514 1013 692 786 592 885 z "},"…":{"ha":979,"x_min":0,"x_max":0,"o":"m 174 -53 b 319 83 206 -53 288 8 b 136 186 285 136 179 186 b 96 1 128 153 96 47 b 174 -53 104 -24 144 -49 z m 496 -53 b 642 83 528 -53 610 8 b 458 186 607 136 501 186 b 418 1 450 153 418 47 b 496 -53 426 -24 467 -49 z m 818 -53 b 964 83 850 -53 932 8 b 781 186 929 136 824 186 b 740 1 772 153 740 47 b 818 -53 749 -24 789 -49 z "},"ē":{"ha":561,"x_min":0,"x_max":0,"o":"m 632 575 b 513 654 594 622 554 649 b 121 158 329 654 121 386 b 324 -54 121 47 196 -40 b 601 154 411 -35 518 44 b 578 178 594 163 588 169 b 324 15 519 115 424 15 b 260 126 271 15 260 79 b 261 163 260 139 261 151 b 632 575 497 257 618 347 z m 536 529 b 272 215 529 403 419 289 b 536 529 317 388 435 515 z m 418 872 b 415 781 418 821 417 799 b 626 763 472 768 540 763 b 840 775 699 763 772 767 b 815 896 840 814 828 872 b 544 868 735 878 644 868 b 418 872 501 868 460 869 z "},"—":{"ha":867,"x_min":0,"x_max":0,"o":"m 306 258 b 776 297 444 258 578 297 b 894 290 804 297 838 296 b 800 414 879 369 843 414 b 321 386 739 414 554 386 b 199 393 267 386 238 388 b 189 350 196 383 189 358 b 306 258 189 293 235 258 z "},"–":{"ha":821,"x_min":0,"x_max":0,"o":"m 297 258 b 738 297 426 258 551 297 b 849 290 763 297 794 296 b 760 414 833 369 800 414 b 311 386 701 414 529 386 b 197 393 260 386 232 388 b 188 350 194 383 188 358 b 297 258 188 293 231 258 z "},"ŋ":{"ha":729,"x_min":0,"x_max":0,"o":"m 851 507 b 753 582 833 542 800 582 b 461 369 663 582 532 444 b 276 157 429 336 335 219 b 475 540 288 242 433 439 b 360 674 456 601 408 658 b 208 407 344 667 279 569 b 104 39 146 264 104 108 b 168 -69 113 -3 129 -47 b 261 43 190 -57 221 -14 b 596 382 361 183 542 371 b 268 -446 503 125 476 -343 b 144 -396 240 -446 174 -421 b 119 -422 129 -399 121 -411 b 314 -503 161 -482 263 -503 b 583 -201 457 -503 524 -356 b 851 507 676 40 682 333 z "},"ę":{"ha":560,"x_min":0,"x_max":0,"o":"m 119 -235 b 265 -369 119 -315 192 -364 b 422 -269 303 -365 385 -315 l 414 -253 b 265 -317 382 -276 313 -317 b 211 -251 233 -317 211 -300 b 331 -53 211 -157 271 -81 b 601 154 440 -21 529 60 b 578 178 594 163 588 169 b 324 15 519 115 424 15 b 260 126 271 15 260 79 b 261 163 260 139 261 151 b 632 575 497 257 618 347 b 513 654 594 622 554 649 b 121 158 329 654 121 386 b 251 -36 121 69 168 -3 b 119 -235 176 -76 119 -158 z m 536 529 b 272 215 529 403 419 289 b 536 529 317 388 435 515 z "},"=":{"ha":792,"x_min":0,"x_max":0,"o":"m 272 129 b 651 168 383 129 492 168 b 746 163 674 168 700 167 b 671 283 733 238 706 283 b 283 258 621 283 472 258 b 186 267 239 258 217 263 b 175 214 178 249 175 231 b 272 129 175 165 210 129 z m 358 400 b 738 440 469 400 578 440 b 833 433 760 440 788 439 b 757 554 821 511 792 554 b 371 526 707 554 558 526 b 272 535 326 526 303 531 b 264 489 269 524 264 501 b 358 400 264 436 301 400 z "},"ð":{"ha":601,"x_min":0,"x_max":0,"o":"m 438 649 b 110 126 296 614 110 318 b 307 -75 110 8 179 -61 b 700 603 494 -43 700 313 b 653 879 700 689 682 788 b 783 915 693 892 736 903 b 760 1003 779 940 769 979 b 618 974 713 996 665 986 b 510 1154 588 1046 550 1110 b 381 1054 463 1146 393 1089 b 457 924 411 1006 436 963 b 294 864 403 906 349 885 b 356 756 306 821 335 768 b 506 825 403 779 451 803 b 565 589 540 742 556 672 b 438 649 528 624 474 649 z m 296 -19 b 233 60 254 -12 233 13 b 567 564 233 204 433 507 b 568 524 568 557 568 556 b 296 -19 568 307 426 26 z "},"ẽ":{"ha":561,"x_min":0,"x_max":0,"o":"m 632 575 b 513 654 594 622 554 649 b 121 158 329 654 121 386 b 324 -54 121 47 196 -40 b 601 154 411 -35 518 44 b 578 178 594 163 588 169 b 324 15 519 115 424 15 b 260 126 271 15 260 79 b 261 163 260 139 261 151 b 632 575 497 257 618 347 z m 536 529 b 272 215 529 403 419 289 b 536 529 317 388 435 515 z m 388 867 b 586 743 400 803 472 743 b 800 785 647 743 718 756 b 753 910 793 822 775 885 b 515 844 658 865 586 844 b 388 867 474 844 432 851 z "},"!":{"ha":417,"x_min":0,"x_max":0,"o":"m 199 261 b 283 153 199 179 238 165 b 722 961 343 488 532 804 b 568 1099 714 1007 626 1086 b 199 261 460 1019 199 414 z m 168 -107 b 286 25 224 -107 243 -22 b 149 113 261 69 200 113 b 83 -40 107 113 83 6 b 168 -107 83 -60 125 -107 z "},"¡":{"ha":381,"x_min":0,"x_max":0,"o":"m 403 353 b 318 461 403 435 364 449 b -121 -347 258 126 69 -190 b 33 -485 -112 -393 -25 -472 b 403 353 142 -406 403 200 z m 418 513 b 536 644 474 513 493 597 b 399 732 511 689 450 732 b 333 579 357 732 333 625 b 418 513 333 560 375 513 z "},"f":{"ha":475,"x_min":0,"x_max":0,"o":"m 211 -401 b 490 532 240 -244 351 115 l 643 524 b 625 606 642 558 633 597 l 508 601 b 744 1003 588 839 683 1003 b 738 943 739 967 738 954 b 747 896 738 922 740 913 b 756 839 751 878 754 860 b 772 799 757 810 761 799 b 846 932 797 818 822 863 b 890 1050 857 975 875 1024 b 847 1068 872 1063 857 1068 b 778 1043 828 1068 794 1056 b 722 1047 767 1043 744 1047 b 335 590 571 1047 422 871 b 183 560 267 581 201 567 b 196 526 183 549 189 533 b 319 533 229 532 258 533 b 122 -287 188 68 153 -97 b 169 -349 151 -304 165 -322 b 211 -401 174 -374 188 -392 z "},"ﬀ":{"ha":828,"x_min":0,"x_max":0,"o":"m 1101 1003 b 1094 943 1096 967 1094 954 b 1113 839 1094 907 1110 879 b 1129 799 1114 810 1118 799 b 1203 932 1154 818 1179 863 b 1247 1050 1214 975 1232 1024 b 1204 1068 1229 1063 1214 1068 b 1135 1043 1185 1068 1151 1056 b 1079 1047 1124 1043 1100 1047 b 883 940 1014 1047 944 1006 b 689 1028 828 983 761 1028 b 328 574 526 1028 414 850 b 181 544 257 563 204 551 b 193 511 181 533 186 518 b 313 522 228 515 269 519 b 106 -137 236 258 174 47 b -137 -457 17 -376 -42 -457 b -256 -407 -183 -457 -229 -437 b -274 -443 -265 -412 -274 -431 b -106 -510 -229 -486 -169 -510 b 82 -440 -32 -510 26 -492 b 265 -510 129 -482 182 -510 b 846 531 485 -510 567 -349 b 985 518 893 528 939 522 b 999 579 994 531 999 560 b 996 599 999 589 997 596 b 868 608 963 604 910 607 b 1101 1003 946 842 1040 1003 z m 465 -137 b 222 -457 376 -379 315 -457 b 108 -414 182 -457 136 -440 b 489 533 217 -289 318 -19 b 650 536 546 535 601 536 l 676 536 b 465 -137 608 299 528 35 z m 696 607 b 510 596 631 606 568 601 b 754 933 596 817 657 933 b 849 900 768 933 808 926 b 696 607 785 819 729 715 z "},"ﬃ":{"ha":1192,"x_min":0,"x_max":0,"o":"m 174 521 b 186 474 174 510 179 481 b 314 497 222 482 265 490 b 114 -137 240 244 181 42 b -129 -457 25 -376 -33 -457 b -247 -407 -175 -457 -221 -437 b -265 -443 -257 -412 -265 -431 b -97 -510 -221 -486 -161 -510 b 106 -426 -18 -510 44 -489 b 290 -510 153 -479 221 -510 b 883 532 518 -510 619 -344 b 1122 526 961 532 1040 532 b 992 93 1056 431 992 197 b 1093 -25 992 11 1079 -25 b 1101 21 1101 -25 1097 -12 b 1331 568 1108 82 1201 399 b 1310 597 1326 578 1318 589 b 1068 611 1222 608 1142 611 b 907 608 1013 611 960 610 b 1157 953 964 783 1040 953 b 1249 919 1185 953 1215 942 b 1242 860 1243 883 1242 871 b 1288 756 1242 822 1288 796 b 1304 715 1288 726 1296 715 b 1378 849 1329 735 1354 779 b 1422 967 1388 892 1406 940 b 1379 985 1404 979 1389 985 b 1282 960 1351 985 1304 972 b 1074 1047 1249 960 1140 1047 b 889 942 1003 1047 942 1010 b 697 1028 833 985 768 1028 b 329 550 531 1028 418 840 b 174 521 269 540 217 531 z m 710 529 b 501 -137 636 276 567 40 b 258 -457 413 -376 354 -457 b 128 -400 188 -457 154 -431 b 492 518 232 -272 331 -4 b 710 529 560 524 633 528 z m 511 576 b 763 933 601 810 663 933 b 858 899 776 933 817 925 b 731 599 810 824 768 721 b 511 576 653 593 579 585 z "},"ﬄ":{"ha":1196,"x_min":0,"x_max":0,"o":"m 1001 89 b 1031 -35 1001 29 1014 -24 b 1068 -75 1043 -43 1064 -65 b 1119 -101 1074 -87 1094 -99 b 1118 -61 1118 -94 1118 -93 b 1238 453 1118 56 1160 236 b 1578 1065 1329 707 1433 894 b 1422 1153 1563 1089 1467 1144 b 1296 951 1381 1103 1339 1036 b 1074 1047 1231 1006 1132 1047 b 889 942 1003 1047 942 1010 b 697 1028 833 985 768 1028 b 329 551 531 1028 418 840 b 174 521 269 542 217 531 b 186 474 174 510 179 481 b 314 497 222 482 265 490 b 114 -137 240 244 181 42 b -129 -457 25 -376 -33 -457 b -247 -407 -175 -457 -221 -437 b -265 -443 -257 -412 -265 -431 b -97 -510 -221 -486 -161 -510 b 106 -426 -18 -510 44 -489 b 290 -510 153 -479 221 -510 b 883 532 518 -510 619 -344 b 1003 531 922 532 963 532 l 1049 611 b 907 608 1000 611 953 610 b 1157 953 964 783 1040 953 b 1276 913 1189 953 1225 947 b 1113 518 1224 806 1169 675 b 1001 89 1042 324 1001 169 z m 710 529 b 501 -137 636 276 567 40 b 258 -457 413 -376 354 -457 b 128 -400 188 -457 154 -431 b 492 518 232 -272 331 -4 b 710 529 560 524 633 528 z m 511 576 b 763 933 601 810 663 933 b 858 899 776 933 817 925 b 731 599 810 824 768 721 b 511 576 653 593 579 585 z "},"ﬁ":{"ha":808,"x_min":0,"x_max":0,"o":"m 735 610 b 522 601 656 610 586 606 b 801 922 579 768 658 922 b 865 919 821 922 843 921 b 858 860 860 883 858 871 b 904 756 858 822 904 796 b 921 715 904 726 913 715 b 994 849 946 735 971 779 b 1039 967 1004 892 1022 940 b 996 985 1021 979 1006 985 b 899 960 968 985 921 972 b 718 1017 871 960 776 1017 b 342 579 553 1017 432 847 b 179 544 264 567 208 553 b 192 511 179 533 185 518 b 325 524 206 513 256 519 b 118 -137 253 274 183 39 b -125 -457 29 -376 -29 -457 b -243 -407 -171 -457 -217 -437 b -261 -443 -253 -412 -261 -431 b -93 -510 -217 -486 -157 -510 b 500 532 135 -510 224 -343 b 561 533 519 533 540 533 b 739 526 619 533 681 531 b 608 93 672 431 608 197 b 710 -25 608 11 696 -25 b 718 21 718 -25 714 -12 b 947 568 725 82 818 399 b 926 597 943 578 935 589 b 735 610 869 608 754 610 z "},"ﬂ":{"ha":815,"x_min":0,"x_max":0,"o":"m 621 89 b 650 -35 621 29 633 -24 b 688 -75 663 -43 683 -65 b 739 -101 693 -87 714 -99 b 738 -61 738 -94 738 -93 b 857 453 738 56 779 236 b 1197 1065 949 707 1053 894 b 1042 1153 1182 1089 1086 1144 b 915 953 1000 1103 958 1036 b 718 1017 867 972 767 1017 b 342 581 553 1017 432 849 b 179 544 263 568 208 553 b 192 511 179 533 185 518 b 325 524 206 513 256 519 b 118 -137 253 274 183 39 b -125 -457 29 -376 -29 -457 b -243 -407 -171 -457 -217 -437 b -261 -443 -253 -412 -261 -431 b -93 -510 -217 -486 -157 -510 b 500 532 135 -510 224 -343 b 561 533 519 533 540 533 l 603 533 b 647 608 607 549 625 589 b 522 601 603 607 561 604 b 801 922 579 768 658 922 b 893 908 818 922 860 918 b 732 518 842 803 789 674 b 621 89 661 324 621 169 z "},"ƒ":{"ha":783,"x_min":0,"x_max":0,"o":"m 682 601 b 918 1003 761 839 857 1003 b 911 943 913 967 911 954 b 921 896 911 922 914 913 b 929 839 925 878 928 860 b 946 799 931 810 935 799 b 1019 932 971 818 996 863 b 1064 1050 1031 975 1049 1024 b 1021 1068 1046 1063 1031 1068 b 951 1043 1001 1068 968 1056 b 896 1047 940 1043 918 1047 b 508 590 744 1047 596 871 b 357 560 440 581 375 567 b 369 526 357 549 363 533 b 493 533 403 532 432 533 b 282 -137 424 293 350 46 b 39 -457 193 -376 135 -457 b -79 -407 -7 -457 -53 -437 b -97 -443 -89 -412 -97 -431 b 71 -510 -53 -486 7 -510 b 664 532 299 -510 374 -379 l 817 524 b 799 606 815 558 807 597 z "},"g":{"ha":625,"x_min":0,"x_max":0,"o":"m -146 -414 b 71 -510 -119 -465 -19 -510 b 301 -401 138 -510 238 -472 b 601 181 435 -254 503 -86 b 726 493 629 256 664 349 b 619 526 713 507 669 524 b 432 217 581 424 511 306 b 238 60 363 139 269 60 b 232 74 235 60 232 61 b 643 586 232 244 510 586 b 682 578 657 586 672 583 b 574 667 668 643 638 667 b 121 176 376 667 121 392 b 232 0 121 89 169 11 b 419 131 281 19 376 85 b -29 -431 324 -222 163 -431 b -128 -385 -69 -431 -82 -424 b -146 -414 -137 -393 -146 -403 z "},"ğ":{"ha":625,"x_min":0,"x_max":0,"o":"m -146 -414 b 71 -510 -119 -465 -19 -510 b 301 -401 138 -510 238 -472 b 601 181 435 -254 503 -86 b 726 493 629 256 664 349 b 619 526 713 507 669 524 b 432 217 581 424 511 306 b 238 60 363 139 269 60 b 232 74 235 60 232 61 b 643 586 232 244 510 586 b 682 578 657 586 672 583 b 574 667 668 643 638 667 b 121 176 376 667 121 392 b 232 0 121 89 169 11 b 419 131 281 19 376 85 b -29 -431 324 -222 163 -431 b -128 -385 -69 -431 -82 -424 b -146 -414 -137 -393 -146 -403 z m 667 728 b 869 919 774 754 851 829 b 847 946 864 935 857 943 b 703 806 815 874 772 822 b 567 972 646 813 592 854 b 471 929 533 965 485 960 b 667 728 497 789 592 735 z "},"ĝ":{"ha":625,"x_min":0,"x_max":0,"o":"m -146 -414 b 71 -510 -119 -465 -19 -510 b 301 -401 138 -510 238 -472 b 601 181 435 -254 503 -86 b 726 493 629 256 664 349 b 619 526 713 507 669 524 b 432 217 581 424 511 306 b 238 60 363 139 269 60 b 232 74 235 60 232 61 b 643 586 232 244 510 586 b 682 578 657 586 672 583 b 574 667 668 643 638 667 b 121 176 376 667 121 392 b 232 0 121 89 169 11 b 419 131 281 19 376 85 b -29 -431 324 -222 163 -431 b -128 -385 -69 -431 -82 -424 b -146 -414 -137 -393 -146 -403 z m 721 990 b 682 992 711 992 704 992 b 597 972 644 992 615 985 l 601 950 b 403 808 542 879 478 835 b 478 772 425 785 450 772 b 636 850 522 772 585 804 b 781 706 675 767 732 706 b 793 707 786 706 790 706 b 721 990 751 750 733 822 z "},"ģ":{"ha":625,"x_min":0,"x_max":0,"o":"m -146 -414 b 71 -510 -119 -465 -19 -510 b 301 -401 138 -510 238 -472 b 601 181 435 -254 503 -86 b 726 493 629 256 664 349 b 619 526 713 507 669 524 b 432 217 581 424 511 306 b 238 60 363 139 269 60 b 232 74 235 60 232 61 b 643 586 232 244 510 586 b 682 578 657 586 672 583 b 574 667 668 643 638 667 b 121 176 376 667 121 392 b 232 0 121 89 169 11 b 419 131 281 19 376 85 b -29 -431 324 -222 163 -431 b -128 -385 -69 -431 -82 -424 b -146 -414 -137 -393 -146 -403 z m 793 1079 b 547 808 671 1024 571 892 b 744 710 557 763 650 715 b 728 819 733 750 728 786 b 815 1026 728 900 760 961 b 793 1079 815 1044 804 1069 z "},"ġ":{"ha":625,"x_min":0,"x_max":0,"o":"m -146 -414 b 71 -510 -119 -465 -19 -510 b 301 -401 138 -510 238 -472 b 601 181 435 -254 503 -86 b 726 493 629 256 664 349 b 619 526 713 507 669 524 b 432 217 581 424 511 306 b 238 60 363 139 269 60 b 232 74 235 60 232 61 b 643 586 232 244 510 586 b 682 578 657 586 672 583 b 574 667 668 643 638 667 b 121 176 376 667 121 392 b 232 0 121 89 169 11 b 419 131 281 19 376 85 b -29 -431 324 -222 163 -431 b -128 -385 -69 -431 -82 -424 b -146 -414 -137 -393 -146 -403 z m 640 744 b 682 707 640 729 660 711 b 839 900 696 738 797 861 b 671 997 811 942 714 997 b 628 815 647 938 628 847 b 644 769 628 800 635 779 b 640 744 642 758 640 750 z "},"`":{"ha":396,"x_min":0,"x_max":0,"o":"m 108 1013 b 28 854 69 989 28 906 b 292 729 169 760 233 729 b 368 756 322 729 346 738 b 108 1013 286 786 186 885 z "},">":{"ha":865,"x_min":0,"x_max":0,"o":"m 442 764 b 394 732 426 763 400 747 b 685 553 499 700 611 624 b 788 419 764 475 781 453 b 318 407 692 418 442 411 b 178 322 233 404 178 378 b 224 213 178 293 192 257 b 633 286 411 265 500 286 b 797 282 683 286 744 282 b 907 300 843 282 883 286 b 911 339 910 313 911 326 b 825 521 911 413 865 481 b 442 764 717 626 603 718 z "},"«":{"ha":1492,"x_min":0,"x_max":0,"o":"m 653 72 b 689 114 667 78 688 97 b 636 129 681 117 647 125 b 443 204 579 147 485 182 b 307 304 346 256 324 274 b 754 447 399 332 635 419 b 824 458 772 451 804 458 b 854 440 836 458 847 454 b 897 528 874 464 897 494 b 792 660 897 565 843 638 b 406 471 621 554 542 510 b 160 386 317 446 197 426 b 190 297 161 351 176 319 b 300 196 221 250 257 221 b 653 72 411 131 519 103 z m 1361 72 b 1397 114 1375 78 1396 97 b 1344 129 1389 117 1356 125 b 1151 204 1288 147 1193 182 b 1015 304 1054 256 1032 274 b 1463 447 1107 332 1343 419 b 1532 458 1481 451 1513 458 b 1563 440 1544 458 1556 454 b 1606 528 1582 464 1606 494 b 1500 660 1606 565 1551 638 b 1114 471 1329 554 1250 510 b 868 386 1025 446 906 426 b 899 297 869 351 885 319 b 1008 196 929 250 965 221 b 1361 72 1119 131 1228 103 z "},"»":{"ha":1449,"x_min":0,"x_max":0,"o":"m 268 607 b 232 563 254 601 233 579 b 561 472 340 561 471 521 b 697 372 658 421 681 403 b 250 229 606 344 367 268 b 135 131 182 207 135 172 b 213 17 135 97 158 60 b 599 206 383 122 463 167 b 844 290 688 231 807 250 b 704 481 840 382 763 446 b 268 607 568 546 436 607 z m 935 607 b 899 563 921 601 900 579 b 1228 472 1007 561 1138 521 b 1364 372 1325 421 1347 403 b 917 229 1272 344 1033 268 b 801 131 849 207 801 172 b 879 17 801 97 825 60 b 1265 206 1050 122 1129 167 b 1511 290 1354 231 1474 250 b 1371 481 1507 382 1429 446 b 935 607 1235 546 1103 607 z "},"‹":{"ha":783,"x_min":0,"x_max":0,"o":"m 653 72 b 689 114 667 78 688 97 b 636 129 681 117 647 125 b 443 204 579 147 485 182 b 307 304 346 256 324 274 b 754 447 399 332 635 419 b 824 458 772 451 804 458 b 854 440 836 458 847 454 b 897 528 874 464 897 494 b 792 660 897 565 843 638 b 406 471 621 554 542 510 b 160 386 317 446 197 426 b 190 297 161 351 176 319 b 300 196 221 250 257 221 b 653 72 411 131 519 103 z "},"›":{"ha":782,"x_min":0,"x_max":0,"o":"m 268 607 b 232 563 254 601 233 579 b 561 472 340 561 471 521 b 697 372 658 421 681 403 b 250 229 606 344 367 268 b 135 131 182 207 135 172 b 213 17 135 97 158 60 b 599 206 383 122 463 167 b 844 290 688 231 807 250 b 704 481 840 382 763 446 b 268 607 568 546 436 607 z "},"h":{"ha":718,"x_min":0,"x_max":0,"o":"m 133 24 b 176 -67 135 -6 164 -67 b 203 -40 183 -67 197 -53 b 565 457 286 156 433 358 b 619 490 585 472 614 490 b 625 485 621 490 625 486 b 468 74 535 303 468 128 b 543 -14 468 31 506 -14 b 678 50 572 -14 678 36 b 668 72 678 54 676 58 b 619 61 664 72 647 61 b 597 85 601 61 597 67 b 857 543 597 160 743 418 b 706 631 815 596 754 631 b 310 290 621 631 486 515 b 457 665 343 424 386 526 b 776 1086 522 793 638 944 b 601 1153 744 1121 660 1153 b 274 600 475 1008 349 796 b 133 24 189 382 133 154 z "},"ħ":{"ha":718,"x_min":0,"x_max":0,"o":"m 283 938 b 281 846 283 886 282 864 b 382 832 311 839 344 835 b 274 600 339 756 303 676 b 133 24 189 382 133 154 b 176 -67 138 -21 154 -51 b 203 -40 183 -67 197 -53 b 565 457 286 156 433 358 b 619 490 585 472 614 490 b 625 485 621 490 625 486 b 468 74 535 303 468 128 b 543 -14 468 31 506 -14 b 678 50 572 -14 678 36 b 668 72 678 54 676 58 b 619 61 664 72 647 61 b 597 85 601 61 597 67 b 857 543 597 160 743 418 b 706 631 815 596 754 631 b 310 290 621 631 486 515 b 457 665 343 424 386 526 b 557 828 483 717 517 771 b 764 840 628 829 697 833 b 735 961 764 879 750 938 b 650 947 707 956 679 951 b 776 1086 689 993 731 1040 b 601 1153 744 1121 660 1153 b 440 933 546 1090 492 1014 b 283 938 378 933 331 935 z "},"ĥ":{"ha":718,"x_min":0,"x_max":0,"o":"m 133 24 b 176 -67 135 -6 164 -67 b 203 -40 183 -67 197 -53 b 565 457 286 156 433 358 b 619 490 585 472 614 490 b 625 485 621 490 625 486 b 468 74 535 303 468 128 b 543 -14 468 31 506 -14 b 678 50 572 -14 678 36 b 668 72 678 54 676 58 b 619 61 664 72 647 61 b 597 85 601 61 597 67 b 857 543 597 160 743 418 b 706 631 815 596 754 631 b 310 290 621 631 486 515 b 457 665 343 424 386 526 b 776 1086 522 793 638 944 b 601 1153 744 1121 660 1153 b 274 600 475 1008 349 796 b 133 24 189 382 133 154 z m 871 1483 b 832 1485 861 1485 854 1485 b 747 1465 794 1485 765 1478 l 751 1443 b 553 1301 692 1372 628 1328 b 628 1265 575 1278 600 1265 b 786 1343 672 1265 735 1297 b 931 1199 825 1260 882 1199 b 943 1200 936 1199 940 1199 b 871 1483 901 1243 883 1315 z "},"˝":{"ha":506,"x_min":0,"x_max":0,"o":"m 154 996 b 28 744 119 883 83 801 b 78 729 44 735 60 729 b 269 910 136 729 213 807 b 154 996 247 956 196 986 z m 349 996 b 222 744 314 883 278 801 b 272 729 239 735 254 729 b 464 910 331 729 407 807 b 349 996 442 956 390 986 z "},"-":{"ha":731,"x_min":0,"x_max":0,"o":"m 283 258 b 663 297 394 258 503 297 b 758 290 685 297 713 296 b 682 414 746 369 717 414 b 296 386 632 414 483 386 b 197 392 251 386 228 386 b 189 350 194 382 189 358 b 283 258 189 293 226 258 z "},"i":{"ha":328,"x_min":0,"x_max":0,"o":"m 136 93 b 238 -25 136 11 224 -25 b 246 21 246 -25 246 -12 b 288 172 247 61 268 121 b 444 488 335 294 360 393 b 315 579 408 542 346 572 b 183 357 232 538 192 393 b 136 93 147 190 136 125 z m 401 696 b 443 658 401 681 421 663 b 600 851 457 689 558 813 b 432 949 572 893 475 949 b 389 767 408 889 389 799 b 406 721 389 751 396 731 b 401 696 403 710 401 701 z "},"í":{"ha":332,"x_min":0,"x_max":0,"o":"m 135 78 b 238 -42 135 -6 225 -42 b 246 6 246 -42 246 -28 b 285 157 246 50 265 93 b 436 472 322 278 354 376 b 306 561 400 525 336 557 b 181 339 222 522 188 372 b 135 78 146 175 135 111 z m 611 944 b 351 688 533 817 433 718 b 428 661 374 669 397 661 b 692 786 486 661 550 692 b 611 944 692 838 650 921 z "},"ĭ":{"ha":332,"x_min":0,"x_max":0,"o":"m 135 78 b 238 -42 135 -6 225 -42 b 246 6 246 -42 246 -28 b 285 157 246 50 265 93 b 436 472 322 278 354 376 b 306 561 400 525 336 557 b 181 339 222 522 188 372 b 135 78 146 175 135 111 z m 507 660 b 710 851 614 686 692 761 b 688 878 704 867 697 875 b 543 738 656 806 613 754 b 407 904 486 744 432 786 b 311 861 374 897 325 892 b 507 660 338 721 432 667 z "},"î":{"ha":418,"x_min":0,"x_max":0,"o":"m 131 78 b 233 -42 131 -6 221 -42 b 242 6 242 -42 242 -28 b 281 157 242 50 261 93 b 432 472 318 278 350 376 b 301 561 396 525 332 557 b 176 339 218 522 183 372 b 131 78 142 175 131 111 z m 557 922 b 518 924 547 924 540 924 b 433 904 481 924 451 917 l 438 882 b 239 740 378 811 314 767 b 314 704 261 717 286 704 b 472 782 358 704 421 736 b 617 638 511 699 568 638 b 629 639 622 638 626 638 b 557 922 588 682 569 754 z "},"ï":{"ha":332,"x_min":0,"x_max":0,"o":"m 135 78 b 238 -42 135 -6 225 -42 b 246 6 246 -42 246 -28 b 285 157 246 50 265 93 b 436 472 322 278 354 376 b 306 561 400 525 336 557 b 181 339 222 522 188 372 b 135 78 146 175 135 111 z m 350 772 b 421 690 358 739 382 707 b 525 843 439 706 525 842 b 431 904 507 874 454 901 b 350 772 361 900 350 829 z m 532 742 b 599 663 542 710 563 676 b 706 813 622 675 706 808 b 610 874 685 843 632 872 b 532 742 543 871 532 800 z "},"ì":{"ha":332,"x_min":0,"x_max":0,"o":"m 135 78 b 238 -42 135 -6 225 -42 b 246 6 246 -42 246 -28 b 285 157 246 50 265 93 b 436 472 322 278 354 376 b 306 561 400 525 336 557 b 181 339 222 522 188 372 b 135 78 146 175 135 111 z m 361 944 b 281 786 322 921 281 838 b 544 661 422 692 486 661 b 621 688 575 661 599 669 b 361 944 539 718 439 817 z "},"ĳ":{"ha":721,"x_min":0,"x_max":0,"o":"m 442 488 b 313 579 414 528 357 568 b 181 357 261 554 203 456 b 133 93 146 197 133 126 b 235 -25 133 44 193 -25 b 588 292 335 -25 443 72 b 242 -440 428 -310 365 -440 b 131 -393 194 -440 163 -426 b 107 -422 121 -394 108 -410 b 304 -503 139 -468 224 -503 b 754 392 469 -503 540 -364 b 858 618 774 460 803 529 b 760 656 824 642 788 656 b 604 392 707 656 658 575 b 279 47 492 200 347 47 b 258 78 265 47 258 58 b 442 488 258 151 367 394 z m 399 696 b 440 658 399 681 418 663 b 597 851 453 688 553 811 b 429 949 569 893 472 949 b 386 767 408 894 386 803 b 403 721 386 750 393 731 b 399 696 400 710 399 701 z m 788 765 b 829 726 788 749 807 731 b 986 919 842 756 942 879 b 818 1017 958 961 861 1017 b 775 836 797 964 775 869 b 792 789 775 818 782 799 b 788 765 789 778 788 769 z "},"ī":{"ha":332,"x_min":0,"x_max":0,"o":"m 135 78 b 238 -42 135 -6 225 -42 b 246 6 246 -42 246 -28 b 285 157 246 50 265 93 b 436 472 322 278 354 376 b 306 561 400 525 336 557 b 181 339 222 522 188 372 b 135 78 146 175 135 111 z m 265 804 b 263 713 265 753 264 731 b 474 694 319 700 388 694 b 688 707 546 694 619 699 b 663 828 688 746 675 804 b 392 800 582 810 492 800 b 265 804 349 800 307 801 z "},"į":{"ha":326,"x_min":0,"x_max":0,"o":"m -4 -217 b 142 -351 -4 -297 68 -346 b 299 -251 179 -347 261 -297 l 290 -235 b 142 -299 258 -258 189 -299 b 88 -233 110 -299 88 -282 b 238 -25 88 -122 171 -36 b 244 21 244 -24 244 -11 b 286 172 246 61 267 121 b 443 488 333 294 358 393 b 314 579 407 542 344 572 b 182 357 231 538 190 393 b 135 93 146 190 135 125 b 182 1 135 50 158 21 b -4 -217 83 -21 -4 -122 z m 400 696 b 442 658 400 681 419 663 b 599 851 456 689 557 813 b 431 949 571 893 474 949 b 388 767 407 889 388 799 b 404 721 388 751 394 731 b 400 696 401 710 400 701 z "},"ĩ":{"ha":332,"x_min":0,"x_max":0,"o":"m 135 78 b 238 -42 135 -6 225 -42 b 246 6 246 -42 246 -28 b 285 157 246 50 265 93 b 436 472 322 278 354 376 b 306 561 400 525 336 557 b 181 339 222 522 188 372 b 135 78 146 175 135 111 z m 235 799 b 433 675 247 735 319 675 b 647 717 494 675 565 688 b 600 842 640 754 622 817 b 363 776 506 797 433 776 b 235 799 321 776 279 783 z "},"j":{"ha":328,"x_min":0,"x_max":0,"o":"m 165 260 b -154 -440 14 -332 -36 -440 b -265 -393 -201 -440 -233 -426 b -289 -422 -275 -394 -287 -410 b -92 -503 -257 -468 -172 -503 b 175 -201 19 -503 93 -419 b 358 392 210 -108 296 171 b 463 618 374 449 403 513 b 369 656 426 643 396 656 b 165 260 297 656 235 533 z m 392 765 b 433 726 392 749 411 731 b 590 919 446 756 546 879 b 422 1017 563 961 465 1017 b 379 836 401 964 379 869 b 396 789 379 818 386 799 b 392 765 393 778 392 769 z "},"ĵ":{"ha":328,"x_min":0,"x_max":0,"o":"m 165 260 b -154 -440 14 -332 -36 -440 b -265 -393 -201 -440 -233 -426 b -289 -422 -275 -394 -287 -410 b -92 -503 -257 -468 -172 -503 b 175 -201 19 -503 93 -419 b 358 392 210 -108 296 171 b 463 618 374 449 403 513 b 369 656 426 643 396 656 b 165 260 297 656 235 533 z m 506 990 b 467 992 496 992 489 992 b 382 972 429 992 400 985 l 386 950 b 188 808 326 879 263 835 b 263 772 210 785 235 772 b 421 850 307 772 369 804 b 565 706 460 767 517 706 b 578 707 571 706 575 706 b 506 990 536 750 518 822 z "},"k":{"ha":717,"x_min":0,"x_max":0,"o":"m 138 131 b 167 8 138 65 150 21 b 201 -36 178 0 188 -14 b 254 -58 208 -49 225 -56 b 250 -26 251 -50 250 -37 b 326 257 250 58 283 182 b 642 586 433 443 568 583 b 657 575 650 586 657 581 b 535 371 657 517 615 449 b 425 278 492 329 450 294 b 500 -24 444 164 472 51 b 629 -169 535 -117 579 -169 b 771 -94 690 -169 754 -132 b 529 257 642 -21 567 129 b 743 531 639 279 743 413 b 682 649 743 579 722 619 b 308 308 571 644 428 514 b 749 1014 396 581 582 881 b 618 1156 749 1065 669 1151 b 138 131 478 1058 138 332 z "},"ķ":{"ha":717,"x_min":0,"x_max":0,"o":"m 138 131 b 167 8 138 65 150 21 b 201 -36 178 0 188 -14 b 254 -58 208 -49 225 -56 b 250 -26 251 -50 250 -37 b 326 257 250 58 283 182 b 642 586 433 443 568 583 b 657 575 650 586 657 581 b 535 371 657 517 615 449 b 425 278 492 329 450 294 b 500 -24 444 164 472 51 b 629 -169 535 -117 579 -169 b 771 -94 690 -169 754 -132 b 529 257 642 -21 567 129 b 743 531 639 279 743 413 b 682 649 743 579 722 619 b 308 308 571 644 428 514 b 749 1014 396 581 582 881 b 618 1156 749 1065 669 1151 b 138 131 478 1058 138 332 z m 153 -486 b 399 -215 275 -431 375 -299 b 201 -117 389 -169 296 -122 b 218 -226 213 -157 218 -193 b 131 -433 218 -307 186 -368 b 153 -486 131 -451 142 -476 z "},"ĸ":{"ha":721,"x_min":0,"x_max":0,"o":"m 142 131 b 171 8 142 65 154 21 b 206 -36 182 0 192 -14 b 258 -58 213 -49 229 -56 b 254 -26 256 -50 254 -37 b 331 257 254 58 288 182 b 646 586 438 443 572 583 b 661 575 654 586 661 581 b 539 371 661 517 619 449 b 429 278 496 329 454 294 b 504 -24 449 164 476 51 b 633 -169 539 -117 583 -169 b 775 -94 694 -169 758 -132 b 533 257 646 -21 571 129 b 747 531 643 279 747 413 b 686 649 747 579 726 619 b 313 308 575 644 432 514 b 489 667 347 442 428 603 b 372 781 489 707 418 776 b 142 131 307 721 142 257 z "},"l":{"ha":328,"x_min":0,"x_max":0,"o":"m 133 89 b 163 -35 133 29 146 -24 b 200 -75 175 -43 196 -65 b 251 -101 206 -87 226 -99 b 250 -61 250 -94 250 -93 b 369 453 250 56 292 236 b 710 1065 461 707 565 894 b 554 1153 694 1089 599 1144 b 244 518 458 1036 358 829 b 133 89 174 324 133 169 z "},"ĺ":{"ha":328,"x_min":0,"x_max":0,"o":"m 133 89 b 163 -35 133 29 146 -24 b 200 -75 175 -43 196 -65 b 251 -101 206 -87 226 -99 b 250 -61 250 -94 250 -93 b 369 453 250 56 292 236 b 710 1065 461 707 565 894 b 554 1153 694 1089 599 1144 b 244 518 458 1036 358 829 b 133 89 174 324 133 169 z m 918 1506 b 658 1249 840 1378 740 1279 b 735 1222 681 1231 704 1222 b 999 1347 793 1222 857 1253 b 918 1506 999 1399 957 1482 z "},"ľ":{"ha":328,"x_min":0,"x_max":0,"o":"m 133 89 b 163 -35 133 29 146 -24 b 200 -75 175 -43 196 -65 b 251 -101 206 -87 226 -99 b 250 -61 250 -94 250 -93 b 369 453 250 56 292 236 b 710 1065 461 707 565 894 b 554 1153 694 1089 599 1144 b 244 518 458 1036 358 829 b 133 89 174 324 133 169 z m 726 731 b 958 1057 847 794 924 904 b 761 1156 947 1103 856 1150 b 769 1033 767 1111 769 1071 b 704 783 769 936 750 861 b 726 731 704 765 715 740 z "},"ļ":{"ha":328,"x_min":0,"x_max":0,"o":"m 133 89 b 163 -35 133 29 146 -24 b 200 -75 175 -43 196 -65 b 251 -101 206 -87 226 -99 b 250 -61 250 -94 250 -93 b 369 453 250 56 292 236 b 710 1065 461 707 565 894 b 554 1153 694 1089 599 1144 b 244 518 458 1036 358 829 b 133 89 174 324 133 169 z m -15 -486 b 231 -215 107 -431 207 -299 b 33 -117 221 -169 128 -122 b 50 -226 44 -157 50 -193 b -37 -433 50 -307 18 -368 b -15 -486 -37 -451 -26 -476 z "},"ŀ":{"ha":450,"x_min":0,"x_max":0,"o":"m 133 89 b 163 -35 133 29 146 -24 b 200 -75 175 -43 196 -65 b 251 -101 206 -87 226 -99 b 250 -61 250 -94 250 -93 b 369 453 250 56 292 236 b 710 1065 461 707 565 894 b 554 1153 694 1089 599 1144 b 244 518 458 1036 358 829 b 133 89 174 324 133 169 z m 469 265 b 590 379 496 265 564 317 b 439 464 563 424 474 464 b 404 311 432 438 404 349 b 469 265 411 290 446 269 z "},"<":{"ha":717,"x_min":0,"x_max":0,"o":"m 740 265 b 756 308 747 274 756 293 b 754 319 756 313 756 315 b 503 293 700 310 578 293 b 328 324 388 293 354 304 b 740 692 428 418 685 692 b 760 685 747 692 753 690 b 768 744 764 703 768 724 b 608 856 768 796 697 856 b 343 517 500 685 449 611 b 158 333 274 456 175 385 b 429 219 213 233 339 219 b 740 265 533 219 628 239 z "},"¬":{"ha":836,"x_min":0,"x_max":0,"o":"m 807 456 b 814 551 807 478 808 506 b 313 506 710 525 597 506 b 214 511 268 506 244 506 b 206 469 211 501 206 478 b 306 375 206 396 243 375 b 700 417 397 375 540 417 b 722 224 713 356 722 289 b 713 115 722 186 719 150 b 754 107 722 113 746 107 b 833 217 817 107 833 154 b 807 456 833 294 807 394 z "},"ł":{"ha":410,"x_min":0,"x_max":0,"o":"m 194 89 b 224 -35 194 29 207 -24 b 261 -75 236 -43 257 -65 b 313 -101 267 -87 288 -99 b 311 -61 311 -94 311 -93 b 431 453 311 56 353 236 b 489 600 449 504 468 553 b 658 650 540 618 597 635 b 635 721 654 669 644 697 b 535 703 601 715 568 710 b 771 1065 601 839 678 956 b 615 1153 756 1089 660 1144 b 358 657 535 1054 450 892 b 169 592 296 639 232 617 b 217 488 181 549 196 500 b 311 532 246 503 278 518 b 194 89 239 340 194 169 z "},"m":{"ha":1063,"x_min":0,"x_max":0,"o":"m 938 426 b 825 99 901 350 825 225 b 940 -42 825 22 853 -42 b 1063 10 988 -42 1025 -19 b 1051 39 1063 18 1063 32 b 999 26 1042 39 1021 26 b 967 74 978 26 967 35 b 1140 536 968 206 1107 426 b 1054 593 1128 574 1092 593 b 631 182 949 593 811 429 b 801 539 643 260 783 465 b 689 586 797 550 735 586 b 275 169 569 586 381 318 b 472 582 296 322 436 468 b 336 661 426 628 388 650 b 156 276 274 551 197 411 b 119 90 133 206 121 135 b 190 -35 129 40 142 0 b 325 156 210 -22 257 60 b 629 471 429 301 572 468 b 454 64 515 308 474 179 b 539 -33 467 17 499 -17 b 938 426 628 75 849 419 z "},"¯":{"ha":481,"x_min":0,"x_max":0,"o":"m 31 872 b 28 781 31 821 29 799 b 239 763 85 768 153 763 b 453 775 311 763 385 767 b 428 896 453 814 440 872 b 157 868 347 878 257 868 b 31 872 114 868 72 869 z "},"−":{"ha":881,"x_min":0,"x_max":0,"o":"m 326 258 b 767 297 456 258 581 297 b 878 290 792 297 824 296 b 789 414 863 369 829 414 b 340 386 731 414 558 386 b 226 393 289 386 261 388 b 217 350 224 383 217 358 b 326 258 217 293 260 258 z "},"µ":{"ha":721,"x_min":0,"x_max":0,"o":"m 533 31 b 665 -24 576 1 640 -24 b 671 -18 665 -24 671 -22 b 640 110 671 0 640 31 b 815 574 640 256 747 411 b 683 618 799 594 732 618 b 575 432 621 558 592 478 b 439 214 544 350 476 265 b 297 53 363 110 325 64 b 288 78 294 56 288 64 b 346 294 288 126 328 253 b 522 615 429 492 506 597 b 389 658 494 647 421 658 b 76 -199 201 481 76 -128 b 247 -361 76 -299 129 -342 b 257 -329 251 -353 256 -337 b 185 -208 207 -317 185 -274 b 232 14 185 -154 201 -81 b 290 -28 239 -17 269 -26 b 350 15 301 -26 328 -10 b 496 193 382 50 481 194 b 489 143 492 181 489 164 b 533 31 489 111 499 60 z "},"n":{"ha":750,"x_min":0,"x_max":0,"o":"m 360 674 b 208 407 344 667 279 569 b 104 39 146 264 104 108 b 168 -69 113 -3 129 -47 b 261 43 190 -57 221 -14 b 485 303 333 143 399 219 b 597 382 539 356 593 382 b 521 132 533 235 521 178 b 653 -15 521 50 546 -15 b 772 42 685 -15 744 17 b 760 69 772 50 767 65 b 701 56 747 69 721 56 b 667 110 679 56 667 64 b 811 472 667 224 761 407 b 851 507 836 501 851 503 b 753 582 833 542 800 582 b 461 369 663 582 532 444 b 276 157 429 336 335 219 b 475 540 288 242 433 439 b 360 674 456 601 408 658 z "},"ń":{"ha":750,"x_min":0,"x_max":0,"o":"m 360 674 b 208 407 344 667 279 569 b 104 39 146 264 104 108 b 168 -69 113 -3 129 -47 b 261 43 190 -57 221 -14 b 485 303 333 143 399 219 b 597 382 539 356 593 382 b 521 132 533 235 521 178 b 653 -15 521 50 546 -15 b 772 42 685 -15 744 17 b 760 69 772 50 767 65 b 701 56 747 69 721 56 b 667 110 679 56 667 64 b 811 472 667 224 761 407 b 851 507 836 501 851 503 b 753 582 833 542 800 582 b 461 369 663 582 532 444 b 276 157 429 336 335 219 b 475 540 288 242 433 439 b 360 674 456 601 408 658 z m 813 982 b 553 725 735 854 635 756 b 629 699 575 707 599 699 b 893 824 688 699 751 729 b 813 982 893 875 851 958 z "},"ŉ":{"ha":750,"x_min":0,"x_max":0,"o":"m 360 674 b 208 407 344 667 279 569 b 104 39 146 264 104 108 b 168 -69 113 -3 129 -47 b 261 43 190 -57 221 -14 b 485 303 333 143 399 219 b 597 382 539 356 593 382 b 521 132 533 235 521 178 b 653 -15 521 50 546 -15 b 772 42 685 -15 744 17 b 760 69 772 50 767 65 b 701 56 747 69 721 56 b 667 110 679 56 667 64 b 811 472 667 224 761 407 b 851 507 836 501 851 503 b 753 582 833 542 800 582 b 461 369 663 582 532 444 b 276 157 429 336 335 219 b 475 540 288 242 433 439 b 360 674 456 601 408 658 z m 326 732 b 558 1058 447 796 524 906 b 361 1157 547 1104 456 1151 b 369 1035 367 1113 369 1072 b 304 785 369 938 350 863 b 326 732 304 767 315 742 z "},"ň":{"ha":750,"x_min":0,"x_max":0,"o":"m 360 674 b 208 407 344 667 279 569 b 104 39 146 264 104 108 b 168 -69 113 -3 129 -47 b 261 43 190 -57 221 -14 b 485 303 333 143 399 219 b 597 382 539 356 593 382 b 521 132 533 235 521 178 b 653 -15 521 50 546 -15 b 772 42 685 -15 744 17 b 760 69 772 50 767 65 b 701 56 747 69 721 56 b 667 110 679 56 667 64 b 811 472 667 224 761 407 b 851 507 836 501 851 503 b 753 582 833 542 800 582 b 461 369 663 582 532 444 b 276 157 429 336 335 219 b 475 540 288 242 433 439 b 360 674 456 601 408 658 z m 678 671 b 882 858 753 775 813 829 b 807 926 854 896 825 924 b 669 793 767 906 726 865 b 515 963 619 906 568 963 b 492 960 510 963 506 963 b 588 711 546 893 576 815 b 678 671 607 693 628 683 z "},"ņ":{"ha":750,"x_min":0,"x_max":0,"o":"m 360 674 b 208 407 344 667 279 569 b 104 39 146 264 104 108 b 168 -69 113 -3 129 -47 b 261 43 190 -57 221 -14 b 485 303 333 143 399 219 b 597 382 539 356 593 382 b 521 132 533 235 521 178 b 653 -15 521 50 546 -15 b 772 42 685 -15 744 17 b 760 69 772 50 767 65 b 701 56 747 69 721 56 b 667 110 679 56 667 64 b 811 472 667 224 761 407 b 851 507 836 501 851 503 b 753 582 833 542 800 582 b 461 369 663 582 532 444 b 276 157 429 336 335 219 b 475 540 288 242 433 439 b 360 674 456 601 408 658 z m 185 -486 b 431 -215 307 -431 407 -299 b 233 -117 421 -169 328 -122 b 250 -226 244 -157 250 -193 b 163 -433 250 -307 218 -368 b 185 -486 163 -451 174 -476 z "},"ṅ":{"ha":750,"x_min":0,"x_max":0,"o":"m 360 674 b 208 407 344 667 279 569 b 104 39 146 264 104 108 b 168 -69 113 -3 129 -47 b 261 43 190 -57 221 -14 b 485 303 333 143 399 219 b 597 382 539 356 593 382 b 521 132 533 235 521 178 b 653 -15 521 50 546 -15 b 772 42 685 -15 744 17 b 760 69 772 50 767 65 b 701 56 747 69 721 56 b 667 110 679 56 667 64 b 811 472 667 224 761 407 b 851 507 836 501 851 503 b 753 582 833 542 800 582 b 461 369 663 582 532 444 b 276 157 429 336 335 219 b 475 540 288 242 433 439 b 360 674 456 601 408 658 z m 599 711 b 640 674 599 696 618 678 b 797 867 654 704 756 828 b 629 964 769 908 672 964 b 586 782 606 904 586 814 b 603 736 586 767 593 746 b 599 711 600 725 599 717 z "},"ñ":{"ha":750,"x_min":0,"x_max":0,"o":"m 360 674 b 208 407 344 667 279 569 b 104 39 146 264 104 108 b 168 -69 113 -3 129 -47 b 261 43 190 -57 221 -14 b 485 303 333 143 399 219 b 597 382 539 356 593 382 b 521 132 533 235 521 178 b 653 -15 521 50 546 -15 b 772 42 685 -15 744 17 b 760 69 772 50 767 65 b 701 56 747 69 721 56 b 667 110 679 56 667 64 b 811 472 667 224 761 407 b 851 507 836 501 851 503 b 753 582 833 542 800 582 b 461 369 663 582 532 444 b 276 157 429 336 335 219 b 475 540 288 242 433 439 b 360 674 456 601 408 658 z m 436 836 b 635 713 449 772 521 713 b 849 754 696 713 767 725 b 801 879 842 792 824 854 b 564 814 707 835 635 814 b 436 836 522 814 481 821 z "},"o":{"ha":613,"x_min":0,"x_max":0,"o":"m 299 -49 b 681 429 521 -1 681 197 b 607 560 681 518 657 560 b 582 558 599 560 590 558 b 494 657 554 607 524 642 b 351 600 451 657 401 638 b 125 176 221 504 125 325 b 299 -49 125 51 193 -37 z m 369 389 b 561 532 415 449 481 508 b 579 439 574 513 579 486 b 293 8 579 222 458 44 b 257 107 275 14 257 63 b 369 389 257 181 306 304 z "},"ó":{"ha":613,"x_min":0,"x_max":0,"o":"m 299 -49 b 681 429 521 -1 681 197 b 607 560 681 518 657 560 b 582 558 599 560 590 558 b 494 657 554 607 524 642 b 351 600 451 657 401 638 b 125 176 221 504 125 325 b 299 -49 125 51 193 -37 z m 369 389 b 561 532 415 449 481 508 b 579 439 574 513 579 486 b 293 8 579 222 458 44 b 257 107 275 14 257 63 b 369 389 257 181 306 304 z m 806 996 b 546 739 728 868 628 769 b 622 713 568 721 592 713 b 886 838 681 713 744 743 b 806 996 886 889 844 972 z "},"ŏ":{"ha":613,"x_min":0,"x_max":0,"o":"m 299 -49 b 681 429 521 -1 681 197 b 607 560 681 518 657 560 b 582 558 599 560 590 558 b 494 657 554 607 524 642 b 351 600 451 657 401 638 b 125 176 221 504 125 325 b 299 -49 125 51 193 -37 z m 369 389 b 561 532 415 449 481 508 b 579 439 574 513 579 486 b 293 8 579 222 458 44 b 257 107 275 14 257 63 b 369 389 257 181 306 304 z m 701 711 b 904 903 808 738 886 813 b 882 929 899 918 892 926 b 738 789 850 857 807 806 b 601 956 681 796 626 838 b 506 913 568 949 519 943 b 701 711 532 772 626 718 z "},"ô":{"ha":613,"x_min":0,"x_max":0,"o":"m 299 -49 b 681 429 521 -1 681 197 b 607 560 681 518 657 560 b 582 558 599 560 590 558 b 494 657 554 607 524 642 b 351 600 451 657 401 638 b 125 176 221 504 125 325 b 299 -49 125 51 193 -37 z m 369 389 b 561 532 415 449 481 508 b 579 439 574 513 579 486 b 293 8 579 222 458 44 b 257 107 275 14 257 63 b 369 389 257 181 306 304 z m 756 974 b 717 975 746 975 739 975 b 632 956 679 975 650 968 l 636 933 b 438 792 576 863 513 818 b 513 756 460 768 485 756 b 671 833 557 756 619 788 b 815 689 710 750 767 689 b 828 690 821 689 825 689 b 756 974 786 733 768 806 z "},"ö":{"ha":613,"x_min":0,"x_max":0,"o":"m 299 -49 b 681 429 521 -1 681 197 b 607 560 681 518 657 560 b 582 558 599 560 590 558 b 494 657 554 607 524 642 b 351 600 451 657 401 638 b 125 176 221 504 125 325 b 299 -49 125 51 193 -37 z m 369 389 b 561 532 415 449 481 508 b 579 439 574 513 579 486 b 293 8 579 222 458 44 b 257 107 275 14 257 63 b 369 389 257 181 306 304 z m 544 824 b 615 742 553 790 576 758 b 719 894 633 757 719 893 b 625 956 701 925 649 953 b 544 824 556 951 544 881 z m 726 793 b 793 714 736 761 757 728 b 900 864 817 726 900 860 b 804 925 879 894 826 924 b 726 793 738 922 726 851 z "},"œ":{"ha":1007,"x_min":0,"x_max":0,"o":"m 1106 572 b 972 649 1054 632 1025 649 b 678 469 874 649 763 574 b 607 560 671 531 649 560 b 582 558 599 560 590 558 b 494 657 554 607 524 642 b 351 600 451 657 401 638 b 125 176 221 504 125 325 b 299 -49 125 51 193 -37 b 553 97 399 -26 486 25 b 728 -53 574 25 640 -33 b 1025 125 817 -43 931 25 b 1004 151 1019 135 1013 143 b 735 15 940 94 831 39 b 682 113 693 33 682 74 b 688 168 682 132 685 151 b 1106 572 965 243 1094 358 z m 369 389 b 561 532 415 449 481 508 b 579 439 574 513 579 486 b 293 8 579 222 458 44 b 257 107 275 14 257 63 b 369 389 257 181 306 304 z m 1003 522 b 704 221 983 397 858 278 b 1003 522 765 388 901 518 z "},"˛":{"ha":358,"x_min":0,"x_max":0,"o":"m 56 -210 b 201 -344 56 -290 128 -339 b 358 -244 239 -340 321 -290 b 350 -228 358 -244 354 -236 b 201 -292 318 -251 249 -292 b 147 -226 169 -292 147 -275 b 297 -18 147 -115 231 -29 l 271 13 b 56 -210 161 6 56 -107 z "},"ò":{"ha":613,"x_min":0,"x_max":0,"o":"m 299 -49 b 681 429 521 -1 681 197 b 607 560 681 518 657 560 b 582 558 599 560 590 558 b 494 657 554 607 524 642 b 351 600 451 657 401 638 b 125 176 221 504 125 325 b 299 -49 125 51 193 -37 z m 369 389 b 561 532 415 449 481 508 b 579 439 574 513 579 486 b 293 8 579 222 458 44 b 257 107 275 14 257 63 b 369 389 257 181 306 304 z m 556 996 b 475 838 517 972 475 889 b 739 713 617 743 681 713 b 815 739 769 713 793 721 b 556 996 733 769 633 868 z "},"ő":{"ha":613,"x_min":0,"x_max":0,"o":"m 299 -49 b 681 429 521 -1 681 197 b 607 560 681 518 657 560 b 582 558 599 560 590 558 b 494 657 554 607 524 642 b 351 600 451 657 401 638 b 125 176 221 504 125 325 b 299 -49 125 51 193 -37 z m 369 389 b 561 532 415 449 481 508 b 579 439 574 513 579 486 b 293 8 579 222 458 44 b 257 107 275 14 257 63 b 369 389 257 181 306 304 z m 614 979 b 488 728 579 867 543 785 b 538 713 504 718 519 713 b 729 893 596 713 672 790 b 614 979 707 939 656 969 z m 808 979 b 682 728 774 867 738 785 b 732 713 699 718 714 713 b 924 893 790 713 867 790 b 808 979 901 939 850 969 z "},"ō":{"ha":613,"x_min":0,"x_max":0,"o":"m 299 -49 b 681 429 521 -1 681 197 b 607 560 681 518 657 560 b 582 558 599 560 590 558 b 494 657 554 607 524 642 b 351 600 451 657 401 638 b 125 176 221 504 125 325 b 299 -49 125 51 193 -37 z m 369 389 b 561 532 415 449 481 508 b 579 439 574 513 579 486 b 293 8 579 222 458 44 b 257 107 275 14 257 63 b 369 389 257 181 306 304 z m 460 856 b 457 764 460 804 458 782 b 668 746 514 751 582 746 b 882 758 740 746 814 750 b 857 879 882 797 869 856 b 586 851 776 861 686 851 b 460 856 543 851 501 853 z "},"ǫ":{"ha":613,"x_min":0,"x_max":0,"o":"m 82 -233 b 228 -368 82 -314 154 -362 b 385 -268 265 -364 347 -314 l 376 -251 b 228 -315 344 -275 275 -315 b 174 -250 196 -315 174 -299 b 301 -47 174 -150 239 -71 b 681 429 522 0 681 197 b 607 560 681 518 657 560 b 582 558 599 560 590 558 b 494 657 554 607 524 642 b 351 600 451 657 401 638 b 125 176 221 504 125 325 b 231 -28 125 81 164 6 b 82 -233 149 -64 82 -151 z m 369 389 b 561 532 415 449 481 508 b 579 439 574 513 579 486 b 293 8 579 222 458 44 b 257 107 275 14 257 63 b 369 389 257 181 306 304 z "},"ø":{"ha":614,"x_min":0,"x_max":0,"o":"m 299 -49 b 681 429 521 -1 681 197 b 676 482 681 449 679 467 b 796 647 718 536 757 592 b 704 696 783 678 749 696 b 632 556 692 657 665 608 b 607 560 625 558 617 560 b 582 558 599 560 590 558 b 494 657 554 607 524 642 b 351 600 451 657 401 638 b 125 176 221 504 125 325 b 167 28 125 117 140 67 b 44 -53 121 -8 78 -37 b 81 -106 46 -79 60 -101 b 208 -15 119 -82 163 -51 b 299 -49 233 -33 264 -44 z m 369 389 b 561 532 415 449 481 508 b 578 474 569 518 575 500 b 257 107 489 349 368 211 b 369 389 257 181 306 304 z m 572 353 b 293 8 546 176 436 39 b 269 36 285 11 276 21 b 572 353 367 122 471 232 z "},"ǿ":{"ha":614,"x_min":0,"x_max":0,"o":"m 299 -49 b 681 429 521 -1 681 197 b 676 482 681 449 679 467 b 796 647 718 536 757 592 b 704 696 783 678 749 696 b 632 556 692 657 665 608 b 607 560 625 558 617 560 b 582 558 599 560 590 558 b 494 657 554 607 524 642 b 351 600 451 657 401 638 b 125 176 221 504 125 325 b 167 28 125 117 140 67 b 44 -53 121 -8 78 -37 b 81 -106 46 -79 60 -101 b 208 -15 119 -82 163 -51 b 299 -49 233 -33 264 -44 z m 369 389 b 561 532 415 449 481 508 b 578 474 569 518 575 500 b 257 107 489 349 368 211 b 369 389 257 181 306 304 z m 572 353 b 293 8 546 176 436 39 b 269 36 285 11 276 21 b 572 353 367 122 471 232 z m 806 1001 b 546 744 728 874 628 775 b 622 718 568 726 592 718 b 886 843 681 718 744 749 b 806 1001 886 894 844 978 z "},"õ":{"ha":613,"x_min":0,"x_max":0,"o":"m 299 -49 b 681 429 521 -1 681 197 b 607 560 681 518 657 560 b 582 558 599 560 590 558 b 494 657 554 607 524 642 b 351 600 451 657 401 638 b 125 176 221 504 125 325 b 299 -49 125 51 193 -37 z m 369 389 b 561 532 415 449 481 508 b 579 439 574 513 579 486 b 293 8 579 222 458 44 b 257 107 275 14 257 63 b 369 389 257 181 306 304 z m 429 850 b 628 726 442 786 514 726 b 842 768 689 726 760 739 b 794 893 835 806 817 868 b 557 828 700 849 628 828 b 429 850 515 828 474 835 z "},"p":{"ha":692,"x_min":0,"x_max":0,"o":"m 33 -460 b 61 -486 42 -464 46 -469 b 88 -508 69 -501 78 -507 b 292 168 153 -236 239 50 b 475 436 329 256 343 272 b 654 582 531 506 583 544 b 328 26 610 344 471 111 b 397 -10 336 6 364 -10 b 647 144 468 -10 583 63 b 776 519 729 250 776 386 b 656 624 776 581 726 624 b 481 514 611 624 549 585 b 376 386 419 450 394 417 b 542 701 403 483 489 653 b 397 761 529 724 461 751 b 297 594 364 732 311 638 b 136 165 278 533 238 421 b 1 -318 56 -39 1 -239 b 11 -418 1 -360 4 -394 b 33 -460 13 -440 22 -457 z "},"(":{"ha":443,"x_min":0,"x_max":0,"o":"m 350 -182 b 296 228 315 -99 296 79 b 801 1036 296 568 510 985 b 675 1183 797 1058 728 1163 b 193 246 438 1061 193 699 b 333 -200 193 28 249 -100 z "},")":{"ha":447,"x_min":0,"x_max":0,"o":"m 393 1096 b 447 686 428 1013 447 835 b -58 -122 447 346 233 -71 b 68 -269 -54 -144 15 -249 b 550 668 306 -147 550 215 b 410 1114 550 886 494 1014 z "},".":{"ha":335,"x_min":0,"x_max":0,"o":"m 174 -53 b 319 83 206 -53 288 8 b 136 186 285 136 179 186 b 96 1 128 153 96 47 b 174 -53 104 -24 144 -49 z "},"·":{"ha":315,"x_min":0,"x_max":0,"o":"m 256 265 b 376 379 282 265 350 317 b 225 464 349 424 260 464 b 190 311 218 438 190 349 b 256 265 197 290 232 269 z "},"+":{"ha":774,"x_min":0,"x_max":0,"o":"m 446 54 b 540 299 474 139 506 222 b 721 311 594 306 654 311 b 832 304 746 311 778 310 b 743 428 817 383 783 428 b 600 415 717 428 667 421 b 715 581 636 479 674 535 b 547 668 700 604 592 660 b 418 403 506 614 461 518 b 294 400 379 400 338 400 b 181 407 243 400 215 401 b 171 364 178 397 171 372 b 281 272 171 307 214 272 b 375 278 311 272 343 274 b 331 119 360 226 344 174 b 446 54 368 86 410 60 z "},"±":{"ha":857,"x_min":0,"x_max":0,"o":"m 522 235 b 617 454 554 321 585 393 b 781 464 667 460 721 464 b 892 457 806 464 838 463 b 803 581 876 536 843 581 b 685 571 779 581 739 575 b 792 706 718 619 753 663 b 624 793 776 729 668 785 b 494 556 582 744 538 660 b 354 553 450 554 403 553 b 240 560 303 553 275 554 b 231 517 238 550 231 525 b 340 425 231 460 274 425 b 447 432 375 425 411 428 b 407 300 433 389 419 344 b 522 235 444 267 486 240 z m 285 64 b 725 103 414 64 539 103 b 836 96 750 103 782 101 b 747 219 821 175 788 219 b 299 192 689 219 517 192 b 185 199 247 192 219 193 b 175 156 182 189 175 164 b 285 64 175 99 218 64 z "},"q":{"ha":628,"x_min":0,"x_max":0,"o":"m 690 617 b 646 583 679 617 650 594 b 526 681 639 625 579 675 b 196 419 381 654 271 568 b 128 203 157 340 128 250 b 260 8 128 128 208 8 b 397 117 283 13 333 51 b 251 -436 310 -89 261 -274 b 281 -472 254 -453 267 -468 b 310 -496 294 -476 307 -487 b 335 -510 311 -503 324 -510 b 360 -504 349 -510 356 -508 b 540 90 383 -343 451 -118 b 772 581 593 213 635 303 b 690 617 757 600 719 617 z m 442 246 b 268 75 388 174 335 122 b 256 85 261 75 256 79 b 399 450 256 192 307 324 b 572 576 450 522 525 576 b 629 564 593 576 624 569 b 442 246 629 564 564 413 z "},"?":{"ha":667,"x_min":0,"x_max":0,"o":"m 574 1079 b 310 794 475 1067 338 918 b 474 731 322 761 401 731 b 506 733 483 731 490 731 b 501 758 503 738 501 744 b 649 963 501 838 592 963 b 750 844 699 963 750 903 b 532 608 750 781 678 694 b 272 247 350 500 272 332 b 443 138 294 196 381 140 b 440 167 442 149 440 158 b 572 406 440 235 486 325 b 854 810 751 575 854 668 b 574 1079 854 947 718 1068 z m 267 -107 b 383 25 319 -107 342 -21 b 256 113 360 69 290 113 b 181 -26 201 113 181 7 b 267 -107 181 -82 239 -107 z "},"¿":{"ha":656,"x_min":0,"x_max":0,"o":"m 276 -504 b 540 -219 375 -492 513 -343 b 376 -156 528 -186 449 -156 b 344 -158 367 -156 360 -156 b 349 -183 347 -162 349 -169 b 201 -387 349 -262 258 -387 b 100 -269 151 -387 100 -328 b 318 -33 100 -206 172 -119 b 578 328 500 75 578 243 b 407 438 556 379 469 435 b 410 408 408 426 410 417 b 278 169 410 340 364 250 b -4 -235 99 0 -4 -93 b 276 -504 -4 -372 132 -493 z m 575 513 b 693 644 631 513 650 597 b 556 732 668 689 607 732 b 490 579 514 732 490 625 b 575 513 490 560 532 513 z "},"\"":{"ha":510,"x_min":0,"x_max":0,"o":"m 340 704 b 542 1069 447 774 511 903 b 347 1157 518 1115 435 1151 b 364 1010 360 1104 364 1056 b 318 757 364 907 340 821 b 340 704 318 738 329 714 z m 590 704 b 792 1069 697 774 761 903 b 597 1157 768 1115 685 1151 b 614 1010 610 1104 614 1056 b 568 757 614 907 590 821 b 590 704 568 738 579 714 z "},"„":{"ha":611,"x_min":0,"x_max":0,"o":"m 24 -235 b 311 92 172 -171 268 -61 b 114 190 301 138 208 185 b 131 50 126 139 131 106 b 1 -182 131 -35 93 -103 b 24 -235 1 -200 13 -225 z m 301 -235 b 589 92 450 -171 546 -61 b 392 190 579 138 486 185 b 408 50 404 139 408 106 b 279 -182 408 -35 371 -103 b 301 -235 279 -200 290 -225 z "},"“":{"ha":588,"x_min":0,"x_max":0,"o":"m 876 1157 b 589 831 728 1093 632 983 b 786 732 599 785 692 738 b 769 872 774 783 769 817 b 899 1104 769 957 807 1025 b 876 1157 899 1122 888 1147 z m 599 1157 b 311 831 450 1093 354 983 b 508 732 321 785 414 738 b 492 872 496 783 492 817 b 621 1104 492 957 529 1025 b 599 1157 621 1122 610 1147 z "},"”":{"ha":572,"x_min":0,"x_max":0,"o":"m 315 732 b 603 1058 464 796 560 906 b 406 1157 593 1104 500 1151 b 422 1017 418 1106 422 1072 b 293 785 422 932 385 864 b 315 732 293 767 304 742 z m 593 732 b 881 1058 742 796 838 906 b 683 1157 871 1104 778 1151 b 700 1017 696 1106 700 1072 b 571 785 700 932 663 864 b 593 732 571 767 582 742 z "},"‘":{"ha":315,"x_min":0,"x_max":0,"o":"m 547 1156 b 315 829 426 1092 350 982 b 513 731 326 783 418 736 b 504 853 507 775 504 815 b 569 1103 504 950 524 1025 b 547 1156 569 1121 558 1146 z "},"’":{"ha":271,"x_min":0,"x_max":0,"o":"m 333 731 b 565 1057 454 794 531 904 b 368 1156 554 1103 463 1150 b 376 1033 374 1111 376 1071 b 311 783 376 936 357 861 b 333 731 311 765 322 740 z "},"‚":{"ha":333,"x_min":0,"x_max":0,"o":"m 24 -235 b 311 92 172 -171 268 -61 b 114 190 301 138 208 185 b 131 50 126 139 131 106 b 1 -182 131 -35 93 -103 b 24 -235 1 -200 13 -225 z "},"'":{"ha":260,"x_min":0,"x_max":0,"o":"m 340 704 b 542 1069 447 774 511 903 b 347 1157 518 1115 435 1151 b 364 1010 360 1104 364 1056 b 318 757 364 907 340 821 b 340 704 318 738 329 714 z "},"r":{"ha":560,"x_min":0,"x_max":0,"o":"m 101 28 b 215 -47 114 0 182 -44 b 504 428 269 208 329 307 b 614 300 522 374 564 325 b 671 376 642 328 669 365 b 653 468 658 397 653 428 b 678 600 653 513 661 556 b 615 624 669 614 642 624 b 586 617 600 624 593 622 b 346 353 519 517 444 442 b 469 600 385 471 419 542 b 331 667 447 626 382 658 b 268 558 308 644 292 615 b 101 28 201 400 119 136 z "},"ŕ":{"ha":560,"x_min":0,"x_max":0,"o":"m 101 28 b 215 -47 114 0 182 -44 b 504 428 269 208 329 307 b 614 300 522 374 564 325 b 671 376 642 328 669 365 b 653 468 658 397 653 428 b 678 600 653 513 661 556 b 615 624 669 614 642 624 b 586 617 600 624 593 622 b 346 353 519 517 444 442 b 469 600 385 471 419 542 b 331 667 447 626 382 658 b 268 558 308 644 292 615 b 101 28 201 400 119 136 z m 718 1013 b 458 756 640 885 540 786 b 535 729 481 738 504 729 b 799 854 593 729 657 760 b 718 1013 799 906 757 989 z "},"ř":{"ha":560,"x_min":0,"x_max":0,"o":"m 101 28 b 215 -47 114 0 182 -44 b 504 428 269 208 329 307 b 614 300 522 374 564 325 b 671 376 642 328 669 365 b 653 468 658 397 653 428 b 678 600 653 513 661 556 b 615 624 669 614 642 624 b 586 617 600 624 593 622 b 346 353 519 517 444 442 b 469 600 385 471 419 542 b 331 667 447 626 382 658 b 268 558 308 644 292 615 b 101 28 201 400 119 136 z m 583 701 b 788 889 658 806 718 860 b 713 957 760 926 731 954 b 575 824 672 936 632 896 b 421 993 525 936 474 993 b 397 990 415 993 411 993 b 493 742 451 924 482 846 b 583 701 513 724 533 714 z "},"ŗ":{"ha":560,"x_min":0,"x_max":0,"o":"m 101 28 b 215 -47 114 0 182 -44 b 504 428 269 208 329 307 b 614 300 522 374 564 325 b 671 376 642 328 669 365 b 653 468 658 397 653 428 b 678 600 653 513 661 556 b 615 624 669 614 642 624 b 586 617 600 624 593 622 b 346 353 519 517 444 442 b 469 600 385 471 419 542 b 331 667 447 626 382 658 b 268 558 308 644 292 615 b 101 28 201 400 119 136 z m -32 -486 b 214 -215 90 -431 190 -299 b 17 -117 204 -169 111 -122 b 33 -226 28 -157 33 -193 b -54 -433 33 -307 1 -368 b -32 -486 -54 -451 -43 -476 z "},"˚":{"ha":347,"x_min":0,"x_max":0,"o":"m 304 810 b 319 868 315 832 319 850 b 181 986 319 932 257 986 b 28 851 111 986 28 932 b 172 728 28 783 100 728 b 304 810 228 728 276 763 z m 261 881 b 156 763 261 832 222 763 b 108 832 122 763 108 793 b 207 942 108 892 167 942 b 261 881 242 942 261 913 z "},"s":{"ha":481,"x_min":0,"x_max":0,"o":"m 614 553 b 454 715 603 596 496 704 b 271 489 357 694 271 588 b 314 236 271 411 314 331 b 28 -36 153 225 28 106 b 160 -144 43 -87 107 -140 b 399 125 308 -129 399 -29 b 397 175 399 147 397 161 b 490 218 397 196 404 199 b 496 236 493 221 496 229 b 494 247 496 243 496 244 b 397 244 465 247 436 246 b 396 261 396 247 396 250 b 510 535 396 439 436 535 b 543 489 529 535 543 515 b 521 414 543 467 521 425 b 539 393 522 401 528 394 b 614 553 568 393 610 482 z m 156 -81 b 128 -31 138 -68 128 -51 b 319 164 128 33 247 154 b 156 -81 319 68 244 -44 z "},"ś":{"ha":481,"x_min":0,"x_max":0,"o":"m 614 553 b 454 715 603 596 496 704 b 271 489 357 694 271 588 b 314 236 271 411 314 331 b 28 -36 153 225 28 106 b 160 -144 43 -87 107 -140 b 399 125 308 -129 399 -29 b 397 175 399 147 397 161 b 490 218 397 196 404 199 b 496 236 493 221 496 229 b 494 247 496 243 496 244 b 397 244 465 247 436 246 b 396 261 396 247 396 250 b 510 535 396 439 436 535 b 543 489 529 535 543 515 b 521 414 543 467 521 425 b 539 393 522 401 528 394 b 614 553 568 393 610 482 z m 156 -81 b 128 -31 138 -68 128 -51 b 319 164 128 33 247 154 b 156 -81 319 68 244 -44 z m 750 1035 b 490 778 672 907 572 808 b 567 751 513 760 536 751 b 831 876 625 751 689 782 b 750 1035 831 928 789 1011 z "},"š":{"ha":481,"x_min":0,"x_max":0,"o":"m 614 553 b 454 715 603 596 496 704 b 271 489 357 694 271 588 b 314 236 271 411 314 331 b 28 -36 153 225 28 106 b 160 -144 43 -87 107 -140 b 399 125 308 -129 399 -29 b 397 175 399 147 397 161 b 490 218 397 196 404 199 b 496 236 493 221 496 229 b 494 247 496 243 496 244 b 397 244 465 247 436 246 b 396 261 396 247 396 250 b 510 535 396 439 436 535 b 543 489 529 535 543 515 b 521 414 543 467 521 425 b 539 393 522 401 528 394 b 614 553 568 393 610 482 z m 156 -81 b 128 -31 138 -68 128 -51 b 319 164 128 33 247 154 b 156 -81 319 68 244 -44 z m 615 724 b 819 911 690 828 750 882 b 744 979 792 949 763 976 b 607 846 704 958 664 918 b 453 1015 557 958 506 1015 b 429 1013 447 1015 443 1015 b 525 764 483 946 514 868 b 615 724 544 746 565 736 z "},"ə":{"ha":560,"x_min":0,"x_max":0,"o":"m 122 21 b 242 -58 160 -26 200 -53 b 633 438 425 -58 633 210 b 431 650 633 549 558 636 b 153 442 343 631 236 551 b 176 418 160 433 167 426 b 431 581 235 481 331 581 b 494 469 483 581 494 517 b 493 433 494 457 493 444 b 122 21 257 339 136 249 z m 218 67 b 482 381 225 193 335 307 b 218 67 438 208 319 81 z "},"ŝ":{"ha":481,"x_min":0,"x_max":0,"o":"m 614 553 b 454 715 603 596 496 704 b 271 489 357 694 271 588 b 314 236 271 411 314 331 b 28 -36 153 225 28 106 b 160 -144 43 -87 107 -140 b 399 125 308 -129 399 -29 b 397 175 399 147 397 161 b 490 218 397 196 404 199 b 496 236 493 221 496 229 b 494 247 496 243 496 244 b 397 244 465 247 436 246 b 396 261 396 247 396 250 b 510 535 396 439 436 535 b 543 489 529 535 543 515 b 521 414 543 467 521 425 b 539 393 522 401 528 394 b 614 553 568 393 610 482 z m 156 -81 b 128 -31 138 -68 128 -51 b 319 164 128 33 247 154 b 156 -81 319 68 244 -44 z m 700 1013 b 661 1014 690 1014 683 1014 b 576 994 624 1014 594 1007 l 581 972 b 382 831 521 901 457 857 b 457 794 404 807 429 794 b 615 872 501 794 564 826 b 760 728 654 789 711 728 b 772 729 765 728 769 728 b 700 1013 731 772 713 844 z "},";":{"ha":394,"x_min":0,"x_max":0,"o":"m 54 -235 b 342 92 203 -171 299 -61 b 144 190 332 138 239 185 b 161 50 157 139 161 106 b 32 -182 161 -35 124 -103 b 54 -235 32 -200 43 -225 z m 332 389 b 478 525 364 389 446 450 b 294 628 443 578 338 628 b 254 443 286 594 254 489 b 332 389 263 418 303 393 z "}," ":{"ha":331,"x_min":0,"x_max":0,"o":""},"t":{"ha":489,"x_min":0,"x_max":0,"o":"m 296 532 b 174 83 225 361 174 174 b 371 -64 174 18 279 -61 b 522 38 401 -61 501 6 b 513 58 521 43 517 51 b 367 -1 474 28 422 6 b 321 67 338 3 321 25 b 468 539 321 181 376 361 b 633 567 532 540 589 550 b 618 606 633 582 626 597 b 504 600 579 601 540 600 b 640 801 550 678 585 732 b 496 851 622 822 533 851 b 329 606 465 835 385 715 b 199 614 292 607 247 611 b 217 532 199 589 208 543 z "},"ŧ":{"ha":497,"x_min":0,"x_max":0,"o":"m 303 532 b 249 390 283 485 265 438 b 143 397 214 392 178 394 b 161 315 143 371 153 326 b 226 317 183 315 206 317 b 181 83 197 221 181 136 b 378 -64 181 18 286 -61 b 529 38 408 -61 508 6 b 519 58 528 43 524 51 b 374 -1 481 28 429 6 b 328 67 344 3 328 25 b 382 325 328 133 347 225 b 571 349 460 331 517 338 b 556 389 571 363 564 381 b 404 386 497 388 463 386 b 475 539 425 436 449 488 b 640 567 539 540 596 550 b 625 606 640 582 633 597 b 511 600 586 601 547 600 b 647 801 557 678 592 732 b 503 851 629 822 540 851 b 336 606 472 835 392 715 b 206 614 299 607 254 611 b 224 532 206 589 215 543 z "},"ť":{"ha":489,"x_min":0,"x_max":0,"o":"m 296 532 b 174 83 225 361 174 174 b 371 -64 174 18 279 -61 b 522 38 401 -61 501 6 b 513 58 521 43 517 51 b 367 -1 474 28 422 6 b 321 67 338 3 321 25 b 468 539 321 181 376 361 b 633 567 532 540 589 550 b 618 606 633 582 626 597 b 504 600 579 601 540 600 b 640 801 550 678 585 732 b 496 851 622 822 533 851 b 329 606 465 835 385 715 b 199 614 292 607 247 611 b 217 532 199 589 208 543 z m 706 732 b 938 1058 826 796 903 906 b 740 1157 926 1104 835 1151 b 749 1035 746 1113 749 1072 b 683 785 749 938 729 863 b 706 732 683 767 694 742 z "},"þ":{"ha":692,"x_min":0,"x_max":0,"o":"m 376 386 b 736 1065 468 661 625 974 b 593 1153 719 1094 631 1147 b 297 594 514 1079 396 838 b 136 165 274 535 238 421 b 1 -318 56 -39 1 -239 b 11 -418 1 -360 4 -394 b 33 -460 13 -440 22 -457 b 61 -486 42 -464 46 -469 b 88 -508 69 -501 78 -507 b 292 168 153 -236 239 50 b 475 436 329 256 343 272 b 654 582 531 506 583 544 b 328 26 610 344 471 111 b 397 -10 336 6 364 -10 b 647 144 468 -10 583 63 b 776 519 729 250 776 386 b 656 624 776 581 726 624 b 481 514 611 624 549 585 b 376 386 419 450 394 417 z "},"˜":{"ha":513,"x_min":0,"x_max":0,"o":"m 50 867 b 249 743 63 803 135 743 b 463 785 310 743 381 756 b 415 910 456 822 438 885 b 178 844 321 865 249 844 b 50 867 136 844 94 851 z "},"u":{"ha":686,"x_min":0,"x_max":0,"o":"m 513 31 b 644 -24 556 1 619 -24 b 650 -18 644 -24 650 -22 b 619 110 650 0 619 31 b 794 574 619 256 726 411 b 663 618 778 594 711 618 b 554 432 600 558 571 478 b 418 214 524 350 456 265 b 276 53 342 110 304 64 b 267 78 274 56 267 64 b 325 294 267 126 307 253 b 501 615 408 492 485 597 b 378 658 474 647 410 658 b 129 199 261 574 163 339 b 118 81 121 160 118 132 b 269 -28 133 15 211 -25 b 329 15 282 -26 306 -10 b 475 193 360 51 460 194 b 468 143 471 181 468 164 b 513 31 468 111 478 60 z "},"ú":{"ha":686,"x_min":0,"x_max":0,"o":"m 513 31 b 644 -24 556 1 619 -24 b 650 -18 644 -24 650 -22 b 619 110 650 0 619 31 b 794 574 619 256 726 411 b 663 618 778 594 711 618 b 554 432 600 558 571 478 b 418 214 524 350 456 265 b 276 53 342 110 304 64 b 267 78 274 56 267 64 b 325 294 267 126 307 253 b 501 615 408 492 485 597 b 378 658 474 647 410 658 b 129 199 261 574 163 339 b 118 81 121 160 118 132 b 269 -28 133 15 211 -25 b 329 15 282 -26 306 -10 b 475 193 360 51 460 194 b 468 143 471 181 468 164 b 513 31 468 111 478 60 z m 789 1013 b 529 756 711 885 611 786 b 606 729 551 738 575 729 b 869 854 664 729 728 760 b 789 1013 869 906 828 989 z "},"ŭ":{"ha":686,"x_min":0,"x_max":0,"o":"m 513 31 b 644 -24 556 1 619 -24 b 650 -18 644 -24 650 -22 b 619 110 650 0 619 31 b 794 574 619 256 726 411 b 663 618 778 594 711 618 b 554 432 600 558 571 478 b 418 214 524 350 456 265 b 276 53 342 110 304 64 b 267 78 274 56 267 64 b 325 294 267 126 307 253 b 501 615 408 492 485 597 b 378 658 474 647 410 658 b 129 199 261 574 163 339 b 118 81 121 160 118 132 b 269 -28 133 15 211 -25 b 329 15 282 -26 306 -10 b 475 193 360 51 460 194 b 468 143 471 181 468 164 b 513 31 468 111 478 60 z m 685 728 b 888 919 792 754 869 829 b 865 946 882 935 875 943 b 721 806 833 874 790 822 b 585 972 664 813 610 854 b 489 929 551 965 503 960 b 685 728 515 789 610 735 z "},"û":{"ha":686,"x_min":0,"x_max":0,"o":"m 513 31 b 644 -24 556 1 619 -24 b 650 -18 644 -24 650 -22 b 619 110 650 0 619 31 b 794 574 619 256 726 411 b 663 618 778 594 711 618 b 554 432 600 558 571 478 b 418 214 524 350 456 265 b 276 53 342 110 304 64 b 267 78 274 56 267 64 b 325 294 267 126 307 253 b 501 615 408 492 485 597 b 378 658 474 647 410 658 b 129 199 261 574 163 339 b 118 81 121 160 118 132 b 269 -28 133 15 211 -25 b 329 15 282 -26 306 -10 b 475 193 360 51 460 194 b 468 143 471 181 468 164 b 513 31 468 111 478 60 z m 739 990 b 700 992 729 992 722 992 b 615 972 663 992 633 985 l 619 950 b 421 808 560 879 496 835 b 496 772 443 785 468 772 b 654 850 540 772 603 804 b 799 706 693 767 750 706 b 811 707 804 706 808 706 b 739 990 769 750 751 822 z "},"ü":{"ha":686,"x_min":0,"x_max":0,"o":"m 513 31 b 644 -24 556 1 619 -24 b 650 -18 644 -24 650 -22 b 619 110 650 0 619 31 b 794 574 619 256 726 411 b 663 618 778 594 711 618 b 554 432 600 558 571 478 b 418 214 524 350 456 265 b 276 53 342 110 304 64 b 267 78 274 56 267 64 b 325 294 267 126 307 253 b 501 615 408 492 485 597 b 378 658 474 647 410 658 b 129 199 261 574 163 339 b 118 81 121 160 118 132 b 269 -28 133 15 211 -25 b 329 15 282 -26 306 -10 b 475 193 360 51 460 194 b 468 143 471 181 468 164 b 513 31 468 111 478 60 z m 528 840 b 599 758 536 807 560 775 b 703 911 617 774 703 910 b 608 972 685 942 632 969 b 528 840 539 968 528 897 z m 710 810 b 776 731 719 778 740 744 b 883 881 800 743 883 876 b 788 942 863 911 810 940 b 710 810 721 939 710 868 z "},"ù":{"ha":686,"x_min":0,"x_max":0,"o":"m 513 31 b 644 -24 556 1 619 -24 b 650 -18 644 -24 650 -22 b 619 110 650 0 619 31 b 794 574 619 256 726 411 b 663 618 778 594 711 618 b 554 432 600 558 571 478 b 418 214 524 350 456 265 b 276 53 342 110 304 64 b 267 78 274 56 267 64 b 325 294 267 126 307 253 b 501 615 408 492 485 597 b 378 658 474 647 410 658 b 129 199 261 574 163 339 b 118 81 121 160 118 132 b 269 -28 133 15 211 -25 b 329 15 282 -26 306 -10 b 475 193 360 51 460 194 b 468 143 471 181 468 164 b 513 31 468 111 478 60 z m 539 1013 b 458 854 500 989 458 906 b 722 729 600 760 664 729 b 799 756 753 729 776 738 b 539 1013 717 786 617 885 z "},"ű":{"ha":686,"x_min":0,"x_max":0,"o":"m 513 31 b 644 -24 556 1 619 -24 b 650 -18 644 -24 650 -22 b 619 110 650 0 619 31 b 794 574 619 256 726 411 b 663 618 778 594 711 618 b 554 432 600 558 571 478 b 418 214 524 350 456 265 b 276 53 342 110 304 64 b 267 78 274 56 267 64 b 325 294 267 126 307 253 b 501 615 408 492 485 597 b 378 658 474 647 410 658 b 129 199 261 574 163 339 b 118 81 121 160 118 132 b 269 -28 133 15 211 -25 b 329 15 282 -26 306 -10 b 475 193 360 51 460 194 b 468 143 471 181 468 164 b 513 31 468 111 478 60 z m 597 996 b 471 744 563 883 526 801 b 521 729 488 735 503 729 b 713 910 579 729 656 807 b 597 996 690 956 639 986 z m 792 996 b 665 744 757 883 721 801 b 715 729 682 735 697 729 b 907 910 774 729 850 807 b 792 996 885 956 833 986 z "},"ū":{"ha":686,"x_min":0,"x_max":0,"o":"m 513 31 b 644 -24 556 1 619 -24 b 650 -18 644 -24 650 -22 b 619 110 650 0 619 31 b 794 574 619 256 726 411 b 663 618 778 594 711 618 b 554 432 600 558 571 478 b 418 214 524 350 456 265 b 276 53 342 110 304 64 b 267 78 274 56 267 64 b 325 294 267 126 307 253 b 501 615 408 492 485 597 b 378 658 474 647 410 658 b 129 199 261 574 163 339 b 118 81 121 160 118 132 b 269 -28 133 15 211 -25 b 329 15 282 -26 306 -10 b 475 193 360 51 460 194 b 468 143 471 181 468 164 b 513 31 468 111 478 60 z m 443 872 b 440 781 443 821 442 799 b 651 763 497 768 565 763 b 865 775 724 763 797 767 b 840 896 865 814 853 872 b 569 868 760 878 669 868 b 443 872 526 868 485 869 z "},"_":{"ha":790,"x_min":0,"x_max":0,"o":"m 174 -142 b 644 -103 313 -142 446 -103 b 763 -110 672 -103 706 -104 b 668 14 747 -31 711 14 b 189 -14 607 14 422 -14 b 67 -7 135 -14 106 -12 b 57 -50 64 -17 57 -42 b 174 -142 57 -107 103 -142 z "}," ":{"ha":331,"x_min":0,"x_max":0,"o":""},"­":{"ha":731,"x_min":0,"x_max":0,"o":"m 283 258 b 663 297 394 258 503 297 b 758 290 685 297 713 296 b 682 414 746 369 717 414 b 296 386 632 414 483 386 b 197 392 251 386 228 386 b 189 350 194 382 189 358 b 283 258 189 293 226 258 z "},"Ş":{"ha":972,"x_min":0,"x_max":0,"o":"m 1044 936 b 690 1025 929 988 811 1025 b 496 989 625 1025 556 1014 b 313 736 378 940 313 840 b 646 431 313 604 411 533 b 944 228 803 363 942 301 b 690 63 940 185 897 63 b 381 147 596 63 482 88 b 213 351 272 211 218 296 b 139 190 157 289 139 228 b 468 -75 139 76 300 -26 b 347 -265 410 -146 358 -232 b 358 -282 349 -271 353 -279 b 519 -233 403 -265 489 -239 b 350 -422 471 -312 436 -350 b 379 -472 350 -433 372 -472 b 646 -242 424 -472 646 -279 b 565 -174 646 -228 582 -174 b 426 -210 531 -174 461 -192 b 501 -85 440 -176 469 -129 b 658 -106 556 -97 610 -106 b 1003 232 871 -106 1003 42 b 729 538 1003 396 917 450 b 386 775 579 607 397 694 b 622 881 388 840 493 881 b 978 738 753 881 904 839 b 1053 879 1024 760 1053 818 b 1044 936 1053 899 1050 904 z "},"ş":{"ha":485,"x_min":0,"x_max":0,"o":"m 615 553 b 456 715 604 596 497 704 b 272 489 358 694 272 588 b 315 236 272 411 315 331 b 29 -36 154 225 29 106 b 161 -144 44 -87 108 -140 b 74 -297 129 -196 79 -272 l 85 -314 b 246 -265 129 -297 215 -271 b 76 -454 197 -344 163 -382 b 106 -504 76 -465 99 -504 b 372 -274 150 -504 372 -311 b 292 -206 372 -260 308 -206 b 153 -242 257 -206 188 -224 b 215 -133 165 -212 189 -172 b 400 125 331 -101 400 -8 b 399 175 400 147 399 161 b 492 218 399 196 406 199 b 497 236 494 221 497 229 b 496 247 497 243 497 244 b 399 244 467 247 438 246 b 397 261 397 247 397 250 b 511 535 397 439 438 535 b 544 489 531 535 544 515 b 522 414 544 467 522 425 b 540 393 524 401 529 394 b 615 553 569 393 611 482 z m 157 -81 b 129 -31 139 -68 129 -51 b 321 164 129 33 249 154 b 157 -81 321 68 246 -44 z "},"Ţ":{"ha":818,"x_min":0,"x_max":0,"o":"m 417 842 b 619 858 471 842 542 849 b 514 542 597 772 553 647 b 332 0 413 263 363 115 b 379 -61 346 -24 363 -44 b 247 -265 317 -135 260 -229 b 258 -282 249 -271 253 -279 b 419 -233 303 -265 389 -239 b 250 -422 371 -312 336 -350 b 279 -472 250 -433 272 -472 b 546 -242 324 -472 546 -279 b 465 -174 546 -228 482 -174 b 326 -210 431 -174 361 -192 b 404 -82 340 -175 371 -126 b 488 -117 429 -100 457 -111 b 633 446 513 40 553 200 b 803 881 675 572 750 775 b 983 892 864 888 925 892 b 1115 885 1017 892 1068 889 b 1007 1025 1100 969 1075 1025 b 450 986 958 1025 640 986 b 314 1001 388 986 338 990 b 301 949 307 988 301 963 b 417 842 301 889 343 842 z "},"ţ":{"ha":489,"x_min":0,"x_max":0,"o":"m 296 532 b 174 83 225 361 174 174 b 276 -37 174 40 218 -8 b 147 -239 215 -111 158 -204 b 158 -256 149 -244 153 -253 b 319 -207 203 -239 289 -212 b 150 -396 271 -286 236 -324 b 179 -446 150 -407 172 -446 b 446 -215 224 -446 446 -253 b 365 -147 446 -201 382 -147 b 226 -183 331 -147 261 -165 b 307 -50 240 -149 272 -97 b 371 -64 328 -58 350 -62 b 522 38 401 -61 501 6 b 513 58 521 43 517 51 b 367 -1 474 28 422 6 b 321 67 338 3 321 25 b 468 539 321 181 376 361 b 633 567 532 540 589 550 b 618 606 633 582 626 597 b 504 600 579 601 540 600 b 640 801 550 678 585 732 b 496 851 622 822 533 851 b 329 606 465 835 385 715 b 199 614 292 607 247 611 b 217 532 199 589 208 543 z "},"Ș":{"ha":974,"x_min":0,"x_max":0,"o":"m 1046 936 b 692 1025 931 988 813 1025 b 497 989 626 1025 557 1014 b 314 736 379 940 314 840 b 647 431 314 604 413 533 b 946 228 804 363 943 301 b 692 63 942 185 899 63 b 382 147 597 63 483 88 b 214 351 274 211 219 296 b 140 190 158 289 140 228 b 660 -106 140 32 454 -106 b 1004 232 872 -106 1004 42 b 731 538 1004 396 918 450 b 388 775 581 607 399 694 b 624 881 389 840 494 881 b 979 738 754 881 906 839 b 1054 879 1025 760 1054 818 b 1046 936 1054 899 1051 904 z m 325 -482 b 571 -211 447 -426 547 -294 b 374 -112 561 -165 468 -118 b 390 -222 385 -153 390 -189 b 303 -429 390 -303 358 -364 b 325 -482 303 -447 314 -472 z "},"ș":{"ha":482,"x_min":0,"x_max":0,"o":"m 615 553 b 456 715 604 596 497 704 b 272 489 358 694 272 588 b 315 236 272 411 315 331 b 29 -36 154 225 29 106 b 161 -144 44 -87 108 -140 b 400 125 310 -129 400 -29 b 399 175 400 147 399 161 b 492 218 399 196 406 199 b 497 236 494 221 497 229 b 496 247 497 243 497 244 b 399 244 467 247 438 246 b 397 261 397 247 397 250 b 511 535 397 439 438 535 b 544 489 531 535 544 515 b 522 414 544 467 522 425 b 540 393 524 401 529 394 b 615 553 569 393 611 482 z m 157 -81 b 129 -31 139 -68 129 -51 b 321 164 129 33 249 154 b 157 -81 321 68 246 -44 z m -36 -500 b 210 -229 86 -444 186 -312 b 13 -131 200 -183 107 -136 b 29 -240 24 -171 29 -207 b -58 -447 29 -321 -3 -382 b -36 -500 -58 -465 -47 -490 z "},"Ț":{"ha":818,"x_min":0,"x_max":0,"o":"m 417 842 b 619 858 471 842 542 849 b 514 542 597 772 553 647 b 332 0 413 263 363 115 b 488 -117 374 -68 424 -107 b 633 446 513 40 553 200 b 803 881 675 572 750 775 b 983 892 864 888 925 892 b 1115 885 1017 892 1068 889 b 1007 1025 1100 969 1075 1025 b 450 986 958 1025 640 986 b 314 1001 388 986 338 990 b 301 949 307 988 301 963 b 417 842 301 889 343 842 z m 225 -486 b 471 -215 347 -431 447 -299 b 274 -117 461 -169 368 -122 b 290 -226 285 -157 290 -193 b 203 -433 290 -307 258 -368 b 225 -486 203 -451 214 -476 z "},"ț":{"ha":489,"x_min":0,"x_max":0,"o":"m 296 532 b 174 83 225 361 174 174 b 371 -64 174 18 279 -61 b 522 38 401 -61 501 6 b 513 58 521 43 517 51 b 367 -1 474 28 422 6 b 321 67 338 3 321 25 b 468 539 321 181 376 361 b 633 567 532 540 589 550 b 618 606 633 582 626 597 b 504 600 579 601 540 600 b 640 801 550 678 585 732 b 496 851 622 822 533 851 b 329 606 465 835 385 715 b 199 614 292 607 247 611 b 217 532 199 589 208 543 z m 93 -486 b 339 -215 215 -431 315 -299 b 142 -117 329 -169 236 -122 b 158 -226 153 -157 158 -193 b 71 -433 158 -307 126 -368 b 93 -486 71 -451 82 -476 z "},"μ":{"ha":683,"x_min":0,"x_max":0,"o":"m 510 31 b 642 -24 553 1 617 -24 b 647 -18 642 -24 647 -22 b 617 110 647 0 617 31 b 792 574 617 256 724 411 b 660 618 775 594 708 618 b 551 432 597 558 568 478 b 415 214 521 350 453 265 b 274 53 339 110 301 64 b 264 78 271 56 264 64 b 322 294 264 126 304 253 b 499 615 406 492 482 597 b 365 658 471 647 397 658 b 53 -199 178 481 53 -128 b 224 -361 53 -299 106 -342 b 233 -329 228 -353 232 -337 b 161 -208 183 -317 161 -274 b 208 14 161 -154 178 -81 b 267 -28 215 -17 246 -26 b 326 15 278 -26 304 -10 b 472 193 358 50 457 194 b 465 143 468 181 465 164 b 510 31 465 111 475 60 z "},"∙":{"ha":315,"x_min":0,"x_max":0,"o":"m 256 265 b 376 379 282 265 350 317 b 225 464 349 424 260 464 b 190 311 218 438 190 349 b 256 265 197 290 232 269 z "},"ų":{"ha":686,"x_min":0,"x_max":0,"o":"m 406 -214 b 551 -349 406 -294 478 -343 b 708 -249 589 -344 671 -294 l 700 -232 b 551 -296 668 -256 599 -296 b 497 -231 519 -296 497 -279 b 650 -18 497 -117 581 -36 b 619 110 650 0 619 31 b 794 574 619 256 726 411 b 663 618 778 594 711 618 b 554 432 600 558 571 478 b 418 214 524 350 456 265 b 276 53 342 110 304 64 b 267 78 274 56 267 64 b 325 294 267 126 307 253 b 501 615 408 492 485 597 b 378 658 474 647 410 658 b 129 199 261 574 163 339 b 118 81 121 160 118 132 b 269 -28 133 15 211 -25 b 329 15 282 -26 306 -10 b 475 193 360 51 460 194 b 468 143 471 181 468 164 b 513 31 468 111 478 60 b 571 -1 529 18 550 7 b 406 -214 481 -33 406 -126 z "},"ů":{"ha":686,"x_min":0,"x_max":0,"o":"m 513 31 b 644 -24 556 1 619 -24 b 650 -18 644 -24 650 -22 b 619 110 650 0 619 31 b 794 574 619 256 726 411 b 663 618 778 594 711 618 b 554 432 600 558 571 478 b 418 214 524 350 456 265 b 276 53 342 110 304 64 b 267 78 274 56 267 64 b 325 294 267 126 307 253 b 501 615 408 492 485 597 b 378 658 474 647 410 658 b 129 199 261 574 163 339 b 118 81 121 160 118 132 b 269 -28 133 15 211 -25 b 329 15 282 -26 306 -10 b 475 193 360 51 460 194 b 468 143 471 181 468 164 b 513 31 468 111 478 60 z m 767 810 b 782 868 778 832 782 850 b 643 986 782 932 719 986 b 490 851 574 986 490 932 b 635 728 490 783 563 728 b 767 810 690 728 739 763 z m 724 881 b 618 763 724 832 685 763 b 571 832 585 763 571 793 b 669 942 571 892 629 942 b 724 881 704 942 724 913 z "},"ũ":{"ha":686,"x_min":0,"x_max":0,"o":"m 513 31 b 644 -24 556 1 619 -24 b 650 -18 644 -24 650 -22 b 619 110 650 0 619 31 b 794 574 619 256 726 411 b 663 618 778 594 711 618 b 554 432 600 558 571 478 b 418 214 524 350 456 265 b 276 53 342 110 304 64 b 267 78 274 56 267 64 b 325 294 267 126 307 253 b 501 615 408 492 485 597 b 378 658 474 647 410 658 b 129 199 261 574 163 339 b 118 81 121 160 118 132 b 269 -28 133 15 211 -25 b 329 15 282 -26 306 -10 b 475 193 360 51 460 194 b 468 143 471 181 468 164 b 513 31 468 111 478 60 z m 413 867 b 611 743 425 803 497 743 b 825 785 672 743 743 756 b 778 910 818 822 800 885 b 540 844 683 865 611 844 b 413 867 499 844 457 851 z "},"v":{"ha":622,"x_min":0,"x_max":0,"o":"m 211 492 b 215 328 211 458 215 389 b 165 18 215 118 165 64 b 243 -67 165 -15 194 -49 b 538 190 368 10 449 86 b 778 632 625 290 771 474 b 692 664 767 644 715 664 b 551 331 657 532 596 407 b 336 60 486 222 390 101 b 332 65 333 60 332 60 b 369 382 363 164 367 256 b 390 592 372 507 375 531 b 311 611 375 606 338 611 b 211 492 226 611 211 560 z "},"w":{"ha":882,"x_min":0,"x_max":0,"o":"m 147 57 b 229 -53 147 3 171 -35 b 385 169 288 26 314 75 b 522 319 419 214 493 306 b 493 183 519 289 514 265 b 478 50 482 139 478 104 b 551 -39 478 -1 508 -39 b 765 151 590 -39 696 76 b 1032 650 936 335 1014 444 b 1001 657 1026 654 1015 657 b 913 631 969 657 924 646 b 790 272 878 449 861 381 b 622 69 733 185 639 76 b 749 565 647 203 689 489 b 654 596 744 588 690 596 b 631 594 644 596 636 596 b 571 475 594 558 582 508 b 486 349 556 432 544 403 b 326 160 444 310 388 240 b 468 574 347 297 360 486 b 372 608 461 594 413 608 b 221 472 297 608 244 558 b 147 57 185 342 147 131 z "},"ẃ":{"ha":882,"x_min":0,"x_max":0,"o":"m 147 57 b 229 -53 147 3 171 -35 b 385 169 288 26 314 75 b 522 319 419 214 493 306 b 493 183 519 289 514 265 b 478 50 482 139 478 104 b 551 -39 478 -1 508 -39 b 765 151 590 -39 696 76 b 1032 650 936 335 1014 444 b 1001 657 1026 654 1015 657 b 913 631 969 657 924 646 b 790 272 878 449 861 381 b 622 69 733 185 639 76 b 749 565 647 203 689 489 b 654 596 744 588 690 596 b 631 594 644 596 636 596 b 571 475 594 558 582 508 b 486 349 556 432 544 403 b 326 160 444 310 388 240 b 468 574 347 297 360 486 b 372 608 461 594 413 608 b 221 472 297 608 244 558 b 147 57 185 342 147 131 z m 856 1013 b 596 756 778 885 678 786 b 672 729 618 738 642 729 b 936 854 731 729 794 760 b 856 1013 936 906 894 989 z "},"ŵ":{"ha":882,"x_min":0,"x_max":0,"o":"m 147 57 b 229 -53 147 3 171 -35 b 385 169 288 26 314 75 b 522 319 419 214 493 306 b 493 183 519 289 514 265 b 478 50 482 139 478 104 b 551 -39 478 -1 508 -39 b 765 151 590 -39 696 76 b 1032 650 936 335 1014 444 b 1001 657 1026 654 1015 657 b 913 631 969 657 924 646 b 790 272 878 449 861 381 b 622 69 733 185 639 76 b 749 565 647 203 689 489 b 654 596 744 588 690 596 b 631 594 644 596 636 596 b 571 475 594 558 582 508 b 486 349 556 432 544 403 b 326 160 444 310 388 240 b 468 574 347 297 360 486 b 372 608 461 594 413 608 b 221 472 297 608 244 558 b 147 57 185 342 147 131 z m 806 990 b 767 992 796 992 789 992 b 682 972 729 992 700 985 l 686 950 b 488 808 626 879 563 835 b 563 772 510 785 535 772 b 721 850 607 772 669 804 b 865 706 760 767 817 706 b 878 707 871 706 875 706 b 806 990 836 750 818 822 z "},"ẅ":{"ha":882,"x_min":0,"x_max":0,"o":"m 147 57 b 229 -53 147 3 171 -35 b 385 169 288 26 314 75 b 522 319 419 214 493 306 b 493 183 519 289 514 265 b 478 50 482 139 478 104 b 551 -39 478 -1 508 -39 b 765 151 590 -39 696 76 b 1032 650 936 335 1014 444 b 1001 657 1026 654 1015 657 b 913 631 969 657 924 646 b 790 272 878 449 861 381 b 622 69 733 185 639 76 b 749 565 647 203 689 489 b 654 596 744 588 690 596 b 631 594 644 596 636 596 b 571 475 594 558 582 508 b 486 349 556 432 544 403 b 326 160 444 310 388 240 b 468 574 347 297 360 486 b 372 608 461 594 413 608 b 221 472 297 608 244 558 b 147 57 185 342 147 131 z m 594 840 b 665 758 603 807 626 775 b 769 911 683 774 769 910 b 675 972 751 942 699 969 b 594 840 606 968 594 897 z m 776 810 b 843 731 786 778 807 744 b 950 881 867 743 950 876 b 854 942 929 911 876 940 b 776 810 788 939 776 868 z "},"ẁ":{"ha":882,"x_min":0,"x_max":0,"o":"m 147 57 b 229 -53 147 3 171 -35 b 385 169 288 26 314 75 b 522 319 419 214 493 306 b 493 183 519 289 514 265 b 478 50 482 139 478 104 b 551 -39 478 -1 508 -39 b 765 151 590 -39 696 76 b 1032 650 936 335 1014 444 b 1001 657 1026 654 1015 657 b 913 631 969 657 924 646 b 790 272 878 449 861 381 b 622 69 733 185 639 76 b 749 565 647 203 689 489 b 654 596 744 588 690 596 b 631 594 644 596 636 596 b 571 475 594 558 582 508 b 486 349 556 432 544 403 b 326 160 444 310 388 240 b 468 574 347 297 360 486 b 372 608 461 594 413 608 b 221 472 297 608 244 558 b 147 57 185 342 147 131 z m 606 1013 b 525 854 567 989 525 906 b 789 729 667 760 731 729 b 865 756 819 729 843 738 b 606 1013 783 786 683 885 z "},"x":{"ha":592,"x_min":0,"x_max":0,"o":"m 567 8 b 458 243 522 93 483 172 b 725 611 604 389 704 526 b 633 660 717 632 679 651 b 429 324 567 511 506 411 b 390 556 401 410 390 483 b 393 614 390 583 390 594 b 240 643 351 628 279 643 b 213 611 217 643 213 636 b 322 210 213 539 260 357 b 39 -11 253 129 113 29 b 75 -64 40 -40 56 -60 b 349 140 156 -17 254 56 b 457 -47 383 56 426 -11 b 567 8 496 -44 547 -24 z "},"y":{"ha":679,"x_min":0,"x_max":0,"o":"m 657 215 b 804 574 696 336 747 453 b 669 618 788 594 718 618 b 435 208 579 469 522 340 b 274 53 365 106 307 58 b 264 78 271 56 264 64 b 322 294 264 126 306 253 b 503 615 406 492 482 597 b 376 658 471 647 407 658 b 128 199 261 574 163 339 b 115 81 118 160 115 133 b 268 -28 131 15 210 -25 b 503 235 354 3 456 160 b -12 -422 399 -165 199 -422 b -111 -376 -54 -422 -68 -415 b -131 -406 -122 -383 -131 -394 b 88 -501 -103 -457 -4 -501 b 356 -364 178 -501 271 -453 b 657 215 490 -224 574 -56 z "},"ý":{"ha":679,"x_min":0,"x_max":0,"o":"m 657 215 b 804 574 696 336 747 453 b 669 618 788 594 718 618 b 435 208 579 469 522 340 b 274 53 365 106 307 58 b 264 78 271 56 264 64 b 322 294 264 126 306 253 b 503 615 406 492 482 597 b 376 658 471 647 407 658 b 128 199 261 574 163 339 b 115 81 118 160 115 133 b 268 -28 131 15 210 -25 b 503 235 354 3 456 160 b -12 -422 399 -165 199 -422 b -111 -376 -54 -422 -68 -415 b -131 -406 -122 -383 -131 -394 b 88 -501 -103 -457 -4 -501 b 356 -364 178 -501 271 -453 b 657 215 490 -224 574 -56 z m 756 1021 b 496 764 678 893 578 794 b 572 738 518 746 542 738 b 836 863 631 738 694 768 b 756 1021 836 914 794 997 z "},"ŷ":{"ha":679,"x_min":0,"x_max":0,"o":"m 657 215 b 804 574 696 336 747 453 b 669 618 788 594 718 618 b 435 208 579 469 522 340 b 274 53 365 106 307 58 b 264 78 271 56 264 64 b 322 294 264 126 306 253 b 503 615 406 492 482 597 b 376 658 471 647 407 658 b 128 199 261 574 163 339 b 115 81 118 160 115 133 b 268 -28 131 15 210 -25 b 503 235 354 3 456 160 b -12 -422 399 -165 199 -422 b -111 -376 -54 -422 -68 -415 b -131 -406 -122 -383 -131 -394 b 88 -501 -103 -457 -4 -501 b 356 -364 178 -501 271 -453 b 657 215 490 -224 574 -56 z m 706 999 b 667 1000 696 1000 689 1000 b 582 981 629 1000 600 993 l 586 958 b 388 817 526 888 463 843 b 463 781 410 793 435 781 b 621 858 507 781 569 813 b 765 714 660 775 717 714 b 778 715 771 714 775 714 b 706 999 736 758 718 831 z "},"ÿ":{"ha":679,"x_min":0,"x_max":0,"o":"m 657 215 b 804 574 696 336 747 453 b 669 618 788 594 718 618 b 435 208 579 469 522 340 b 274 53 365 106 307 58 b 264 78 271 56 264 64 b 322 294 264 126 306 253 b 503 615 406 492 482 597 b 376 658 471 647 407 658 b 128 199 261 574 163 339 b 115 81 118 160 115 133 b 268 -28 131 15 210 -25 b 503 235 354 3 456 160 b -12 -422 399 -165 199 -422 b -111 -376 -54 -422 -68 -415 b -131 -406 -122 -383 -131 -394 b 88 -501 -103 -457 -4 -501 b 356 -364 178 -501 271 -453 b 657 215 490 -224 574 -56 z m 494 849 b 565 767 503 815 526 783 b 669 919 583 782 669 918 b 575 981 651 950 599 978 b 494 849 506 976 494 906 z m 676 818 b 743 739 686 786 707 753 b 850 889 767 751 850 885 b 754 950 829 919 776 949 b 676 818 688 947 676 876 z "},"ỳ":{"ha":679,"x_min":0,"x_max":0,"o":"m 657 215 b 804 574 696 336 747 453 b 669 618 788 594 718 618 b 435 208 579 469 522 340 b 274 53 365 106 307 58 b 264 78 271 56 264 64 b 322 294 264 126 306 253 b 503 615 406 492 482 597 b 376 658 471 647 407 658 b 128 199 261 574 163 339 b 115 81 118 160 115 133 b 268 -28 131 15 210 -25 b 503 235 354 3 456 160 b -12 -422 399 -165 199 -422 b -111 -376 -54 -422 -68 -415 b -131 -406 -122 -383 -131 -394 b 88 -501 -103 -457 -4 -501 b 356 -364 178 -501 271 -453 b 657 215 490 -224 574 -56 z m 506 1021 b 425 863 467 997 425 914 b 689 738 567 768 631 738 b 765 764 719 738 743 746 b 506 1021 683 794 583 893 z "},"ỹ":{"ha":679,"x_min":0,"x_max":0,"o":"m 657 215 b 804 574 696 336 747 453 b 669 618 788 594 718 618 b 435 208 579 469 522 340 b 274 53 365 106 307 58 b 264 78 271 56 264 64 b 322 294 264 126 306 253 b 503 615 406 492 482 597 b 376 658 471 647 407 658 b 128 199 261 574 163 339 b 115 81 118 160 115 133 b 268 -28 131 15 210 -25 b 503 235 354 3 456 160 b -12 -422 399 -165 199 -422 b -111 -376 -54 -422 -68 -415 b -131 -406 -122 -383 -131 -394 b 88 -501 -103 -457 -4 -501 b 356 -364 178 -501 271 -453 b 657 215 490 -224 574 -56 z m 379 875 b 578 751 392 811 464 751 b 792 793 639 751 710 764 b 744 918 785 831 767 893 b 507 853 650 874 578 853 b 379 875 465 853 424 860 z "},"z":{"ha":656,"x_min":0,"x_max":0,"o":"m 85 19 b 129 -46 88 -10 106 -36 b 238 17 157 -4 193 17 b 510 -31 307 17 408 -31 b 649 10 561 -31 607 -17 b 651 44 650 22 651 31 b 586 167 651 96 628 140 b 354 94 538 125 439 94 b 275 107 321 94 294 99 b 721 492 381 253 606 447 b 688 588 721 528 704 575 b 622 572 671 579 642 572 b 331 651 551 572 435 651 b 206 603 283 651 238 633 b 204 576 204 599 204 593 b 268 449 204 528 225 486 b 403 496 308 482 349 496 b 550 472 431 496 474 489 b 85 19 308 299 85 81 z "},"ź":{"ha":656,"x_min":0,"x_max":0,"o":"m 85 19 b 129 -46 88 -10 106 -36 b 238 17 157 -4 193 17 b 510 -31 307 17 408 -31 b 649 10 561 -31 607 -17 b 651 44 650 22 651 31 b 586 167 651 96 628 140 b 354 94 538 125 439 94 b 275 107 321 94 294 99 b 721 492 381 253 606 447 b 688 588 721 528 704 575 b 622 572 671 579 642 572 b 331 651 551 572 435 651 b 206 603 283 651 238 633 b 204 576 204 599 204 593 b 268 449 204 528 225 486 b 403 496 308 482 349 496 b 550 472 431 496 474 489 b 85 19 308 299 85 81 z m 692 1013 b 432 756 614 885 514 786 b 508 729 454 738 478 729 b 772 854 567 729 631 760 b 692 1013 772 906 731 989 z "},"ž":{"ha":656,"x_min":0,"x_max":0,"o":"m 85 19 b 129 -46 88 -10 106 -36 b 238 17 157 -4 193 17 b 510 -31 307 17 408 -31 b 649 10 561 -31 607 -17 b 651 44 650 22 651 31 b 586 167 651 96 628 140 b 354 94 538 125 439 94 b 275 107 321 94 294 99 b 721 492 381 253 606 447 b 688 588 721 528 704 575 b 622 572 671 579 642 572 b 331 651 551 572 435 651 b 206 603 283 651 238 633 b 204 576 204 599 204 593 b 268 449 204 528 225 486 b 403 496 308 482 349 496 b 550 472 431 496 474 489 b 85 19 308 299 85 81 z m 557 701 b 761 889 632 806 692 860 b 686 957 733 926 704 954 b 549 824 646 936 606 896 b 394 993 499 936 447 993 b 371 990 389 993 385 993 b 467 742 425 924 456 846 b 557 701 486 724 507 714 z "},"ż":{"ha":656,"x_min":0,"x_max":0,"o":"m 85 19 b 129 -46 88 -10 106 -36 b 238 17 157 -4 193 17 b 510 -31 307 17 408 -31 b 649 10 561 -31 607 -17 b 651 44 650 22 651 31 b 586 167 651 96 628 140 b 354 94 538 125 439 94 b 275 107 321 94 294 99 b 721 492 381 253 606 447 b 688 588 721 528 704 575 b 622 572 671 579 642 572 b 331 651 551 572 435 651 b 206 603 283 651 238 633 b 204 576 204 599 204 593 b 268 449 204 528 225 486 b 403 496 308 482 349 496 b 550 472 431 496 474 489 b 85 19 308 299 85 81 z m 478 742 b 519 704 478 726 497 708 b 676 897 533 735 635 858 b 508 994 649 939 551 994 b 465 813 485 935 465 844 b 482 767 465 797 472 776 b 478 742 479 756 478 747 z "},"×":{"ha":672,"x_min":0,"x_max":0,"o":"m 356 340 b 206 143 306 279 254 211 b 274 68 222 108 249 81 b 442 261 328 135 385 200 b 590 74 490 213 542 156 b 654 193 618 106 654 151 b 646 224 654 204 653 215 b 529 350 611 268 571 310 b 746 525 603 421 676 482 b 639 632 743 551 672 614 b 439 438 585 593 515 524 b 313 607 389 489 343 543 b 229 508 244 568 229 556 b 356 340 229 447 310 378 z "},"÷":{"ha":774,"x_min":0,"x_max":0,"o":"m 276 258 b 717 297 406 258 531 297 b 828 290 742 297 774 296 b 739 414 813 369 779 414 b 290 386 681 414 508 386 b 176 393 239 386 211 388 b 167 350 174 383 167 358 b 276 258 167 293 210 258 z m 558 457 b 690 579 588 457 661 511 b 525 671 658 626 564 671 b 489 506 518 642 489 546 b 558 457 496 482 533 460 z m 419 -12 b 551 110 449 -12 522 42 b 386 201 519 157 425 201 b 350 36 379 172 350 76 b 419 -12 357 13 394 -10 z "},"≤":{"ha":854,"x_min":0,"x_max":0,"o":"m 763 265 b 778 308 769 274 778 293 b 776 319 778 313 778 315 b 525 293 722 310 600 293 b 350 324 410 293 376 304 b 763 692 450 418 707 692 b 782 685 769 692 775 690 b 790 744 786 703 790 724 b 631 856 790 796 719 856 b 365 517 522 685 471 611 b 181 333 296 456 197 385 b 451 219 235 233 361 219 b 763 265 556 219 650 239 z m 282 22 b 722 61 411 22 536 61 b 833 54 747 61 779 60 b 744 178 818 133 785 178 b 296 150 686 178 514 150 b 182 157 244 150 217 151 b 172 114 179 147 172 122 b 282 22 172 57 215 22 z "},"≥":{"ha":911,"x_min":0,"x_max":0,"o":"m 435 764 b 388 732 419 763 393 747 b 678 553 492 700 604 624 b 781 419 757 475 774 453 b 311 407 685 418 435 411 b 171 322 226 404 171 378 b 217 213 171 293 185 257 b 626 286 404 265 493 286 b 790 282 676 286 738 282 b 900 300 836 282 876 286 b 904 339 903 313 904 326 b 818 521 904 413 858 481 b 435 764 710 626 596 718 z m 328 22 b 768 61 457 22 582 61 b 879 54 793 61 825 60 b 790 178 864 133 831 178 b 342 150 732 178 560 150 b 228 157 290 150 263 151 b 218 114 225 147 218 122 b 328 22 218 57 261 22 z "},"†":{"ha":668,"x_min":0,"x_max":0,"o":"m 440 107 b 515 58 457 75 489 58 b 618 632 563 174 583 410 b 808 650 672 635 754 640 b 774 756 808 688 796 753 b 629 692 756 742 690 711 b 675 896 642 764 656 833 b 574 929 654 915 611 929 b 506 904 546 929 519 922 b 492 679 496 829 493 754 b 265 690 425 681 304 689 b 263 668 264 685 263 676 b 308 571 263 633 281 594 b 492 626 353 599 404 619 b 440 107 490 453 490 279 z "},"‡":{"ha":725,"x_min":0,"x_max":0,"o":"m 449 107 b 524 58 465 75 497 58 b 586 353 551 125 569 232 b 789 372 639 356 731 363 b 754 478 789 410 776 475 b 594 410 735 463 660 429 l 626 632 b 817 650 681 635 763 640 b 782 756 817 688 804 753 b 638 692 764 742 699 711 b 683 896 650 764 664 833 b 582 929 663 915 619 929 b 514 904 554 929 528 922 b 500 679 504 829 501 754 b 274 690 433 681 313 689 b 271 668 272 685 271 676 b 317 571 271 633 289 594 b 500 626 361 599 413 619 b 494 401 500 551 500 476 b 246 413 439 401 290 411 b 243 390 244 407 243 399 b 289 293 243 356 261 317 b 490 350 336 324 392 344 b 449 107 483 269 472 188 z "},"§":{"ha":576,"x_min":0,"x_max":0,"o":"m 544 874 b 303 643 469 846 303 763 b 503 393 303 515 503 507 b 390 244 503 321 424 272 b 408 206 390 228 400 215 b 619 383 514 224 619 299 b 494 613 619 476 494 522 b 697 785 494 694 599 771 b 544 874 663 833 604 871 z m 350 482 b 157 256 247 451 157 354 b 379 33 157 101 379 131 b 207 -135 379 -32 278 -135 b 161 -82 181 -135 161 -122 b 168 -35 161 -69 163 -54 b 119 -125 138 -60 119 -93 b 213 -193 119 -161 144 -193 b 511 29 344 -193 511 -75 b 321 271 511 140 321 169 b 451 418 321 333 394 396 b 350 482 418 450 378 475 z "},"¶":{"ha":847,"x_min":0,"x_max":0,"o":"m 694 711 b 632 510 693 689 668 610 b 431 446 579 481 499 446 b 375 496 407 446 375 451 b 929 846 375 667 750 846 b 992 786 974 846 989 831 b 1026 861 1019 786 1026 821 b 860 1026 1026 953 961 1026 b 246 551 594 1010 246 847 b 401 372 246 417 332 372 b 615 464 461 372 528 404 b 400 -132 528 225 400 -101 b 531 -208 422 -178 465 -197 b 525 -162 526 -203 525 -178 b 811 683 525 -51 678 418 b 694 711 789 696 754 711 z m 969 710 b 851 736 943 721 901 736 b 622 43 811 564 622 168 b 731 -50 622 -15 678 -50 b 722 1 725 -36 722 -17 b 969 710 722 147 910 526 z "},"™":{"ha":818,"x_min":0,"x_max":0,"o":"m 428 904 b 475 906 440 904 458 904 b 392 663 432 761 403 699 b 458 621 406 639 428 625 b 550 917 467 682 500 819 b 594 918 563 918 582 918 b 646 915 604 918 618 918 b 601 969 640 947 628 969 b 438 958 583 969 492 958 b 390 967 421 958 403 961 b 382 942 385 951 382 943 b 428 904 382 921 399 904 z m 776 626 b 907 913 788 710 863 864 b 858 649 872 800 858 718 b 932 626 867 636 910 626 b 985 936 932 699 940 857 b 910 969 981 944 929 969 b 786 799 879 947 826 875 b 829 936 797 857 818 914 b 757 969 825 944 776 969 b 563 657 696 933 563 692 b 619 621 563 643 576 633 b 757 910 626 701 715 851 b 703 650 739 819 704 725 b 776 626 710 635 744 626 z "},"/":{"ha":757,"x_min":0,"x_max":0,"o":"m 1028 1032 b 867 1113 1015 1063 911 1113 b -15 -178 772 825 256 -17 b 43 -242 -8 -208 22 -237 b 1028 1032 328 -19 718 489 z "},"⁄":{"ha":575,"x_min":0,"x_max":0,"o":"m 896 990 b 763 1057 883 1021 807 1057 b -10 10 592 733 207 206 b 49 -54 -3 -21 28 -50 b 896 990 238 128 615 572 z "},"\\":{"ha":917,"x_min":0,"x_max":0,"o":"m 368 1032 b 778 -219 503 497 657 -15 b 836 -156 797 -215 829 -186 b 529 1113 760 13 608 575 b 368 1032 485 1113 381 1063 z "},"#":{"ha":939,"x_min":0,"x_max":0,"o":"m 347 478 b 471 483 375 478 419 479 b 426 351 456 439 442 394 b 265 349 367 349 310 349 b 167 357 221 349 197 353 b 157 310 161 339 157 324 b 240 244 157 269 185 244 b 390 253 272 244 326 247 b 217 -156 321 65 257 -82 b 253 -215 221 -186 232 -204 b 489 261 321 -117 403 53 b 633 272 536 265 585 269 b 453 -156 561 75 494 -79 b 489 -215 457 -186 468 -204 b 733 279 558 -114 643 63 b 860 285 781 283 825 285 b 954 278 882 285 910 283 b 890 376 950 356 925 376 b 769 371 875 376 831 374 b 826 513 789 417 807 464 b 967 518 879 517 928 518 b 1063 511 989 518 1017 517 b 997 610 1058 589 1032 610 b 861 603 981 610 929 607 b 1018 1032 913 740 965 885 b 893 1113 990 1092 938 1113 b 744 596 849 938 797 761 l 619 589 b 782 1032 674 731 728 879 b 657 1113 754 1092 701 1113 b 504 585 613 933 558 753 b 372 582 456 582 410 582 b 275 590 328 582 304 586 b 265 543 268 572 265 557 b 347 478 265 503 292 478 z m 582 493 b 714 504 625 496 669 500 b 667 364 699 456 682 410 b 528 357 622 361 575 358 b 582 493 546 400 564 446 z "},"&":{"ha":926,"x_min":0,"x_max":0,"o":"m 821 461 b 882 467 847 461 865 464 b 376 -29 761 292 528 -29 b 290 82 317 -29 290 17 b 603 511 290 226 421 468 b 467 585 592 539 508 581 b 738 885 467 699 635 885 b 767 860 757 885 767 881 b 719 753 767 824 742 775 b 736 739 721 747 726 742 b 831 885 776 768 824 840 b 672 1017 822 925 711 1011 b 325 686 539 993 325 819 b 419 567 325 639 351 596 b 133 146 282 497 138 321 b 385 -93 140 19 242 -76 b 943 476 594 -25 815 268 b 989 478 956 476 971 478 b 1100 471 1014 478 1046 476 b 1022 578 1082 547 1067 578 b 844 572 997 578 964 572 b 735 579 799 572 769 574 b 726 528 729 560 726 543 b 821 461 726 482 754 461 z "},"€":{"ha":1010,"x_min":0,"x_max":0,"o":"m 335 486 l 369 486 b 347 374 360 450 351 413 l 281 374 b 182 382 236 374 213 378 b 176 342 178 368 176 354 b 268 260 176 294 204 260 b 340 264 292 260 315 261 b 690 -108 343 24 464 -104 b 1018 200 783 -64 913 58 b 1001 229 1017 208 1010 221 b 650 -10 858 96 729 8 b 533 229 579 6 533 93 b 535 293 533 250 533 272 b 647 300 569 297 607 300 b 743 293 669 300 697 299 b 667 401 731 371 701 401 b 549 389 644 401 603 397 b 582 518 557 432 567 475 b 714 526 622 522 665 526 b 810 519 736 526 764 525 b 733 628 797 597 768 628 b 622 617 713 628 674 622 b 726 797 650 676 685 738 b 989 978 801 906 906 978 b 1065 917 1038 978 1065 956 b 960 753 1065 868 1025 806 b 1056 657 968 704 1008 664 b 1163 872 1118 710 1163 800 b 960 1025 1163 968 1086 1025 b 410 600 729 1025 515 844 l 347 600 b 249 608 303 600 279 604 b 243 568 244 594 243 581 b 335 486 243 521 271 486 z "}}}
